<svg xmlns="http://www.w3.org/2000/svg" viewBox="0 0 510.82 510.81"><defs><style>.cls-1{fill:#212120;}</style></defs><g id="Capa_2" data-name="Capa 2"><g id="Capa_1-2" data-name="Capa 1"><path class="cls-1" d="M.05,275.73l0-38.91c1.1-.29.9-1.19,1-2a248.7,248.7,0,0,1,4.89-33.46C27.18,98.9,113.8,17.81,217.84,2.83,223.61,2,229.6,2.34,235.13.05L276,0c.4,1.34,1.56.93,2.47,1,8.58.92,17.13,2.07,25.62,3.7,115.33,22.21,201.6,121.76,206.44,238.91,2.58,62.56-14.32,119.71-53.82,168.38-65.49,80.72-150.88,112.71-252.88,93.25C98.36,485.14,19.31,399.68,2.78,293.06,1.89,287.28,2.23,281.3.05,275.73Zm261.06-76.05-.76-1.58c7.08-6.79,14.64-13.14,21.16-20.44,16.79-18.8,16.78-47.73.48-66.64-19.46-22.6-52.75-23-75-.79q-59.94,60-119.67,120.14c-15.52,15.6-15.45,35,.12,50.59q30.35,30.32,60.77,60.55c20,19.95,40,40,60.08,59.82,17,16.8,41,20.21,60.83,8.95,29-16.41,34-55.73,10.16-80.32-6-6.17-12.23-12.1-18.48-18.28,2.21-1.43,4.08-.87,5.84-.87,39.9-.09,79.8-.53,119.7-.08,39.35.44,65.71-35.5,55.63-71-6.86-24.17-28.58-40.15-54.91-40.19-40.23,0-80.46.08-120.69.14Z"/></g></g></svg>