<svg xmlns="http://www.w3.org/2000/svg" viewBox="0 0 463.54 470.95"><defs><style>.cls-1{fill:#f8b510;}.cls-2{fill:#ef5e47;}.cls-3{fill:#fbcc31;}.cls-4{fill:#f6c8a3;}.cls-5{fill:#e3533c;}.cls-6{fill:#d64e37;}.cls-7{fill:#d64e38;}.cls-8{fill:#f69b33;}.cls-9{fill:#f8b885;}.cls-10{fill:#f4b98a;}.cls-11{fill:#f4996c;}.cls-12{fill:#e0dedd;}.cls-13{fill:#ecebe8;}.cls-14{fill:#8d583d;}</style></defs><g id="Capa_2" data-name="Capa 2"><g id="Capa_1-2" data-name="Capa 1"><path class="cls-1" d="M33.18,351.48,56,351.34H88.48c22.5,0,45,0,67.51-.07a7.94,7.94,0,0,1,6.69,3q28.26,32,56.7,63.86c1.31,1.48,2.75,2.85,4.13,4.27q0,24.28,0,48.58H95.7q0-22.29,0-44.59c0-1.83,0-3.53-1.4-5.12-8.82-9.92-17.49-20-26.31-29.89-8.52-9.58-17.42-18.85-25.61-28.71C39.33,358.94,35,356.23,33.18,351.48Zm103.1,71.65a22.62,22.62,0,0,1,3.19,0c3.75.55,5-.86,4.9-4.73-.18-11.05,0-11.05-11-11a10.43,10.43,0,0,1-1.37,0c-3.17-.44-4.54.87-4.12,4.08a24.39,24.39,0,0,1,0,3.2C127.94,423.13,127.94,423.13,136.28,423.13Zm7.5-32.12c8.07,0,8.07,0,8.07-7.88s0-7.82-7.65-7.82c-8.06,0-8.06,0-8.06,7.86S136.14,391,143.78,391Zm32,24.6c0-8.22,0-8.27-8.22-8.21-8.67.08-7.4-1.18-7.47,7.54-.07,8.19,0,8.19,8.18,8.19C175.77,423.13,175.77,423.13,175.77,415.61Zm-56-32.14c0-8.16,0-8.22-8.24-8.15-8.7.08-7.39-1.21-7.47,7.51-.07,8.18,0,8.23,8.2,8.17C120.9,390.93,119.62,392.13,119.75,383.47Z"/><path class="cls-2" d="M223.73,343c.23-15.56-1.08-31.16.71-46.68,2.46-21.29,22.33-39.62,43.78-40.5,5.94-.24,11.9,0,17.85,0-.1,3.47-2.51,6.95.65,10.37a74.37,74.37,0,0,0,30,20c6.17,2.2,12.61,3.12,18.93,4.59q0,78.6,0,157.19a3.76,3.76,0,0,0-1.31.31,291.3,291.3,0,0,1-30.22,20.1,2.85,2.85,0,0,0-1.55,2.6H271.34q.07-30.76.15-61.53a8,8,0,0,0-1.74-5c-10.38-14.29-14.22-30.13-11.44-47.65.72-4.52,2.62-8.71,3.3-13.8Zm96.38.43c-17.31-.06-34.61-.08-51.92-.21-2.43,0-3.26.83-3.15,3.2.18,4.13.16,8.26.22,12.4L265,375.2c0,4.12.08,8.25-.08,12.37-.1,2.62,1,3.44,3.5,3.43q24.53-.12,49.06,0c2.91,0,3.71-1.11,3.6-3.79-.16-4-.05-8-.05-11.92l-.09-16.53q0-7.36,0-14.72C320.91,343.49,320.67,343.26,320.11,343.38Z"/><path class="cls-3" d="M33.18,351.48c1.79,4.75,6.15,7.46,9.22,11.16,8.19,9.86,17.09,19.13,25.61,28.71,8.82,9.92,17.49,20,26.31,29.89,1.41,1.59,1.4,3.29,1.4,5.12q0,22.29,0,44.59H.06c0-38.13.07-76.25-.06-114.38,0-4,.72-5.63,5.17-5.42C14.49,351.58,23.84,351.4,33.18,351.48Z"/><path class="cls-4" d="M223.73,343h37.88c-.68,5.09-2.58,9.28-3.3,13.8-2.78,17.52,1.06,33.36,11.44,47.65a8,8,0,0,1,1.74,5q-.12,30.76-.15,61.53H223.52q0-24.3,0-48.58,0-36.74.07-73.45C223.58,346.93,223.68,344.94,223.73,343Z"/><path class="cls-4" d="M463.41,343q0,57.33.08,114.64c0,4.43,0,8.87.05,13.3H415.72c0-19.28,0-38.56-.15-57.84a18.06,18.06,0,0,1,3.39-11c10.66-15.5,13.21-32.5,8.62-50.66-.23-2.73-2.35-5-2.09-8.35h6.81Z"/><path class="cls-5" d="M427.58,351.44c4.59,18.16,2,35.16-8.62,50.66a18.06,18.06,0,0,0-3.39,11c.2,19.28.13,38.56.15,57.84H351.35q0-18.4,0-36.8a169.29,169.29,0,0,0,17.92-15.6c7.76-7.81,15.58-15.55,22.93-23.76,8.14-9.09,15.8-18.54,23.3-28.16C419.48,361.54,422.23,355.45,427.58,351.44Z"/><path class="cls-6" d="M351.36,434.15q0,18.41,0,36.8H335.72l0-23q0-78.6,0-157.19V274.17q0-12.29.07-24.58a53.88,53.88,0,0,0,15.53,0l.06,24.58q0,7.84,0,15.67Q351.37,362,351.36,434.15Z"/><path class="cls-5" d="M335.69,447.94l0,23H302.61a2.85,2.85,0,0,1,1.55-2.6,291.3,291.3,0,0,0,30.22-20.1A3.76,3.76,0,0,1,335.69,447.94Z"/><path class="cls-4" d="M311.76,208.89c-5.19-4.21-11.14-7.28-16.18-11.79a69.31,69.31,0,0,1-22.37-39.42c-.9-4.62-1.26-9.34-1.87-14q0-23.88,0-47.76c.56-3.69-.95-7.55.94-11.12,3.91,6.9,9.25,11.46,17.74,10.1a43.08,43.08,0,0,0,8.71-2.72c24.37-9.56,49.2-11,74.61-4.84,7.17,1.74,13.85,4.79,20.84,7,8.7,2.67,17.2-1.46,20.2-9.6.52-1.42-.13-3.14,1.23-4.28q.06,7.69.13,15.37,0,24,0,48l-.42,11.94c-1.13.16-1.31,1-1.51,1.95-4.45,22-16.75,38.23-36.19,49.19a5,5,0,0,0-2.37,2.06,15.62,15.62,0,0,0-3.08.66c-15.77,6.84-31.88,7.55-48.44,3.28C319.66,211.76,316.1,209.16,311.76,208.89Zm17.23-57c-2.06,0-3.13,0-4.2,0-4.77,0-5.55,1-4.49,5.71,2.3,10.1,13.09,18.43,23.54,18.18s20.93-8.55,23-18.37c.94-4.48.18-5.48-4.3-5.52-2,0-4,.1-5.95,0-2.91-.18-4.87.18-6.29,3.55-2.12,5-10.64,5.77-12.83,1S332,151.6,329,151.9Zm62.13-27.85c.07-6.69-4.7-11.73-11.23-11.86a11.69,11.69,0,1,0-.38,23.37A11.32,11.32,0,0,0,391.12,124.05Zm-83.56,11.51a11.7,11.7,0,1,0,.06-23.39c-6.81,0-11.74,5-11.68,11.9A11.32,11.32,0,0,0,307.56,135.56Z"/><path class="cls-2" d="M351.36,434.15q0-72.15,0-144.31a36.88,36.88,0,0,0,6.41-.22c12.91-2.6,24.81-7.63,34.94-16.11,5.32-4.46,11.94-8.83,8.28-17.71,13.18-.48,26.29-1.15,38.29,6.23a49.2,49.2,0,0,1,21.33,26c-2.55.67-2.74,3.07-3.46,4.95A213.49,213.49,0,0,1,446,318.41c-4.43,8.3-9.11,16.46-13.69,24.68h-6.81c-.26,3.38,1.86,5.62,2.09,8.35-5.35,4-8.1,10.1-12.07,15.19-7.5,9.62-15.16,19.07-23.3,28.16-7.35,8.21-15.17,15.95-22.93,23.76A169.29,169.29,0,0,1,351.36,434.15Z"/><path class="cls-2" d="M56.09,287.36c-17.15,0-34.3-.11-51.44,0-3.31,0-4.52-.72-4.48-4.29q.27-27.78,0-55.57c0-3.39,1.21-4,4.24-4q67.76.12,135.5,0c3.52,0,4.34,1,4.31,4.39q-.24,27.56,0,55.11c0,3.47-1,4.38-4.42,4.35-17.15-.14-34.3,0-51.44,0Q72.22,286.81,56.09,287.36ZM80.2,247.53a15.65,15.65,0,0,1-2.74,0c-4.73-.84-5.93,1.19-5.77,5.77.34,9.89.1,9.9,10.31,9.9,6.34,0,6.34,0,6.34-6.44v-.91C88.34,247.53,88.34,247.53,80.2,247.53Zm31.46,0c-8.76.12-7.61-1.13-7.67,7.38-.06,8.26,0,8.3,8.16,8.24,8.57,0,7.46,1.07,7.44-7.59C119.58,246.28,120.89,247.67,111.66,247.53ZM40.51,255c.16,9.46-1.29,8.18,7.77,8.18s7.85,1.21,7.85-7.62c0-9.25,1.28-7.94-8-8C39.46,247.54,40.63,246.4,40.51,255Z"/><path class="cls-7" d="M271.79,68.18c-.4-9.62-.85-19.3.73-28.83C276,18.29,295.6.94,316.94.37c17.73-.48,35.5-.51,53.22,0C393.4,1.05,413.36,20.81,415,44l.27,3.66c-1,6.86-.13,13.76-.5,20.63-2.85-4.37-6.09-8.16-11-10.62C376.94,44,348.5,39.76,319.11,45.53,301.7,49,283.75,52.7,271.79,68.18Z"/><path class="cls-8" d="M415.38,155.69l.42-11.94,7.81-.1c11.6-.15,22.3-9.58,23.36-20.6,1.27-13.19-6.79-24-19.35-26.49-4-.78-7.91-.52-11.86-.8q-.06-7.68-.13-15.37c0-2.55,0-5.11,0-7.66q0-12.36.1-24.72c27.5,1.2,47.48,21.81,47.56,49.33.1,37.79-.06,75.58.14,113.37,0,4.49-1.59,4.95-5.3,4.68-21.3-1.53-41.4-21.82-42.49-43.18C415.4,166.71,415.47,161.2,415.38,155.69Z"/><path class="cls-2" d="M415.67,72.73c0,2.55,0,5.11,0,7.66-1.36,1.14-.71,2.86-1.23,4.28-3,8.14-11.5,12.27-20.2,9.6-7-2.16-13.67-5.21-20.84-7-25.41-6.17-50.24-4.72-74.61,4.84A43.08,43.08,0,0,1,290,94.88c-8.49,1.36-13.83-3.2-17.74-10.1a50.83,50.83,0,0,1-.51-16.6c12-15.48,29.91-19.23,47.32-22.65,29.39-5.77,57.83-1.54,84.73,12.1,4.87,2.46,8.11,6.25,11,10.62C415.1,69.74,414.27,71.45,415.67,72.73Z"/><path class="cls-3" d="M88.48,351.35H56l.3-40.4c10.57.51,21.19-.86,31.73.89q.1,17.26.21,34.54C88.26,348,88.39,349.69,88.48,351.35Z"/><path class="cls-9" d="M271.36,95.9q0,23.88,0,47.76c-6.39,0-12.84.65-18.77-2.72-9.76-5.54-14.67-16-12.18-26.28a24.59,24.59,0,0,1,23.17-18.78C266.16,95.78,268.76,95.89,271.36,95.9Z"/><path class="cls-4" d="M351.3,249.59a53.88,53.88,0,0,1-15.53,0c-.45-.07-.91-.11-1.35-.21-8.5-1.89-16.79-4.22-22.86-11.09.08-2.16.17-4.31.25-6.47l0-7.29c1.73.57,3.49,1.05,5.17,1.73a71.3,71.3,0,0,0,39.1,4c6.68-1.1,12.71-4,19.11-5.75q0,3.65,0,7.29c.08,2.16.17,4.31.25,6.47-.3,1.54-1.62,2.14-2.74,2.89A50.5,50.5,0,0,1,351.3,249.59Z"/><path class="cls-2" d="M351.3,249.59a50.5,50.5,0,0,0,21.47-8.41c1.12-.75,2.44-1.35,2.74-2.89,3.3-1.11,5.06-3.93,7.12-6.42,3.45,2,4.63,5.81,6.78,8.82,3.07,4.31,5.8,8.85,8.68,13.29-5-.63-8.75,1.13-12.59,4.65a58.48,58.48,0,0,1-34.14,15.54Z"/><path class="cls-2" d="M311.56,238.29c6.07,6.87,14.36,9.2,22.86,11.09.44.1.9.14,1.35.21q0,12.3-.07,24.58a60.9,60.9,0,0,1-30.34-12.32c-4.88-3.7-8.73-9.85-16.39-7.87l13.68-20.9a2.15,2.15,0,0,1,1.78-1.21C306.49,234.36,308.26,237.17,311.56,238.29Z"/><path class="cls-10" d="M375.22,224.53c-6.4,1.78-12.43,4.65-19.11,5.75a71.3,71.3,0,0,1-39.1-4c-1.68-.68-3.44-1.16-5.17-1.73q0-7.83-.08-15.64c4.34.27,7.9,2.87,12,3.94,16.56,4.27,32.67,3.56,48.44-3.28a15.62,15.62,0,0,1,3.08-.66Z"/><path class="cls-5" d="M432.3,343.09c4.58-8.22,9.26-16.38,13.69-24.68A213.49,213.49,0,0,0,457.16,293c.72-1.88.91-4.28,3.46-4.95a39,39,0,0,1,2.79,14.71c.14,13.43,0,26.87,0,40.3Z"/><path class="cls-5" d="M289,254c7.66-2,11.51,4.17,16.39,7.87a60.9,60.9,0,0,0,30.34,12.32v16.58c-6.32-1.47-12.76-2.39-18.93-4.59a74.37,74.37,0,0,1-30-20c-3.16-3.42-.75-6.9-.65-10.37A5.38,5.38,0,0,0,289,254Z"/><path class="cls-5" d="M351.36,274.17a58.48,58.48,0,0,0,34.14-15.54c3.84-3.52,7.58-5.28,12.59-4.65A5.29,5.29,0,0,0,401,255.8c3.66,8.88-3,13.25-8.28,17.71-10.13,8.48-22,13.51-34.94,16.11a36.88,36.88,0,0,1-6.41.22Q351.37,282,351.36,274.17Z"/><path class="cls-1" d="M88,311.83c-10.54-1.75-21.16-.38-31.73-.89l-.21-23.58q16.14-.57,32.27,0Z"/><path class="cls-6" d="M311.56,238.29c-3.3-1.12-5.07-3.93-7.13-6.42l7.38-.05C311.73,234,311.64,236.13,311.56,238.29Z"/><path class="cls-6" d="M382.63,231.87c-2.06,2.49-3.82,5.31-7.12,6.42-.08-2.16-.17-4.31-.25-6.47Z"/><path class="cls-11" d="M415.67,72.73c-1.4-1.28-.57-3-.87-4.48.37-6.87-.47-13.77.5-20.63a.64.64,0,0,1,.47.39Q415.73,60.37,415.67,72.73Z"/><path class="cls-2" d="M136.28,423.13c-8.34,0-8.34,0-8.34-8.47a24.39,24.39,0,0,0,0-3.2c-.42-3.21,1-4.52,4.12-4.08a10.43,10.43,0,0,0,1.37,0c11,0,10.78,0,11,11,.06,3.87-1.15,5.28-4.9,4.73A22.62,22.62,0,0,0,136.28,423.13Z"/><path class="cls-2" d="M143.78,391c-7.64,0-7.64,0-7.64-7.84s0-7.86,8.06-7.86c7.65,0,7.65,0,7.65,7.82S151.85,391,143.78,391Z"/><path class="cls-2" d="M175.77,415.61c0,7.52,0,7.52-7.51,7.52-8.2,0-8.25,0-8.18-8.19.07-8.72-1.2-7.46,7.47-7.54C175.77,407.34,175.77,407.39,175.77,415.61Z"/><path class="cls-2" d="M119.75,383.47c-.13,8.66,1.15,7.46-7.51,7.53-8.22.06-8.27,0-8.2-8.17.08-8.72-1.23-7.43,7.47-7.51C119.75,375.25,119.75,375.31,119.75,383.47Z"/><path class="cls-12" d="M320.9,358.77,321,375.3l-56-.1.3-16.43Z"/><path class="cls-6" d="M265,375.2l56,.1c0,4-.11,7.95.05,11.92.11,2.68-.69,3.81-3.6,3.79q-24.53-.17-49.06,0c-2.54,0-3.6-.81-3.5-3.43C265,383.45,265,379.32,265,375.2Z"/><path class="cls-13" d="M320.9,358.77H265.26c-.06-4.14,0-8.27-.22-12.4-.11-2.37.72-3.22,3.15-3.2,17.31.13,34.61.15,51.92.21l.75.67Q320.88,351.42,320.9,358.77Z"/><path class="cls-12" d="M320.86,344.05l-.75-.67C320.67,343.26,320.91,343.49,320.86,344.05Z"/><path class="cls-9" d="M415.76,95.76c3.95.28,7.89,0,11.86.8,12.56,2.46,20.62,13.3,19.35,26.49-1.06,11-11.76,20.45-23.36,20.6l-7.81.1Q415.77,119.75,415.76,95.76Z"/><path class="cls-11" d="M329,151.9c3-.3,6.24-.46,8.47,4.48s10.71,4.07,12.83-1c1.42-3.37,3.38-3.73,6.29-3.55,2,.13,4,0,5.95,0,4.48,0,5.24,1,4.3,5.52-2.06,9.82-12.45,18.12-23,18.37s-21.24-8.08-23.54-18.18c-1.06-4.68-.28-5.68,4.49-5.71C325.86,151.89,326.93,151.9,329,151.9Z"/><path class="cls-14" d="M391.12,124.05a11.7,11.7,0,0,1-23.39-.36,11.51,11.51,0,0,1,12.16-11.5C386.42,112.32,391.19,117.36,391.12,124.05Z"/><path class="cls-14" d="M307.56,135.56a11.32,11.32,0,0,1-11.62-11.49c-.06-6.88,4.87-11.91,11.68-11.9a11.7,11.7,0,1,1-.06,23.39Z"/><path class="cls-7" d="M80.2,247.53c8.14,0,8.14,0,8.14,8.29v.91c0,6.43,0,6.43-6.34,6.44-10.21,0-10,0-10.31-9.9-.16-4.58,1-6.61,5.77-5.77A15.65,15.65,0,0,0,80.2,247.53Z"/><path class="cls-6" d="M111.66,247.53c9.23.14,7.92-1.25,7.93,8,0,8.66,1.13,7.54-7.44,7.59-8.17.06-8.22,0-8.16-8.24C104.05,246.4,102.9,247.65,111.66,247.53Z"/><path class="cls-6" d="M40.51,255c.12-8.55-1-7.41,7.65-7.4,9.25,0,8-1.29,8,8,0,8.83,1.21,7.63-7.85,7.62S40.67,264.41,40.51,255Z"/></g></g></svg>