<svg xmlns="http://www.w3.org/2000/svg" viewBox="0 0 509.98 418.79"><defs><style>.cls-1{fill:#fff;}.cls-2{fill:#ade0e4;}.cls-3{fill:#f7de56;}.cls-4{fill:#b2dc9a;}.cls-5{fill:#9bd47f;}.cls-6{fill:#8fd1e0;}.cls-7{fill:#f9eb9a;}.cls-8{fill:#5b595d;}.cls-9{fill:#5d5b5d;}.cls-10{fill:#5a595d;}</style></defs><g id="Capa_2" data-name="Capa 2"><g id="Capa_1-2" data-name="Capa 1"><path class="cls-1" d="M254.94,0c-16.68,0-30.53,15.36-28.62,31.91a295.63,295.63,0,0,0,7,38.94c2.69,10.59,5.7,21.11,10.84,30.82,2.46,4.65,4.82,10.4,11,10.3s8.48-5.8,10.82-10.51a110.59,110.59,0,0,0,5.91-14.19c5.78-17.28,9-35.11,11.61-53.13C286.08,16.48,272.85,0,254.94,0ZM217.28,120.23a36.88,36.88,0,0,0-.76-7.37c-3.45-13.5-9.89-25.53-17.56-37-6.85-10.27-15.24-17.7-28.68-17.17a28.3,28.3,0,0,0-25.19,17.94c-4.28,10.84-2.74,21.15,5.42,29.36,14.37,14.44,32.12,23.16,52,27.13C210.67,134.72,218.36,130.43,217.28,120.23ZM369.68,87c-.18-2.62,0-5.23-.78-7.86-6.42-21-32.55-28-47.76-12a99.62,99.62,0,0,0-25,47.82c-3.1,14.21,3.25,20.37,17.37,17.36,18-3.85,33.68-12.49,47.43-24.63A24.71,24.71,0,0,0,369.68,87Z"/><path class="cls-2" d="M353.54,186.93c13.9-9.85,18.61-25.73,26-39.81,6.52-12.42,17.72-16.87,30.77-11.88,5.62,2.15,9.12,6.4,11.72,11.54,4,8,7.84,16.08,12,24,6.78,12.8,17.7,19.62,31.94,21.45,7.84,1,15.69,2,23.48,3.35,10.66,1.83,17,8.63,20.5,18.54v10c-4.53,11.37-13.85,18.85-22.59,26.5-12.81,11.23-17.3,24.9-14.68,41.3,1.33,8.29,3.19,16.5,4.27,24.82,1.21,9.35-2.48,17.12-10.14,22.31-7.89,5.33-16.47,5-24.94.69-11.32-5.78-22.16-12.57-34.52-16.12,2.55-9.85,8.81-17.66,14.48-25.73,8.21-11.68,15.95-23.58,19.72-37.54,5.81-21.53-1.55-37.58-21.76-46.53-12-5.31-25-7.59-37.11-12.43C372.61,197.3,362.17,193.94,353.54,186.93Z"/><path class="cls-3" d="M212.34,203.06c6.67-10.86,11.54-22.64,17.37-33.93,7-13.64,20.69-19.88,35.32-15.75,8.22,2.33,14.17,7.57,18,15.22q8.25,16.38,16.58,32.71c7.13,13.5,18.49,21.6,33.15,24.63,11.17,2.31,22.55,3.61,33.87,5.11,12.92,1.71,22.55,7.76,26.83,20.46s.42,23.31-9.12,32.35c-8.08,7.64-16.06,15.39-23.76,23.41-9.62,10-14.38,22.07-13.76,36.09.14,10,3,19.57,4.3,29.38.95,7,3.46,13.9,2.05,21.12-4,20.33-24.53,30.54-43.21,21.31-9.79-4.84-19.32-10.23-29-15.25q-24.49-12.68-49,.08c-9.7,5.05-19.23,10.43-29,15.23-10.64,5.21-21.32,4.9-31-2.22-9.06-6.64-13.6-15.88-12.14-27.21,1.31-10.16,3.48-20.21,5.13-30.32.69-4.23,1.87-8.42,1.43-12.78A44.49,44.49,0,0,0,162,321.55c-7.32-15.9-21.48-25.83-33.41-37.62-8.9-8.81-13-18.81-9.61-30.87,3.2-11.35,10.81-18.92,22.72-21,11-1.95,22.17-3.26,33.24-5C190.83,224.48,204.05,217.59,212.34,203.06Zm44.21,113.39c7.43-.56,13.76-3.33,17.93-9.84,2.37-3.7,1.73-7.9-1.52-10.19-3.54-2.5-7.08-2.4-10.36.66-5.56,5.17-6.77,5.16-12.17,0-3.09-2.95-7.36-3.35-10.32-.73-3.27,2.89-4.08,6.41-1.61,10.2C242.72,313,249,315.89,256.55,316.45Zm71.09-17.12h0c0-2.15.14-4.31,0-6.45-.35-4.39-2.89-6.95-7.17-7.57a7.45,7.45,0,0,0-8.09,6.48,51.29,51.29,0,0,0,.06,15.3c.68,4,3.5,6.5,7.67,6.35,4.37-.16,7-2.85,7.48-7.18A59.3,59.3,0,0,0,327.64,299.33Zm-142.21,0h0c0,2.16-.13,4.32,0,6.47.31,4.39,2.75,7.05,7.1,7.63,3.75.5,7.37-2.37,8-6.57a46.67,46.67,0,0,0-.05-15.33c-.74-4.18-3.64-6.34-7.8-6.08s-6.69,2.79-7.21,6.93A55.51,55.51,0,0,0,185.43,299.34Z"/><path class="cls-4" d="M102.74,323.52c-13.57,3.74-25,12.14-37.77,17.5-8,3.38-16,2.46-23-3-7.37-5.83-10.13-13.6-8.65-23,1.65-10.43,4.26-20.72,4.73-31.34.61-13.66-5.53-24.19-15.18-33.18-5.45-5.08-11-10.09-16.09-15.54C0,227.69-2,219.13,2.11,209.73s12-13.46,21.92-14.61a248.61,248.61,0,0,0,25.95-4,37.7,37.7,0,0,0,26.16-20.41c3.94-7.67,7.75-15.41,11.55-23.15,4.49-9.15,11.48-14.27,22-14.18,10.12.09,16.73,5.25,21,14,2.17,4.48,4.59,8.84,6.62,13.38,4.53,10.09,10,19.48,19.31,26-10.07,8.2-22.19,12.12-34.13,16.4-12.43,4.46-25.69,6.65-37.32,13.27-16.21,9.25-20.5,22.26-17.73,38.45S79,284.57,88.24,297.79C93.89,305.88,100.14,313.68,102.74,323.52Z"/><path class="cls-5" d="M102.74,323.52c-2.6-9.84-8.85-17.64-14.5-25.73-9.24-13.22-18-26.68-20.83-42.92s1.52-29.2,17.73-38.45c11.63-6.62,24.89-8.81,37.32-13.27,11.94-4.28,24.06-8.2,34.13-16.4,12.56,6.05,26.36,6.32,39.75,8.48,6.14,1,11.81,2.9,16,7.83-8.29,14.53-21.51,21.42-37.45,23.95-11.07,1.76-22.21,3.07-33.24,5-11.91,2.11-19.52,9.68-22.72,21-3.39,12.06.71,22.06,9.61,30.87,11.93,11.79,26.09,21.72,33.41,37.62a44.49,44.49,0,0,1,4.34,21.15c-5.45,1.37-10.49-.12-15.27-2.51-6.06-3-12.14-6.05-18-9.5A50.31,50.31,0,0,0,102.74,323.52Z"/><path class="cls-6" d="M346.84,343.36c-.62-14,4.14-26.07,13.76-36.09,7.7-8,15.68-15.77,23.76-23.41,9.54-9,13.4-19.65,9.12-32.35s-13.91-18.75-26.83-20.46c-11.32-1.5-22.7-2.8-33.87-5.11-14.66-3-26-11.13-33.15-24.63,5.33-5.31,12.4-5.94,19.24-6.84,11.78-1.54,23.62-2.69,34.67-7.54,8.63,7,19.07,10.37,29.17,14.39,12.13,4.84,25.12,7.12,37.11,12.43,20.21,8.95,27.57,25,21.76,46.53-3.77,14-11.51,25.86-19.72,37.54-5.67,8.07-11.93,15.88-14.48,25.73-15.73-2-28.33,5.95-41.18,13C360.09,339.89,354,343.11,346.84,343.36Z"/><path class="cls-7" d="M254.94,0c17.91,0,31.14,16.48,28.56,34.14-2.64,18-5.83,35.85-11.61,53.13A110.59,110.59,0,0,1,266,101.46c-2.34,4.71-4.74,10.41-10.82,10.51s-8.51-5.65-11-10.3C239.05,92,236,81.44,233.35,70.85a295.63,295.63,0,0,1-7-38.94C224.41,15.36,238.26,0,254.94,0Z"/><path class="cls-7" d="M217.28,120.23c1.08,10.2-6.61,14.49-14.77,12.87-19.88-4-37.63-12.69-52-27.13-8.16-8.21-9.7-18.52-5.42-29.36a28.3,28.3,0,0,1,25.19-17.94c13.44-.53,21.83,6.9,28.68,17.17,7.67,11.49,14.11,23.52,17.56,37A36.88,36.88,0,0,1,217.28,120.23Z"/><path class="cls-7" d="M369.68,87A24.71,24.71,0,0,1,361,107.76c-13.75,12.14-29.46,20.78-47.43,24.63-14.12,3-20.47-3.15-17.37-17.36a99.62,99.62,0,0,1,25-47.82c15.21-16,41.34-9.09,47.76,12C369.71,81.79,369.5,84.4,369.68,87Z"/><path class="cls-8" d="M256.55,316.45c-7.57-.56-13.83-3.44-18.05-9.89-2.47-3.79-1.66-7.31,1.61-10.2,3-2.62,7.23-2.22,10.32.73,5.4,5.15,6.61,5.16,12.17,0,3.28-3.06,6.82-3.16,10.36-.66,3.25,2.29,3.89,6.49,1.52,10.19C270.31,313.12,264,315.89,256.55,316.45Z"/><path class="cls-9" d="M327.64,299.33a59.3,59.3,0,0,1-.05,6.93c-.51,4.33-3.11,7-7.48,7.18-4.17.15-7-2.32-7.67-6.35a51.29,51.29,0,0,1-.06-15.3,7.45,7.45,0,0,1,8.09-6.48c4.28.62,6.82,3.18,7.17,7.57.17,2.14,0,4.3,0,6.45Z"/><path class="cls-10" d="M185.43,299.34a55.51,55.51,0,0,1,.06-6.95c.52-4.14,3.06-6.68,7.21-6.93s7.06,1.9,7.8,6.08a46.67,46.67,0,0,1,.05,15.33c-.65,4.2-4.27,7.07-8,6.57-4.35-.58-6.79-3.24-7.1-7.63-.16-2.15,0-4.31,0-6.47Z"/></g></g></svg>