<svg xmlns="http://www.w3.org/2000/svg" viewBox="0 0 510.83 511.09"><defs><style>.cls-1{fill:#f9c83b;}.cls-2{fill:#fbda79;}.cls-3{fill:#f96642;}.cls-4{fill:#ea3030;}.cls-5{fill:#f94541;}.cls-6{fill:#f9c73b;}.cls-7{fill:#eeb026;}.cls-8{fill:#f94441;}.cls-9{fill:#f94540;}.cls-10{fill:#f9c43b;}</style></defs><g id="Capa_2" data-name="Capa 2"><g id="Capa_1-2" data-name="Capa 1"><path class="cls-1" d="M0,117c3.66-8.46,10-11.65,19.24-11.36,15.52.5,31.06.11,46.59.09,12.29,3.41,24.6,6.75,36.87,10.25,10.34,3,20.93,5,31,9-6.87,10.73-13.94,21.34-20.54,32.23a453.31,453.31,0,0,0-27.44,52.93c-1.52,3.49-3.47,4.88-7.47,4.79-13.78-.29-27.57-.1-41.35-.1-5.81,0-11.64-.36-17.42,0-9.44.57-16-3.05-19.48-12Z"/><path class="cls-2" d="M52.88,511.09a6.49,6.49,0,0,0-.16-.86c1.66,0,3.31-.13,5-.13q78.36,0,156.73,0l.08,1Z"/><path class="cls-2" d="M458.09,510.23a6.19,6.19,0,0,0-.15.86H296.31c0-.34.05-.68.08-1q44.52,0,89.06,0Q421.78,510.13,458.09,510.23Z"/><path class="cls-3" d="M296.39,510.07l-.08,1H214.5c0-.34-.05-.68-.08-1l.43,0H296Z"/><path class="cls-1" d="M458.09,510.23q-36.31-.06-72.64-.13-44.54,0-89.06,0l-.44,0c.09-2.15.26-4.3.26-6.45q0-123.25,0-246.5c0-2.16.11-4.31.17-6.47l27.7,0c14.69,31.94,24.71,65.33,31.15,99.85.9,4.85,1.21,9.88,3.2,15.2,1.25-1.52,2-2.36,2.69-3.28a376.21,376.21,0,0,0,30-46.94c2.11-4,3.94-4.62,7.85-1.88,11.69,8.19,23.31,16.46,34.32,25.55,5.27,4.36,10.5,8.75,16.4,13.68a476.06,476.06,0,0,0-9.25-48.24c-4.38-18.21-10-36.06-15.85-53.85l49-.14c.06,1.49.17,3,.17,4.48q0,116.78,0,233.55C473.78,500.81,468.62,507.86,458.09,510.23Z"/><path class="cls-4" d="M214.57,54.82c8.33-7.13,18.27-7.47,28.52-7.11,8.26.29,16.55.34,24.8,0,10.23-.42,20,.2,28.35,7.11,2.65,5.83,5.71,11.37,5.2,18.3-.58,7.88-.18,7.82,6.76,4,23.18-12.7,47.08-23.64,73.27-28.55,13.37-2.5,26.7-2.85,39.18,3.91,4.24,2.3,8.08,5.14,10.63,9.45s2.23,8.53-1,11.27c-3.35,2.88-8.12,2.71-11.59-1A26.57,26.57,0,0,0,400,63.11c-7.52-.42-14.86.83-22.09,2.61C352.43,72,329.42,84.13,306.36,96.21c-4.36,2.28-5.21,5.08-5.13,9.44.19,12,.28,23.94-.17,35.89-.13,3.37.31,3.76,3.23,2.93,6.84-1.93,13.74-3.67,20.59-5.57,12.41-3.45,24.74-7.24,37.36-9.93a292.47,292.47,0,0,1,16.88,26.09c3.8,6.51,8.13,12.74,10.95,19.79a39.37,39.37,0,0,0-4.37.69q-13.36,3.6-26.69,7.33-30.47,8.49-60.92,17l-1.8-1.2c-7-13-15.68-24.79-24.7-36.39-1.14-1.46-2.5-1.39-4-1.39q-12.21,0-24.41,0c-1.47,0-2.84-.07-4,1.39-9,11.6-17.71,23.42-24.71,36.39l-1.8,1.22a12.62,12.62,0,0,0-1.81-.8c-22.54-6.3-45-12.77-67.64-18.78-7.46-2-14.76-4.74-22.53-5.47,0-1.8,1.19-3,2-4.45,7.81-14.19,16.76-27.67,25.27-41.44,6.79.7,13.13,3.21,19.67,4.92,13,3.4,25.84,7,38.77,10.5,1.53.41,3.56,1.8,3.49-1.75-.24-12.78-.38-25.56-.35-38.34a6.87,6.87,0,0,0-3.9-6.75A360.14,360.14,0,0,0,169.36,79C157.25,73.68,145,68.53,132,65.72c-7.44-1.6-14.9-3.2-22.57-2.56a27,27,0,0,0-18.61,9.26,7.93,7.93,0,0,1-11.21.88c-3-2.52-3.86-7.78-1.32-10.86C83.4,56.24,89.23,51,97.45,49c12.71-3.14,25.23-2.06,37.76.85,23.95,5.57,45.8,16.31,67.52,27.37,2.12,1.08,3.8,3.17,7,3C208.49,71.09,209.77,62.58,214.57,54.82Z"/><path class="cls-5" d="M362.24,129c-12.62,2.69-24.95,6.48-37.36,9.93-6.85,1.9-13.75,3.64-20.59,5.57-2.92.83-3.36.44-3.23-2.93.45-11.95.36-23.93.17-35.89-.08-4.36.77-7.16,5.13-9.44C329.42,84.13,352.43,72,377.94,65.72c7.23-1.78,14.57-3,22.09-2.61a26.57,26.57,0,0,1,18.69,9.06c3.47,3.75,8.24,3.92,11.59,1,3.2-2.74,3.47-7.06,1-11.27s-6.39-7.15-10.63-9.45c-12.48-6.76-25.81-6.41-39.18-3.91-26.19,4.91-50.09,15.85-73.27,28.55-6.94,3.8-7.34,3.86-6.76-4,.51-6.93-2.55-12.47-5.2-18.3,14.94-7.2,29.85-14.45,44.81-21.59C361.11,23.63,381.17,14,401.31,4.6,422-5.06,443,2.33,452,22.9c5.26,12,9.53,24.41,13.83,36.78,6.19,17.85-1.56,37.2-20.94,46.06-15.17,4.19-30.37,8.3-45.51,12.59C387,121.84,374.4,124.63,362.24,129Z"/><path class="cls-5" d="M214.57,54.82c-4.8,7.76-6.08,16.27-4.81,25.35-3.23.22-4.91-1.87-7-3C181,66.16,159.16,55.42,135.21,49.85c-12.53-2.91-25.05-4-37.76-.85-8.22,2-14,7.24-19.16,13.44-2.54,3.08-1.63,8.34,1.32,10.86a7.93,7.93,0,0,0,11.21-.88,27,27,0,0,1,18.61-9.26c7.67-.64,15.13,1,22.57,2.56,13,2.81,25.25,8,37.36,13.32a360.14,360.14,0,0,1,36.31,18.5,6.87,6.87,0,0,1,3.9,6.75c0,12.78.11,25.56.35,38.34.07,3.55-2,2.16-3.49,1.75-12.93-3.48-25.82-7.1-38.77-10.5-6.54-1.71-12.88-4.22-19.68-4.92a40.94,40.94,0,0,0-14.28-4c-10.07-3.9-20.66-6-31-9-12.27-3.5-24.58-6.84-36.87-10.25C50.75,98.29,42.51,86.55,43,69.34a2.07,2.07,0,0,1,0-.5c4.53-18.74,10-37.37,20.41-53.6C72.8.58,90.29-3.93,106.72,3.58,142.91,20.13,178.65,37.68,214.57,54.82Z"/><path class="cls-6" d="M362.24,129c12.16-4.34,24.76-7.13,37.16-10.64,15.14-4.29,30.34-8.4,45.51-12.59,16.26,0,32.52,0,48.78.06,11.42,0,17.1,5.77,17.12,17.17q0,37.08,0,74.17c0,11.5-6,17.48-17.48,17.55-6.47.05-12.94.06-19.41.09l-63.73,0c-1.08-2.24-2.17-4.46-3.23-6.71-5.31-11.23-10.54-22.5-16.89-33.2-2.82-7-7.15-13.28-10.95-19.79A292.47,292.47,0,0,0,362.24,129Z"/><path class="cls-7" d="M410.19,214.76l63.73,0q-.15,17.94-.31,35.86l-49,.14Z"/><path class="cls-7" d="M133.7,124.93A40.94,40.94,0,0,1,148,129c-8.5,13.77-17.45,27.25-25.26,41.44-.79,1.42-2,2.65-2,4.45-4.63,7.29-8.12,15.18-12,22.88-8.6,17.22-15.46,35.18-22.54,53.06l-49-.15q-.16-17.92-.31-35.86c13.78,0,27.57-.19,41.35.1,4,.09,6-1.3,7.47-4.79a453.31,453.31,0,0,1,27.44-52.93C119.76,146.27,126.83,135.66,133.7,124.93Z"/><path class="cls-1" d="M37.21,250.64l49,.14a21.68,21.68,0,0,1-.65,2.92,513.17,513.17,0,0,0-19.19,68.87c-2.06,9.73-3.8,19.51-5.19,30.28,1.55-1.21,2.34-1.77,3-2.4a480.24,480.24,0,0,1,47.61-36.81c3.93-2.7,5.77-2.1,7.84,1.89a330.43,330.43,0,0,0,21.89,35.59c3.33,4.82,6.4,9.89,10.9,14.48a16.9,16.9,0,0,0,1-2.83,401.32,401.32,0,0,1,11.13-51.41c5.91-20.74,12.83-41.13,22.07-60.67l27.7,0c.06,2.16.17,4.31.17,6.47q0,123.24,0,246.5c0,2.15.17,4.3.26,6.45l-.43,0q-78.37,0-156.73,0c-1.66,0-3.31.09-5,.13-9.62-2.17-15-8.52-15.66-18.54-.1-1.49,0-3,0-4.48q0-115.3,0-230.61C37,254.61,37.14,252.63,37.21,250.64Z"/><path class="cls-8" d="M214.85,510.09c-.09-2.15-.26-4.3-.26-6.45q0-123.25,0-246.5c0-2.16-.11-4.31-.17-6.47l.41.06H296l.41-.06c-.06,2.16-.17,4.31-.17,6.47q0,123.24,0,246.5c0,2.15-.17,4.3-.26,6.45Z"/><path class="cls-5" d="M410.19,214.76l14.4,36c5.84,17.79,11.46,35.64,15.84,53.85a476.06,476.06,0,0,1,9.25,48.24c-5.9-4.93-11.13-9.32-16.4-13.68-11-9.09-22.63-17.36-34.32-25.55-3.91-2.74-5.74-2.08-7.85,1.88a376.21,376.21,0,0,1-30,46.94c-.68.92-1.44,1.76-2.69,3.28-2-5.32-2.3-10.35-3.2-15.2-6.44-34.52-16.46-67.91-31.14-99.85l-7.22-15.81c-5.53-12.06-12.72-23.23-18.8-35q30.46-8.5,60.92-17,13.33-3.72,26.69-7.33a39.37,39.37,0,0,1,4.37-.69c6.35,10.7,11.58,22,16.89,33.2C408,210.3,409.11,212.52,410.19,214.76Z"/><path class="cls-7" d="M298.09,199.88c6.08,11.77,13.27,22.94,18.8,35l7.22,15.81-27.71,0-.41.06c.54-12,.42-24,.07-35.95q.12-8.06.23-16.1Z"/><path class="cls-5" d="M186.71,250.69c-9.24,19.54-16.16,39.93-22.07,60.67a401.32,401.32,0,0,0-11.13,51.41,16.9,16.9,0,0,1-1,2.83c-4.5-4.59-7.57-9.66-10.9-14.48a330.43,330.43,0,0,1-21.89-35.59c-2.07-4-3.91-4.59-7.84-1.89a480.24,480.24,0,0,0-47.61,36.81c-.71.63-1.5,1.19-3,2.4,1.39-10.77,3.13-20.55,5.19-30.28A513.17,513.17,0,0,1,85.58,253.7a21.68,21.68,0,0,0,.65-2.92c7.08-17.87,13.94-35.83,22.54-53.05,3.85-7.7,7.34-15.59,12-22.88,7.77.73,15.07,3.5,22.53,5.47,22.61,6,45.1,12.48,67.64,18.78a13.78,13.78,0,0,1,1.81.79q-4,7.44-8,14.86A285.66,285.66,0,0,0,186.71,250.69Z"/><path class="cls-9" d="M296.29,198.68q-.12,8.06-.23,16.1l-81.27-.06-.4.07q.08-8.06.13-16.11c7-13,15.68-24.79,24.71-36.39,1.13-1.46,2.5-1.39,4-1.39q12.21,0,24.41,0c1.48,0,2.84-.07,4,1.39C280.61,173.89,289.3,185.7,296.29,198.68Z"/><path class="cls-10" d="M214.52,198.68q-.06,8.06-.13,16.11l-9.69,0q4-7.42,8-14.86Z"/><path class="cls-7" d="M204.7,214.75l9.69,0,.4-.07c-.41,12-.49,24,0,36l-.41-.06-27.7,0A285.66,285.66,0,0,1,204.7,214.75Z"/><path class="cls-4" d="M214.82,250.73c-.52-12-.44-24,0-36l81.27.06c.35,12,.47,24-.07,35.95Z"/></g></g></svg>