<svg xmlns="http://www.w3.org/2000/svg" viewBox="0 0 310.78 313.9"><defs><style>.cls-1{fill:#616d77;}.cls-2{fill:#dce6ea;}.cls-3{fill:#919ca6;}.cls-4{fill:#bac4cd;}.cls-5{fill:#616e77;}.cls-6{fill:#8668aa;}.cls-7{fill:#b195c5;}.cls-8{fill:#8768ab;}.cls-9{fill:#7a858f;}.cls-10{fill:#754e9b;}.cls-11{fill:#b396c6;}</style></defs><g id="Capa_2" data-name="Capa 2"><g id="Capa_1-2" data-name="Capa 1"><path class="cls-1" d="M288.56,294.31c-3.87,9.27-10.27,15.85-20,18.9-.54.17-1.27-.09-1.54.69H13.79c-2.4-1.67-3-4-3-6.84.11-11.12,0-22.24.05-33.36,0-4.93,1.48-6.44,6.33-6.44,3.57,0,7.14.05,10.71.08v9c-1.93,0-3.87.17-5.8.1-1.59-.06-2.15.54-2.14,2.13q.09,11.92,0,23.86c0,1.75.63,2.28,2.32,2.26q11.94-.09,23.86,0c1.62,0,2.15-.59,2.11-2.15,0-1.93.1-3.86.16-5.79h8.83a49.81,49.81,0,0,1,.07,5.18c-.16,2.11.56,2.83,2.73,2.78,6-.13,12,0,18-.07,2.4,0,5.42,1.07,7-.53s.29-4.45.53-6.75c0-.2.07-.4.1-.61h8.92a49.81,49.81,0,0,1,.07,5.18c-.17,2.09.51,2.84,2.7,2.78,5.9-.14,11.8,0,17.7-.07,2.5,0,5.66,1.1,7.34-.53s.25-4.65.57-7.06l0-.3h9c0,1.73.21,3.47.07,5.18-.17,2.09.5,2.84,2.69,2.78,5.9-.14,11.8,0,17.7-.07,2.5,0,5.66,1.1,7.34-.53s.25-4.65.57-7.06l0-.3h9c0,1.73.21,3.47.07,5.18-.17,2.09.5,2.84,2.69,2.78,5.9-.14,11.8,0,17.7-.07,2.51,0,5.66,1.1,7.35-.53s.24-4.65.56-7.06l0-.3h9a49.81,49.81,0,0,1,.07,5.18c-.17,2.09.5,2.84,2.69,2.78,5.9-.14,11.8,0,17.7-.07,2.51,0,5.66,1.1,7.35-.53s.24-4.65.56-7.06c0-.1,0-.2,0-.3h8.92c.05,1.94.18,3.88.12,5.81-.06,1.57.5,2.15,2.11,2.13,6.22-.07,12.45.14,18.66-.08,6.85-.24,7.27-.82,7.55-7.55,0-.11,0-.21,0-.31,3-.17,6,.22,8.88-.65.12.88.24,1.75.38,2.74C284.59,297.91,286.22,295.58,288.56,294.31Z"/><path class="cls-2" d="M43.21,39.58c.52-2.15,2.6-2.76,4-4A138.45,138.45,0,0,1,96.63,7.06,144.35,144.35,0,0,1,129.71.49a138.41,138.41,0,0,1,57.34,7.36,135.29,135.29,0,0,1,43.83,24.94,139.14,139.14,0,0,1,49.75,94.89,146,146,0,0,1,.35,22.61,127.27,127.27,0,0,1-6,32,9.18,9.18,0,0,0-.67,3.58c-2,2.91-2.78,6.27-3.88,9.52-.63,1.26-1.33,2.49-1.9,3.78-3.39,7.72-8,14.77-12.29,22a37.79,37.79,0,0,0-5.58,7.65c-.79.09-1.07.75-1.55,1.26-2.22,2.38-3.82,5.34-6.57,7.25l-.7.78-1.64,1.69a3.63,3.63,0,0,0-2.76,1c-16.64,12.15-34.82,20.88-55.12,25-1,.21-2.59-.08-3.12,1.46q-26,.42-51.92,0c-2.53-1.88-5.65-1.76-8.51-2.49A140.17,140.17,0,0,1,74.93,245c-3.16-2.13-6.72-3.9-9-7.18a3.24,3.24,0,0,1,2.25.74,82.07,82.07,0,0,0,20.7,11.62c8.83,3.34,17.84,5.63,27.34,3,4.52-1.27,10.5-5.22,10.36-10.25,1.06-.71,1.15-1.87,1.33-3a74.35,74.35,0,0,0-8.58-50.48,26,26,0,0,0-17.57-13.24c-18-3.94-35.23-1.38-51.58,7.1-1,.53-2.28,1-2.56,2.43-4.15,1.41-5.57,5.08-6.11,8.7-1,6.85,1,13.23,4.24,19.31,3.77,7.14,9.09,13,14.83,18.48.93.88,2.2,1.58,2.28,3.11a2,2,0,0,1-1.63-.71c-3.38-3.8-7.42-6.9-10.91-10.64a142.43,142.43,0,0,1-25.7-38.77A140.55,140.55,0,0,1,40.38,44.15C41.44,42.72,43.09,41.6,43.21,39.58Zm48.41,10a8.33,8.33,0,0,0,1.23,3.74c8.21,16,20.34,27.91,36.75,35.31a25.48,25.48,0,0,0,12.81,2.24c8.68-.76,15.92-4.79,22.65-9.92,9.94-7.57,18.29-16.54,23.59-28,.55-1.18,1.75-2.44.42-3.89,1.46-.2,1.22-1.32,1.33-2.32.8-7.51-3.13-12.64-8.7-16.75-12.35-9.13-26.84-11.12-41.56-11.46a72,72,0,0,0-16.6,1.65c-10.81,2.31-21.09,5.69-28.62,14.33C91.19,38.81,89.17,43.82,91.62,49.62ZM212.47,66.1C210.31,66,209.25,67.74,208,69c-10.76,10.88-17.38,24-20.62,38.88-2.7,12.36.53,22.93,10.07,31.52A75,75,0,0,0,210,148.68c10.05,5.81,20.54,10.39,32.43,10.68a13.71,13.71,0,0,0,9.92-3.92c6.26-5.72,7.89-13.4,8.51-21.25a79.14,79.14,0,0,0-5.41-34.95c-4.58-11.89-10.61-22.87-20.91-30.93-4.83-3.78-10.15-6-16.41-5.18C215.85,63.42,213.71,63.92,212.47,66.1ZM39.07,159.36c20-1.69,36.47-10.31,49.59-25.34a24.38,24.38,0,0,0,6.08-18.12c-1.27-19.22-9.55-35.15-23.12-48.53-.71-.7-1.47-1.47-2.66-1.22,0-.86-.65-1.19-1.29-1.54-4.74-2.56-9.52-2.26-14.29-.13-9.78,4.37-16,12.35-21.11,21.31-5.94,10.5-10.05,21.7-11.27,33.84-.89,9-1.05,17.85,2,26.5C25.84,154.31,32,159.36,39.07,159.36ZM154.85,243c.12,4.55,3.35,6.83,6.76,8.66,7.06,3.8,14.56,3.17,22,1.25,21.56-5.59,38.34-18,50.49-36.51,3.87-5.9,6.77-12.43,5.95-19.84-.49-4.39-1.41-8.7-6.1-10.79-.78-2.05-2.8-2.61-4.46-3.43a77.47,77.47,0,0,0-43.68-7.46c-10.64,1.18-19.27,5.9-24.5,15.6a76.38,76.38,0,0,0-8.53,46.42C153,239,152.84,241.4,154.85,243ZM150,140.77a9.26,9.26,0,1,0-18.52-.35,9.26,9.26,0,1,0,18.52.35Z"/><path class="cls-3" d="M127.32,267.11q26,.43,51.92,0l23.49.13q38.45,0,76.87,0a12.83,12.83,0,0,0,6.45-1.18c3,.24,5.78-.73,8.49-1.9,4-1.16,6.76-4.24,10-6.49-.63,3.25-2.28,6.08-3.75,9a18.51,18.51,0,0,0-1.85,1.55,24.93,24.93,0,0,1-14.36,7.46c-2.65.47-3,1.42-3,3.68.08,5.59-.07,11.19-.13,16.79-2.91.87-5.91.48-8.88.65l-.22-.09c0-6,0-12,.14-18,0-1.81-.75-2.22-2.38-2.21-7.84,0-15.68.08-23.51,0-1.95,0-2.41.74-2.38,2.52.1,5.9.08,11.8.11,17.7l-.24.11h-8.92l-.21-.09c0-6,0-12,.13-18,0-1.81-.73-2.22-2.37-2.21q-11.74.09-23.51,0c-1.64,0-2.41.39-2.37,2.21.11,6,.1,12,.13,18l-.21.09h-9l-.21-.09c0-6,0-12,.13-18,0-1.82-.73-2.22-2.37-2.21q-11.76.09-23.52,0c-1.63,0-2.4.39-2.37,2.21.12,6,.11,12,.14,18l-.21.09h-9l-.21-.09c0-6,0-12,.13-18,0-1.82-.73-2.22-2.37-2.21q-11.76.09-23.52,0c-1.63,0-2.4.39-2.37,2.21.12,6,.1,12,.14,18l-.21.09h-9l-.21-.09c0-6,0-12,.13-18,0-1.82-.73-2.22-2.37-2.21q-11.76.09-23.52,0c-1.63,0-2.4.39-2.37,2.21.12,6,.1,12,.14,18l-.22.09H85.7l-.24-.09c0-5.91,0-11.81.12-17.71,0-1.78-.43-2.55-2.38-2.52-7.84.09-15.68.06-23.52,0-1.63,0-2.41.4-2.37,2.21.11,6,.1,12,.13,18l-.22.09H48.39l-.28-.1c0-5.91,0-11.83.09-17.75,0-1.85-.56-2.51-2.45-2.47-5.91.12-11.83.09-17.75.11l-.12-.2v-9l50.81-.11c7.44,0,14.89.08,22.33.06C109.79,267.26,118.56,267.17,127.32,267.11Z"/><path class="cls-4" d="M127.32,267.11c-8.76.06-17.53.15-26.3.18-7.44,0-14.89,0-22.33-.06-5.15-3.08-10.46-5.92-15.43-9.28-33-22.28-53.21-53.07-61-92A133.43,133.43,0,0,1,.45,130,137.48,137.48,0,0,1,21.36,66.14,169.85,169.85,0,0,1,40.59,41.65a7.16,7.16,0,0,1,2.62-2.07c-.12,2-1.77,3.14-2.83,4.57A140.27,140.27,0,0,0,24.62,185.28a142.43,142.43,0,0,0,25.7,38.77c3.49,3.74,7.53,6.84,10.91,10.64a2,2,0,0,0,1.63.71h0c.72,1.2,1.49,2.33,3.07,2.45h0c2.28,3.28,5.84,5,9,7.18a140.17,140.17,0,0,0,43.88,19.58C121.67,265.35,124.79,265.23,127.32,267.11Z"/><path class="cls-5" d="M294.54,264.17c-2.71,1.17-5.46,2.14-8.49,1.9-1.27-1.59-2.42-3.3-3.83-4.76Q266.5,245,250.7,228.74a37.79,37.79,0,0,1,5.58-7.65c5.44,5.68,10.9,11.34,16.31,17,.93,1,1.56.91,2.5,0,5.85-5.71,11.74-11.37,17.62-17,.75-.73,1.48-1.27.34-2.43-7.56-7.73-15.06-15.54-22.58-23.32,1.1-3.25,1.93-6.61,3.88-9.52,9,9.33,17.73,18.93,27.08,27.9,9,8.61,10.9,18.7,8.26,30.23-.48,2.09-1.16,4.12-1.75,6.17a2.67,2.67,0,0,1-.45-2c.22-7.17-2.32-13.49-5.85-19.56-1-1.66-1.63-1.92-3.11-.46-5.35,5.31-10.76,10.56-16.3,15.67-1.84,1.7-1.62,2.7.07,4.29C287.27,252.71,292,257.66,294.54,264.17Z"/><path class="cls-6" d="M294.54,264.17c-2.59-6.51-7.27-11.46-12.24-16.14-1.69-1.59-1.91-2.59-.07-4.29,5.54-5.11,10.95-10.36,16.3-15.67,1.48-1.46,2.14-1.2,3.11.46,3.53,6.07,6.07,12.39,5.85,19.56a2.67,2.67,0,0,0,.45,2A32.58,32.58,0,0,1,305,256.9l-.47.72,0,.06C301.3,259.93,298.54,263,294.54,264.17Z"/><path class="cls-7" d="M281.52,296.14c.06-5.6.21-11.2.13-16.79,0-2.26.33-3.21,3-3.68A24.93,24.93,0,0,0,299,268.21a18.51,18.51,0,0,1,1.85-1.55c-3.58,9.09-7,18.27-11.39,27-.44,0-.85.15-1,.67l.07,0c-2.34,1.27-4,3.6-6.66,4.57C281.76,297.89,281.64,297,281.52,296.14Z"/><path class="cls-3" d="M304.55,257.62l.47-.72Z"/><path class="cls-1" d="M288.49,294.33c.11-.52.52-.62,1-.67C289.19,294,289.11,294.53,288.49,294.33Z"/><path class="cls-6" d="M48.39,296.79c-.06,1.93-.21,3.86-.16,5.79,0,1.56-.49,2.16-2.11,2.15q-11.92-.09-23.86,0c-1.69,0-2.34-.51-2.32-2.26q.09-11.93,0-23.86c0-1.59.55-2.19,2.14-2.13,1.93.07,3.87-.06,5.8-.1l.12.2c0,5.38,0,10.76-.1,16.14,0,2.81,1.25,4.07,4.07,4,5.38-.07,10.76,0,16.14-.06Z"/><path class="cls-8" d="M85.7,296.79c0,.21-.08.41-.1.61-.24,2.3,1,5.28-.53,6.75s-4.65.49-7,.53c-6,.09-12-.06-18,.07-2.17.05-2.89-.67-2.73-2.78a49.81,49.81,0,0,0-.07-5.18l.22-.09h28Z"/><path class="cls-8" d="M123,296.79l0,.3c-.32,2.41,1,5.54-.57,7.06s-4.84.49-7.34.53c-5.9.09-11.8-.07-17.7.07-2.19.06-2.87-.69-2.7-2.78a49.81,49.81,0,0,0-.07-5.18l.22-.09h28Z"/><path class="cls-8" d="M160.44,296.79l0,.3c-.32,2.41,1,5.54-.57,7.06s-4.84.49-7.34.53c-5.9.09-11.8-.07-17.7.07-2.19.06-2.86-.69-2.69-2.78.14-1.71,0-3.45-.07-5.18l.21-.09h28Z"/><path class="cls-8" d="M197.84,296.79l0,.3c-.32,2.41,1,5.54-.56,7.06s-4.84.49-7.35.53c-5.9.09-11.8-.07-17.7.07-2.19.06-2.86-.69-2.69-2.78.14-1.71,0-3.45-.07-5.18l.21-.09h28Z"/><path class="cls-8" d="M235.24,296.79c0,.1,0,.2,0,.3-.32,2.41,1,5.54-.56,7.06s-4.84.49-7.35.53c-5.9.09-11.8-.07-17.7.07-2.19.06-2.86-.69-2.69-2.78a49.81,49.81,0,0,0-.07-5.18l.21-.09h28Z"/><path class="cls-6" d="M272.64,296.79c0,.1,0,.2,0,.31-.28,6.73-.7,7.31-7.55,7.55-6.21.22-12.44,0-18.66.08-1.61,0-2.17-.56-2.11-2.13.06-1.93-.07-3.87-.12-5.81l.24-.09h28Z"/><path class="cls-9" d="M154.85,243c-2-1.58-1.85-4-2.11-6.1a76.38,76.38,0,0,1,8.53-46.42c5.23-9.7,13.86-14.42,24.5-15.6a77.47,77.47,0,0,1,43.68,7.46c1.66.82,3.68,1.38,4.46,3.43a132.49,132.49,0,0,1-8.46,13.78Q199.4,236.34,154.85,243Z"/><path class="cls-5" d="M47.62,185.8c.28-1.41,1.53-1.9,2.56-2.43,16.35-8.48,33.57-11,51.58-7.1a26,26,0,0,1,17.57,13.24A74.35,74.35,0,0,1,127.91,240c-.18,1.09-.27,2.25-1.33,3A103,103,0,0,1,69.49,215.4,110.14,110.14,0,0,1,47.62,185.8ZM87.38,187a49.89,49.89,0,0,0-13.13,1.19c-3.07.61-3.61,2.19-1.59,4.64a103.56,103.56,0,0,0,38.4,29.6c1.29.57,2.55,2,4.19.74,1.48-1.16,1-2.84.86-4.28a72.09,72.09,0,0,0-4.39-17.41c-2.66-6.62-6.68-11.91-14.12-13.65A36,36,0,0,0,87.38,187Z"/><path class="cls-5" d="M69,66.15c1.19-.25,2,.52,2.66,1.22C85.19,80.75,93.47,96.68,94.74,115.9A24.38,24.38,0,0,1,88.66,134c-13.12,15-29.6,23.65-49.59,25.34a103.48,103.48,0,0,1,5.45-56.55A105.46,105.46,0,0,1,69,66.15Zm13.5,47.5A65.47,65.47,0,0,0,64.82,78.23c-1.55-1.65-2.06,0-2.6.93A99.77,99.77,0,0,0,56,93.1a104,104,0,0,0-5.44,47.45c.29,2.66,1.5,3.46,4.2,2.39a66.16,66.16,0,0,0,20.34-12.17C79.6,126.76,82.54,121.88,82.46,113.65Z"/><path class="cls-5" d="M243.64,146.56c.36,4.34-.75,8.54-1.26,12.8-11.89-.29-22.38-4.87-32.43-10.68a75,75,0,0,1-12.48-9.29c-9.54-8.59-12.77-19.16-10.07-31.52C190.64,93,197.26,79.87,208,69c1.23-1.25,2.29-3,4.45-2.89,2.65,3.12,6,5.66,8,9.28a8.35,8.35,0,0,0-3.27,2.19c-9,8.81-14.39,19.62-17.55,31.64-2.34,8.87.18,16.31,7.2,22.13a56.52,56.52,0,0,0,8.45,6C224.14,142.26,233,147.13,243.64,146.56Z"/><path class="cls-5" d="M178.81,44.64c3.62,1,6.79,3.08,10.26,4.44,1.33,1.45.13,2.71-.42,3.89-5.3,11.48-13.65,20.45-23.59,28-6.73,5.13-14,9.16-22.65,9.92a25.48,25.48,0,0,1-12.81-2.24c-16.41-7.4-28.54-19.34-36.75-35.31a8.33,8.33,0,0,1-1.23-3.74,70.25,70.25,0,0,1,11-5,58,58,0,0,0,2.65,5.77,69.78,69.78,0,0,0,23.4,24.11c5.84,3.63,12.06,5.55,18.88,2.62C154.89,74,160.94,69,166.37,63.27,171.56,57.77,176,51.74,178.81,44.64Z"/><path class="cls-6" d="M270.47,195.34c7.52,7.78,15,15.59,22.58,23.32,1.14,1.16.41,1.7-.34,2.43-5.88,5.67-11.77,11.33-17.62,17-.94.91-1.57,1-2.5,0-5.41-5.7-10.87-11.36-16.31-17,4.31-7.2,8.9-14.25,12.29-22C269.14,197.83,269.84,196.6,270.47,195.34Z"/><path class="cls-10" d="M150,140.77a9.26,9.26,0,1,1-18.52-.35,9.26,9.26,0,1,1,18.52.35Z"/><path class="cls-4" d="M240.24,239.72a130.57,130.57,0,0,1-31.51,23.93,36.77,36.77,0,0,0-6,3.59l-23.49-.13c.53-1.54,2.08-1.25,3.12-1.46,20.3-4.08,38.48-12.81,55.12-25A3.63,3.63,0,0,1,240.24,239.72Z"/><path class="cls-4" d="M242.58,237.25l-.7.78Z"/><path class="cls-11" d="M85.46,296.7h-28c0-6,0-12-.13-18,0-1.81.74-2.22,2.37-2.21,7.84,0,15.68.08,23.52,0,2,0,2.41.74,2.38,2.52C85.47,284.89,85.49,290.79,85.46,296.7Z"/><path class="cls-11" d="M122.83,296.7h-28c0-6,0-12-.14-18,0-1.82.74-2.22,2.37-2.21q11.76.09,23.52,0c1.64,0,2.41.39,2.37,2.21C122.85,284.69,122.86,290.7,122.83,296.7Z"/><path class="cls-11" d="M160.23,296.7h-28c0-6,0-12-.14-18,0-1.82.74-2.22,2.37-2.21q11.76.09,23.52,0c1.64,0,2.41.39,2.37,2.21C160.25,284.69,160.26,290.7,160.23,296.7Z"/><path class="cls-11" d="M197.63,296.7h-28c0-6,0-12-.14-18,0-1.82.74-2.22,2.37-2.21q11.76.09,23.52,0c1.64,0,2.41.39,2.37,2.21C197.65,284.69,197.66,290.7,197.63,296.7Z"/><path class="cls-11" d="M235,296.7H207c0-6,0-12-.13-18,0-1.82.73-2.22,2.37-2.21q11.76.09,23.51,0c1.64,0,2.41.4,2.37,2.21C235.05,284.69,235.06,290.7,235,296.7Z"/><path class="cls-11" d="M272.42,296.7h-28c0-5.91,0-11.81-.11-17.71,0-1.78.43-2.55,2.38-2.52,7.83.09,15.67.06,23.51,0,1.63,0,2.41.4,2.38,2.21C272.45,284.69,272.46,290.69,272.42,296.7Z"/><path class="cls-11" d="M48.11,296.69c-5.38,0-10.76,0-16.14.06-2.82,0-4.11-1.22-4.07-4,.07-5.38.07-10.76.1-16.14,5.92,0,11.84,0,17.75-.11,1.89,0,2.48.62,2.45,2.47C48.1,284.86,48.13,290.78,48.11,296.69Z"/><path class="cls-2" d="M62.86,235.4a2.69,2.69,0,0,1,3.07,2.45C64.35,237.73,63.58,236.6,62.86,235.4Z"/><path class="cls-3" d="M87.38,187a36,36,0,0,1,10.22.83c7.44,1.74,11.46,7,14.12,13.65a72.09,72.09,0,0,1,4.39,17.41c.19,1.44.62,3.12-.86,4.28-1.64,1.29-2.9-.17-4.19-.74a103.56,103.56,0,0,1-38.4-29.6c-2-2.45-1.48-4,1.59-4.64A49.89,49.89,0,0,1,87.38,187Z"/><path class="cls-3" d="M82.46,113.65c.08,8.23-2.86,13.11-7.34,17.12a66.16,66.16,0,0,1-20.34,12.17c-2.7,1.07-3.91.27-4.2-2.39A104,104,0,0,1,56,93.1a99.77,99.77,0,0,1,6.2-13.94c.54-1,1.05-2.58,2.6-.93A65.47,65.47,0,0,1,82.46,113.65Z"/><path class="cls-3" d="M243.64,146.56c-10.62.57-19.5-4.3-28.31-9.22a56.52,56.52,0,0,1-8.45-6c-7-5.82-9.54-13.26-7.2-22.13,3.16-12,8.56-22.83,17.55-31.64a8.35,8.35,0,0,1,3.27-2.19c7,7.86,12,16.93,15.95,26.6A99,99,0,0,1,243.64,146.56Z"/><path class="cls-3" d="M178.81,44.64c-2.81,7.1-7.25,13.13-12.44,18.63C160.94,69,154.89,74,147.55,77.13c-6.82,2.93-13,1-18.88-2.62a69.78,69.78,0,0,1-23.4-24.11,58,58,0,0,1-2.65-5.77Q140.72,29.86,178.81,44.64Z"/></g></g></svg>