<svg xmlns="http://www.w3.org/2000/svg" viewBox="0 0 196.71 251.47"><defs><style>.cls-1{fill:#ec6263;}.cls-2{fill:#efecee;}.cls-3{fill:#ec6363;}.cls-4{fill:#fddeb0;}.cls-5{fill:#ef7d7d;}.cls-6{fill:#faf8f9;}.cls-7{fill:#fed89c;}.cls-8{fill:#faf7f8;}.cls-9{fill:#f1edee;}.cls-10{fill:#ef7f7f;}</style></defs><g id="Capa_2" data-name="Capa 2"><g id="Capa_1-2" data-name="Capa 1"><path class="cls-1" d="M38,251.47c-3.7-1.84-4.34-5.28-4.9-8.91-2.51-16.51-5.14-33-7.71-49.5-2.2-14.16-4.34-28.34-6.56-42.5-2.36-15.13-4.84-30.24-7.14-45.38-.62-4.1-1.59-8.17-1.72-12.34l32.93,0,1.53,16.6c-.42.7-.85,1.39-1.26,2.09-2.21,3.73-3.7,7.7-3.1,12.09.81,5.94,1.9,11.84,2.82,17.77,1.85,11.94,3.65,23.89,5.51,35.83,1.59,10.18,3.17,20.35,4.92,30.5.22,1.31-.28,3,1.2,4l.28,3.72.18.66.36,3.44c.56,5.72,1.23,11.43,1.64,17.16.35,4.92,1.33,9.8,1.15,14.76Z"/><path class="cls-2" d="M58.11,251.47c.18-5-.8-9.84-1.15-14.76-.41-5.73-1.08-11.44-1.64-17.16a1.52,1.52,0,0,1,1.27,1c5.79,11.5,15,17.37,28,17.19.27,1-.12,2.1.48,3l.05,10.71Z"/><path class="cls-2" d="M137.66,251.47H111.15l.06-11.68c.15-.69.31-1.38.46-2.07l27.37,0,.19-.05C138.63,242.29,138.57,246.93,137.66,251.47Z"/><path class="cls-1" d="M111.21,239.79l-.06,11.68h-26c0-3.57,0-7.14-.05-10.71-.31-2.41.63-3.17,3.14-3.1,6.87.2,13.74.12,20.61,0C110.43,237.68,111.34,238,111.21,239.79Z"/><path class="cls-3" d="M137.66,251.47c.91-4.54,1-9.18,1.57-13.77l24.41,0a54.47,54.47,0,0,1-1.26,8.91c-.42,2.4-2.33,3.56-4.09,4.83Z"/><path class="cls-4" d="M115.09,5.91c.73.65,1.48,1.27,2.18,1.94,2.2,2.12,3.78,5.05,7.62,4.83a4,4,0,0,1,3.47,2.06c1.19,2.43,2.9,2.43,5.18,2,10.68-2,19.86,6,20.81,16a2.11,2.11,0,0,0,0,.25c.28,1.51.24,3.21.94,4.49,1,1.73,2.8.44,4.25.54A12.17,12.17,0,0,1,171.1,49.33c.15,1.54,0,3.25.64,4.56.76,1.54,2.67.53,4,.81,5.09,1,10.56,5.85,10.08,12.62-.2,2.77-.05,5.56-.06,8.34-.93.8-2,.43-3.07.43q-74.25,0-148.5,0c-1.06,0-2.12-.1-3.18-.16.15-2.91-.38-5.93,1.31-8.58C35,63.3,38.55,60.92,43.48,61c1.33,0,1.86-.38,1.91-1.8a27.11,27.11,0,0,1,.71-5.54,12.23,12.23,0,0,1,13.73-9c1.5.18,2-.68,2.21-2,.31-2.08.56-4.18,1-6.24C65,27.58,74.4,21.44,82.71,23c1.72.32,3.81,1.41,5.2-1a6.53,6.53,0,0,1,6.15-3.26,3,3,0,0,0,2.73-1.24A26.31,26.31,0,0,1,113.55,6.92,1.84,1.84,0,0,0,115.09,5.91Zm16.68,45.16a15.67,15.67,0,0,0-11.39,4.79c-2.19,2.28-2.45,4.25-.72,6s4,1.46,6.07-.52a8.14,8.14,0,0,1,4.2-2.33c3.45-.65,6.17.63,8.54,3,1.61,1.62,3.36,1.17,4.81-.12s2-3,.69-4.6C140.87,53.39,136.94,51,131.77,51.07ZM97.89,42.75A14.42,14.42,0,0,0,109.8,38c1.88-2,1.86-3.83.08-5.54s-3.37-1.8-5.49.16c-4.13,3.82-8.43,3.82-12.54,0-2.16-2-3.46-2.06-5.46-.15-1.78,1.7-1.83,3.6.07,5.52C89.55,41.05,93.15,43.1,97.89,42.75ZM78.28,58.9c-.69-2.49-2.68-4.17-4.92-5.54a15.62,15.62,0,0,0-20,3.18c-1.44,1.71-1.56,3.69-.07,5.21a3.54,3.54,0,0,0,5.19,0A9.49,9.49,0,0,1,63,59a8.28,8.28,0,0,1,8.2,2.51,3.92,3.92,0,0,0,4.67,1.09A3.88,3.88,0,0,0,78.28,58.9Z"/><path class="cls-5" d="M163.64,237.73l-24.41,0-.19.05q6.54-67.24,13.09-134.5l.32-.08,32.27,0c-1.19,7.82-2.35,15.64-3.57,23.45q-3.81,24.66-7.68,49.31-3.53,22.59-7.11,45.18C165.48,226.64,164.55,232.18,163.64,237.73Z"/><path class="cls-6" d="M31.06,75.94c1.06.06,2.12.16,3.18.16q74.25,0,148.5,0c1,0,2.14.37,3.07-.43a24.11,24.11,0,0,1,6.51.55c2.66.43,3.78,2.53,4.12,4.85a18.19,18.19,0,0,1-.15,7,5.76,5.76,0,0,1-5.84,4.77c-1.38,0-2.77,0-4.15,0l-32.91,0c-.63-.77-1.51-.5-2.29-.5q-16.38,0-32.78,0c-.78,0-1.66-.27-2.27.52H80.22c-.61-.79-1.49-.52-2.27-.52q-16.4,0-32.79,0c-.78,0-1.66-.27-2.28.51L10,92.84c-1.22,0-2.45,0-3.67,0A6,6,0,0,1,.51,88.19a15.51,15.51,0,0,1-.2-7C1.19,76.7,3,76.34,8,75.68a20,20,0,0,1,2.45,0c.29.14.57.39.86.39C17.9,76,24.48,76,31.06,75.94Z"/><path class="cls-7" d="M31.06,75.94c-6.58,0-13.16.09-19.75.11-.29,0-.57-.25-.86-.39A31.16,31.16,0,0,1,10.55,64a12.21,12.21,0,0,1,11.7-9.38c2.18,0,2.52-.82,2.53-2.72,0-7.68,3.76-12.33,10.89-13.79A6,6,0,0,1,38.33,38c2.49.67,2.87-.69,3.13-2.67A28.67,28.67,0,0,1,43.39,27C47.05,19,55.07,15,64,16.87c1.48.31,2.22.07,3-1.14a7.18,7.18,0,0,1,6.15-3.43,3.76,3.76,0,0,0,3.09-1.59C82.37,3.31,90.16-.47,99.84.05a25.48,25.48,0,0,1,15.25,5.86,1.84,1.84,0,0,1-1.54,1A26.31,26.31,0,0,0,96.79,17.47a3,3,0,0,1-2.73,1.24A6.53,6.53,0,0,0,87.91,22c-1.39,2.42-3.48,1.33-5.2,1C74.4,21.44,65,27.58,63.05,36.36c-.45,2.06-.7,4.16-1,6.24-.19,1.3-.71,2.16-2.21,2a12.23,12.23,0,0,0-13.73,9,27.11,27.11,0,0,0-.71,5.54c0,1.42-.58,1.81-1.91,1.8-4.93,0-8.53,2.35-11.11,6.41C30.68,70,31.21,73,31.06,75.94Z"/><path class="cls-3" d="M153.39,92.87l32.91,0a60.61,60.61,0,0,1-1.58,10.3l-32.27,0C152.76,99.74,153.07,96.3,153.39,92.87Z"/><path class="cls-8" d="M84.59,237.72c-13,.18-22.21-5.69-28-17.19a1.52,1.52,0,0,0-1.27-1L55,216.11l-.18-.66c-.1-1.24-.19-2.48-.28-3.72-.49-5.68-.94-11.37-1.49-17Q51.41,178,49.73,161.3c-.93-9.33-1.89-18.67-2.79-28-.75-7.87-1.43-15.76-2.14-23.64a16,16,0,0,1,12.54-6.44c7.65-.18,15.3,0,22.94,0-.11,3,.16,6,.34,9,.53,8.56.72,17.15,1,25.73.42,14,.68,28,1.24,41.94.22,5.48.29,11,.47,16.43C83.76,210.1,84.16,223.91,84.59,237.72Z"/><path class="cls-9" d="M80.28,103.19c-7.64,0-15.29-.16-22.94,0a16,16,0,0,0-12.54,6.44l-.39-.17-1.53-16.6c.62-.78,1.5-.51,2.28-.51q16.4,0,32.79,0c.78,0,1.66-.27,2.27.52a73.27,73.27,0,0,0,.45,10.26A2.58,2.58,0,0,0,80.28,103.19Z"/><path class="cls-10" d="M44.41,109.48l.39.17c.71,7.88,1.39,15.77,2.14,23.64.9,9.34,1.86,18.68,2.79,28Q51.38,178,53,194.68c.55,5.68,1,11.37,1.49,17-1.48-1-1-2.66-1.2-4-1.75-10.15-3.33-20.32-4.92-30.5-1.86-11.94-3.66-23.89-5.51-35.83-.92-5.93-2-11.83-2.82-17.77-.6-4.39.89-8.36,3.1-12.09C43.56,110.87,44,110.18,44.41,109.48Z"/><path class="cls-10" d="M54.78,215.45l.18.66Z"/><path class="cls-5" d="M80.28,103.19a2.58,2.58,0,0,1,.39,0h34.91l.38,0c-.1.9-.26,1.79-.29,2.68q-.51,15.69-1,31.37-.61,21-1.18,41.92c-.16,5.55-.36,11.11-.54,16.66q-.65,21-1.28,41.9c-.15.69-.31,1.38-.46,2.07.13-1.76-.78-2.11-2.39-2.09-6.87.08-13.74.16-20.61,0-2.51-.07-3.45.69-3.14,3.1-.6-.94-.21-2-.48-3-.43-13.81-.83-27.62-1.29-41.43-.18-5.47-.25-10.95-.47-16.43-.56-14-.82-28-1.24-41.94-.25-8.58-.44-17.17-1-25.73C80.44,109.18,80.17,106.2,80.28,103.19Z"/><path class="cls-8" d="M111.67,237.72q.64-20.94,1.28-41.9c.18-5.55.38-11.11.54-16.66q.6-21,1.18-41.92.47-15.69,1-31.37c0-.89.19-1.78.29-2.68l36.17.06Q145.59,170.5,139,237.75Z"/><path class="cls-7" d="M131.77,51.07c5.17-.08,9.1,2.32,12.2,6.18,1.28,1.6.69,3.37-.69,4.6s-3.2,1.74-4.81.12c-2.37-2.38-5.09-3.66-8.54-3a8.14,8.14,0,0,0-4.2,2.33c-2,2-4.41,2.14-6.07.52s-1.47-3.67.72-6A15.67,15.67,0,0,1,131.77,51.07Z"/><path class="cls-7" d="M97.89,42.75c-4.74.35-8.34-1.7-11.43-4.83-1.9-1.92-1.85-3.82-.07-5.52,2-1.91,3.3-1.87,5.46.15,4.11,3.84,8.41,3.84,12.54,0,2.12-2,3.58-2,5.49-.16s1.8,3.58-.08,5.54A14.42,14.42,0,0,1,97.89,42.75Z"/><path class="cls-7" d="M78.28,58.9a3.88,3.88,0,0,1-2.4,3.68,3.92,3.92,0,0,1-4.67-1.09A8.28,8.28,0,0,0,63,59a9.49,9.49,0,0,0-4.51,2.79,3.54,3.54,0,0,1-5.19,0c-1.49-1.52-1.37-3.5.07-5.21a15.62,15.62,0,0,1,20-3.18C75.6,54.73,77.59,56.41,78.28,58.9Z"/><path class="cls-2" d="M152.13,103.25,116,103.19c-.12,0-.25,0-.38,0a82,82,0,0,0,.47-10.27c.61-.79,1.49-.52,2.27-.52q16.4,0,32.78,0c.78,0,1.66-.27,2.29.5-.32,3.43-.63,6.87-.94,10.3Z"/><path class="cls-3" d="M116.05,92.89a82,82,0,0,1-.47,10.27H80.67a73.27,73.27,0,0,1-.45-10.26Z"/></g></g></svg>