<svg xmlns="http://www.w3.org/2000/svg" viewBox="0 0 1818.38 265.97"><defs><style>.cls-1{fill:#080808;}.cls-2{fill:#090909;}.cls-3{fill:#f6414c;}.cls-4{fill:#f6424c;}.cls-5{fill:#fa454c;}.cls-6{fill:#ece7e5;}.cls-7{fill:#fa464d;}.cls-8{fill:#fdd796;}.cls-9{fill:#fa6067;}.cls-10{fill:#f9f5f5;}.cls-11{fill:#fed17f;}.cls-12{fill:#f9f4f4;}.cls-13{fill:#ede7e5;}.cls-14{fill:#fa6269;}.cls-15{fill:#141b2b;}.cls-16{fill:#827f85;}.cls-17{fill:#1e2634;}.cls-18{fill:#56a4cb;}.cls-19{fill:#da7679;}.cls-20{fill:#e53321;}.cls-21{fill:#b0e1e4;}.cls-22{fill:#e63221;}.cls-23{fill:#da7579;}.cls-24{fill:#afe1e4;}.cls-25{fill:#e43221;}</style></defs><g id="Capa_2" data-name="Capa 2"><g id="Capa_1-2" data-name="Capa 1"><path class="cls-1" d="M767.94,158.2a58.79,58.79,0,0,1,7.52,3.83c10.76,6.82,16.94,16.43,17.79,29.28a61.29,61.29,0,0,1-1.78,21c-3.9,13.56-13,22.14-26.23,26.47a64.19,64.19,0,0,1-19.89,3.1c-18.49,0-37-.12-55.47.08-6.51.07-13.35-5-13.32-12.91,0-.67,0-1.33,0-2V105.49a22.31,22.31,0,0,1,.32-5,13,13,0,0,1,12-10c.66,0,1.33,0,2,0q26.73,0,53.47,0a62.83,62.83,0,0,1,16.55,2c13.66,3.73,21.38,12.82,23.75,26.6a46.94,46.94,0,0,1,.15,16.88,29.46,29.46,0,0,1-14.49,20.53A6.24,6.24,0,0,0,767.94,158.2ZM726.46,217h17.23a30,30,0,0,0,6.68-.66c7.92-1.76,13-7,14.39-15a34.52,34.52,0,0,0,0-11.65c-1.13-7-5.37-11.25-12.06-13.07a33.46,33.46,0,0,0-8.63-1.19c-12.57,0-25.13,0-37.69-.06-1.32,0-1.69.4-1.68,1.69,0,12.72,0,25.44,0,38.16,0,1.73,0,1.76,1.78,1.76C713.15,217,719.81,217,726.46,217Zm-2.37-67.16c5.66,0,11.32,0,17,0,6.54,0,14.64-4,15.93-12.72a24.79,24.79,0,0,0-.65-10.38,13.49,13.49,0,0,0-8.6-9.34,18.93,18.93,0,0,0-6.84-1.27c-11.49,0-23,0-34.46,0-1.71,0-1.74,0-1.74,1.84q0,15,0,29.95c0,1.9,0,1.93,1.89,1.93C712.43,149.86,718.26,149.85,724.09,149.85Z"/><path class="cls-2" d="M1412.87,174.31a6.67,6.67,0,0,0,2,1.8,34.5,34.5,0,0,1,12.62,23.56c.43,4.3,1,8.58,1.54,12.87a11.14,11.14,0,0,0,5.38,8.73c6.85,4.32,7.49,13.28,1.56,18.27-3.15,2.66-6.92,3-10.84,2.59-7.56-.87-12.76-5.35-16.79-11.37-3.6-5.36-5.15-11.48-5.81-17.84-.33-3.22-.44-6.46-.49-9.71-.13-8.27-5.4-14.34-13.53-15.82a37.72,37.72,0,0,0-6.71-.53h-37.48a8.34,8.34,0,0,1-1,0c-.92-.08-1.42.23-1.32,1.24,0,.58,0,1.17,0,1.75q0,19.35,0,38.7a15.74,15.74,0,0,1-1.52,7.25,10.27,10.27,0,0,1-9.74,6.16,16.78,16.78,0,0,1-12.58-5.09,10.58,10.58,0,0,1-3.23-7.35c0-.75,0-1.5,0-2.25V105.18a20.17,20.17,0,0,1,.33-4.72,13,13,0,0,1,12-9.89c.83,0,1.66,0,2.49,0,19.82,0,39.65.19,59.46-.05,22.66-.28,39.72,17.12,43.3,36.05,3.7,19.61-3.23,35-18.69,47.06Zm-46.12-58.83q-11.37,0-22.74,0c-2,0-2,0-2,2q0,22.47,0,44.94c0,2,0,2.05,2,2.06,14.91,0,29.82,0,44.73,0a10.71,10.71,0,0,0,7.09-2.61,22.55,22.55,0,0,0,5.37-6.82,35.67,35.67,0,0,0,4.16-16.78c.1-7.09-1.84-13.47-7-18.6a13.71,13.71,0,0,0-10.27-4.27C1380.91,115.56,1373.83,115.48,1366.75,115.48Z"/><path class="cls-1" d="M1794.78,194.88v-91.3a18.25,18.25,0,0,1,.24-4c1.32-5.85,6.41-9.49,12.6-9a11.43,11.43,0,0,1,10.69,10.64c.06.66,0,1.33,0,2q0,62.55,0,125.09c0,4.87-1.74,8.73-5.75,11.52-3.37,2.36-7.16,2.49-11,1.81a12.94,12.94,0,0,1-8.2-5.17q-37.94-48.31-76-96.5a4.47,4.47,0,0,0-1.64-1.69,5.72,5.72,0,0,0-.2,2.65q0,43.93,0,87.88a17.17,17.17,0,0,1-.34,4.47,11.79,11.79,0,0,1-11.89,8.73,11.38,11.38,0,0,1-11.22-8.84,16.91,16.91,0,0,1-.34-4q0-62.42,0-124.83c0-4.34,1.31-8,4.7-10.81,3.87-3.19,8.29-3.57,13-2.39a12.68,12.68,0,0,1,7.11,4.71q38.37,49.06,76.87,98.05c.3.38.63.75.94,1.13Z"/><path class="cls-2" d="M989.66,196.43c0,7.33-.16,14.65.05,22,.17,5.94-2.58,10-7.39,12.93A88.94,88.94,0,0,1,950.93,243c-13.28,2.19-26.46,1.78-39.2-2.65-26.84-9.33-44.79-27.61-51.92-55.15-8.61-33.26,5.41-64.9,31.82-83C907.8,91,925.79,87,945.23,88.85a76.34,76.34,0,0,1,25.44,6.69,36,36,0,0,1,3.54,1.85,11.67,11.67,0,0,1,5.93,10.81,13.64,13.64,0,0,1-4.72,10.11c-3.18,2.92-7,3.19-11,2.42a20.05,20.05,0,0,1-4.22-1.51,57.35,57.35,0,0,0-28.54-4.58c-15.9,1.55-28.29,9.32-37.19,22.43-18.43,27.12-7.35,65.64,24.44,78a48.32,48.32,0,0,0,19.34,3.07,82.74,82.74,0,0,0,21.15-3.26c2.57-.78,2.13-.42,2.14-2.86,0-7.82,0-15.64,0-23.47,0-2.31.27-2.26-2.32-2.26-5.92,0-11.83,0-17.74,0-4.3,0-8-1.39-10.75-4.85A12.81,12.81,0,0,1,929,168c1.87-4.61,5.54-7.42,10.54-7.59q19.23-.65,38.47,0c6.65.22,11.51,5.64,11.62,12.35.11,6.41,0,12.82,0,19.23Z"/><path class="cls-3" d="M356.18,166.26c0-20.56,0-41.11,0-61.67,0-4.13,1-7.76,4.22-10.5,4.37-3.74,9.4-4.67,14.67-2.45a12.51,12.51,0,0,1,8.2,12.28q0,23.1,0,46.19c0,.59.05,1.17,0,1.75-.1,1.15.3,1.74,1.54,1.61a14.81,14.81,0,0,1,1.49,0h63c3.31,0,3,.28,3-2.91,0-15.32.28-30.64-.11-45.94a14,14,0,0,1,18.42-13.39,12.65,12.65,0,0,1,8.7,11.11c.07.91.05,1.83.05,2.75q0,61.17,0,122.33a19.35,19.35,0,0,1-.23,4.23A12.73,12.73,0,0,1,466.6,241.9c-7,.2-12.41-3.65-14-10a15.63,15.63,0,0,1-.32-4V182c0-.5,0-1,0-1.5,0-2.11,0-2.12-2.26-2.13-3.33,0-6.66,0-10,0H386.52c-3.65,0-3.25-.44-3.25,3.13,0,15.65,0,31.3,0,46.94a13,13,0,0,1-10.48,13.12c-8.55,1.73-14.43-2.66-16.21-9.21a18.78,18.78,0,0,1-.37-5Q356.18,196.84,356.18,166.26Z"/><path class="cls-2" d="M1506.42,241.92c-11.91,0-23.83-.21-35.73.08A13.31,13.31,0,0,1,1457,228.38q.09-62.17,0-124.36c0-8,5.53-13.46,13.57-13.47q36,0,72,0a15.42,15.42,0,0,1,4.91.77c5.92,2,9.24,7.48,8.43,13.93-.69,5.49-5.57,9.8-11.58,10.21-.83.06-1.67,0-2.5,0q-27.49,0-55,0c-2.92,0-2.72-.36-2.73,2.62v31.47c0,.49,0,1,0,1.49,0,.71.29,1.1,1,1.1l2,0h44.48a18.81,18.81,0,0,1,6.41.82,12.47,12.47,0,0,1,8.17,13.41A12,12,0,0,1,1535,177c-1.49.12-3,.17-4.49.18h-44.24c-2.15,0-2.17,0-2.17,2.21q0,17.73,0,35.46c0,2.15,0,2.17,2.17,2.17H1541a27.17,27.17,0,0,1,4.23.29,12.67,12.67,0,0,1,10.25,16,12.35,12.35,0,0,1-10.84,8.62c-.83.06-1.67,0-2.5,0Z"/><path class="cls-2" d="M1574.47,166.15q0-30.59,0-61.17a17.79,17.79,0,0,1,.74-5.67,13,13,0,0,1,11.65-8.74c.66,0,1.33,0,2,0h70.22a19.93,19.93,0,0,1,4.22.34c6.72,1.4,10.71,6.85,10.11,13.9-.5,5.9-5.7,10.47-12.16,10.69-.75,0-1.5,0-2.25,0h-54c-.42,0-.84,0-1.25,0-2.16,0-2.18,0-2.18,2.17q0,16.11,0,32.21c0,2.3,0,2.31,2.32,2.31h45.23a18.59,18.59,0,0,1,6.41.84,12.45,12.45,0,0,1,8.11,13.43A12,12,0,0,1,1652.43,177c-1.49.12-3,.17-4.49.18h-43c-.5,0-1,0-1.5,0-1.84,0-1.88.05-1.88,2q0,18,0,36c0,1.84,0,1.87,2,1.87h56c4.29,0,8,1.27,10.88,4.63a11.73,11.73,0,0,1,2.09,12.82c-1.92,4.64-5.74,6.93-10.68,7.43a10.38,10.38,0,0,1-1.25,0h-73.22a12.45,12.45,0,0,1-10.6-5.58,13.31,13.31,0,0,1-2.29-8q0-15.36,0-30.71Z"/><path class="cls-4" d="M505.3,166.29q0-30.84,0-61.68a14.2,14.2,0,0,1,2-7.88,12.79,12.79,0,0,1,10.81-6.17c2.16-.09,4.33,0,6.49,0h65.73a14.76,14.76,0,0,1,8.54,2.29,12.51,12.51,0,0,1,5,13.83,12.37,12.37,0,0,1-11.25,8.79c-.91.06-1.83,0-2.75,0H535.4c-3.21,0-3-.36-3,2.88v31c0,.5,0,1,0,1.5,0,.92.34,1.42,1.3,1.41h46.48a16.91,16.91,0,0,1,6.16.78,12.23,12.23,0,0,1,8.13,13.4A11.87,11.87,0,0,1,583,177c-1.41.09-2.83.11-4.25.11H534.54c-2.11,0-2.15.05-2.15,2.06q0,17.85,0,35.7c0,2.1,0,2.12,2.31,2.12h20.49q17,0,34,0a41.79,41.79,0,0,1,4.47.32,12.82,12.82,0,0,1,10.63,13.37,12.32,12.32,0,0,1-12,11.22c-2.16.07-4.33,0-6.5,0q-33.62,0-67.22,0a12.76,12.76,0,0,1-9.82-4.11,12.91,12.91,0,0,1-3.46-9.1c0-4.5,0-9,0-13.49Z"/><path class="cls-2" d="M1111.68,244.22c-11.67-.29-22.28-1.56-32.35-5.79a66.26,66.26,0,0,1-18.4-11.81c-3.29-2.94-5.38-6.6-5.32-11.13a12,12,0,0,1,7-11.22,11.5,11.5,0,0,1,12.9,1.34,83.08,83.08,0,0,0,12.88,8.53c8.38,4.38,17.37,5.47,26.65,5a38.21,38.21,0,0,0,14.66-3.72,27.6,27.6,0,0,0,6.45-4.22,15.19,15.19,0,0,0,1-22.21,26.25,26.25,0,0,0-7.67-5.5,64.5,64.5,0,0,0-15.61-5.07c-6.26-1.33-12.67-1.88-18.88-3.5a67,67,0,0,1-17.8-7c-12.28-7.34-18.48-18.28-19.15-32.46-.34-7.33.55-14.46,3.85-21.11,5-10,13.09-16.6,23.26-20.85,10.43-4.37,21.37-5.56,32.54-4.89a73.37,73.37,0,0,1,34,10.37,44.19,44.19,0,0,1,7.74,5.87,13.42,13.42,0,0,1,4.59,10.64c-.31,7.45-8,13.45-14.93,11.6a7.45,7.45,0,0,1-2.92-1.35c-6.45-5.29-14-8.15-21.9-10.48a46.43,46.43,0,0,0-25.63-.21,22.86,22.86,0,0,0-10.78,6,15.9,15.9,0,0,0,.17,22.08,25.51,25.51,0,0,0,9.79,5.82,136.11,136.11,0,0,0,19.8,5,138.59,138.59,0,0,1,25.21,6.91,51.27,51.27,0,0,1,9.47,5,31.66,31.66,0,0,1,13.39,18.62,49.9,49.9,0,0,1,.59,24.93c-2.63,11-9.47,18.91-18.69,24.93a61.83,61.83,0,0,1-28.6,9.5A57.48,57.48,0,0,1,1111.68,244.22Z"/><path class="cls-2" d="M1256.19,244.2c-17.29-.3-32.79-4.29-46.66-13.69-16.06-10.87-25.62-26.1-29.39-44.94-2.82-14-2.88-28.17,1.2-42,8-27.21,26.28-44.25,53.46-51.42,19.21-5.07,38-3.23,56.24,5.2,9.25,4.29,10.43,16.22,2,23-3.13,2.51-6.84,2.33-10.5,1.4a30.73,30.73,0,0,1-4.18-1.6,56.11,56.11,0,0,0-39.77-2c-13.43,4.16-23,12.93-28,26.09a62.23,62.23,0,0,0,.07,45.6c5.68,14.93,16.9,23.75,32.45,27a60.23,60.23,0,0,0,29.4-.88,45.09,45.09,0,0,0,6.69-2.72,14.88,14.88,0,0,1,9.44-1.44c8.22,1.61,13,12,8.86,19.26a12.45,12.45,0,0,1-5.54,4.86,82.61,82.61,0,0,1-21.27,7A84.93,84.93,0,0,1,1256.19,244.2Z"/><path class="cls-3" d="M278.64,90.54h47.71a13.67,13.67,0,0,1,10,3.71,12.35,12.35,0,0,1-5.18,20.66,16.79,16.79,0,0,1-4.69.57q-15.12,0-30.23,0h-.75c-2.92,0-2.7-.21-2.7,2.7V225.76c0,1.08,0,2.17,0,3.25a13.14,13.14,0,0,1-12.46,12.86,18.46,18.46,0,0,1-6.44-.5,12.71,12.71,0,0,1-9.19-11.5c-.07-1.25-.07-2.5-.07-3.74q0-53.68,0-107.35c0-3.91.1-3.29-3.4-3.3-10.24,0-20.49,0-30.73,0a12.69,12.69,0,0,1-10.68-5,12.29,12.29,0,0,1,7.37-19.56,23.24,23.24,0,0,1,4.71-.41Z"/><path class="cls-1" d="M838.81,166.16q0,31.1,0,62.18c0,6.57-3.76,11.67-10.06,13.15-10.26,2.41-17-4.35-17-12.64,0-2,0-4,0-6q0-58.8,0-117.61a18.66,18.66,0,0,1,.66-5.67c1.86-5.93,8.3-9.82,14.79-9A13.25,13.25,0,0,1,838.79,103c.05,1,0,2,0,3Z"/><path class="cls-5" d="M36.21,239.75c-3.52-1.75-4.14-5-4.67-8.49-2.39-15.74-4.91-31.46-7.35-47.19-2.1-13.51-4.14-27-6.26-40.53-2.25-14.42-4.61-28.83-6.81-43.26-.59-3.91-1.51-7.79-1.63-11.77l31.39,0,1.46,15.83c-.4.66-.81,1.32-1.2,2-2.11,3.56-3.53,7.34-3,11.52.78,5.67,1.81,11.3,2.69,17,1.76,11.39,3.48,22.78,5.25,34.16,1.52,9.7,3,19.41,4.69,29.08.22,1.24-.26,2.85,1.15,3.78l.26,3.55.18.63.34,3.28c.53,5.45,1.18,10.89,1.57,16.35.33,4.7,1.26,9.35,1.09,14.08Z"/><path class="cls-6" d="M55.4,239.75c.17-4.73-.76-9.38-1.09-14.08-.39-5.46-1-10.9-1.57-16.35a1.45,1.45,0,0,1,1.21.94c5.52,11,14.34,16.55,26.7,16.38.26,1-.12,2,.46,2.9l0,10.21Z"/><path class="cls-6" d="M131.25,239.75H106q0-5.56,0-11.13l.45-2,26.09,0,.18,0C132.17,231,132.12,235.42,131.25,239.75Z"/><path class="cls-5" d="M106,228.62,106,239.75H81.15c0-3.4,0-6.81,0-10.21-.3-2.3.6-3,3-2.95,6.54.18,13.1.1,19.65,0C105.28,226.6,106.15,226.94,106,228.62Z"/><path class="cls-7" d="M131.25,239.75c.87-4.33.92-8.76,1.49-13.12l23.28,0a51.83,51.83,0,0,1-1.21,8.49c-.4,2.28-2.22,3.39-3.9,4.6Z"/><path class="cls-8" d="M109.72,5.63c.7.62,1.42,1.21,2.09,1.86,2.1,2,3.6,4.81,7.26,4.6a3.83,3.83,0,0,1,3.31,2c1.13,2.32,2.76,2.32,4.94,1.92,10.18-1.9,18.93,5.74,19.84,15.28,0,.08,0,.16,0,.24.28,1.44.23,3.06.91,4.28.9,1.65,2.67.42,4,.52a11.6,11.6,0,0,1,11,10.74c.14,1.47,0,3.1.61,4.35.72,1.46,2.54.5,3.86.77,4.85,1,10.07,5.57,9.6,12-.18,2.63,0,5.29,0,8-.88.76-2,.4-2.92.4q-70.8,0-141.58,0c-1,0-2-.09-3-.15.13-2.77-.37-5.65,1.24-8.18,2.46-3.87,5.89-6.14,10.59-6.11,1.27,0,1.78-.37,1.82-1.72A25.3,25.3,0,0,1,44,51.11,11.64,11.64,0,0,1,57,42.5c1.43.18,1.92-.65,2.11-1.88.3-2,.53-4,1-5.95C62,26.3,70.93,20.44,78.85,21.91c1.64.3,3.64,1.34,5-1a6.22,6.22,0,0,1,5.87-3.11,2.86,2.86,0,0,0,2.6-1.19,25.09,25.09,0,0,1,16-10A1.7,1.7,0,0,0,109.72,5.63Zm15.91,43.06a15,15,0,0,0-10.86,4.56c-2.08,2.18-2.34,4.06-.69,5.67s3.86,1.4,5.79-.48a7.68,7.68,0,0,1,4-2.23c3.28-.62,5.87.6,8.14,2.87,1.53,1.54,3.2,1.12,4.58-.11s1.89-2.86.66-4.39C134.3,50.9,130.56,48.61,125.63,48.69Zm-32.3-7.93a13.76,13.76,0,0,0,11.35-4.58c1.8-1.87,1.77-3.65.08-5.28s-3.21-1.72-5.23.15c-3.94,3.65-8,3.64-12,0-2.06-1.93-3.3-2-5.2-.14-1.7,1.62-1.75,3.43.06,5.27C85.38,39.13,88.81,41.09,93.33,40.76ZM74.64,56.16c-.67-2.38-2.57-4-4.69-5.29a14.9,14.9,0,0,0-19.06,3c-1.37,1.63-1.48,3.52-.06,5a3.37,3.37,0,0,0,5,0,9.05,9.05,0,0,1,4.3-2.66,7.89,7.89,0,0,1,7.81,2.39,3.75,3.75,0,0,0,4.46,1A3.71,3.71,0,0,0,74.64,56.16Z"/><path class="cls-9" d="M156,226.66l-23.28,0-.18,0L145,98.44l.3-.08,30.77,0c-1.13,7.45-2.24,14.9-3.4,22.35q-3.65,23.51-7.32,47-3.37,21.54-6.78,43.08C157.77,216.08,156.88,221.36,156,226.66Z"/><path class="cls-10" d="M29.62,72.4c1,.06,2,.15,3,.15q70.79,0,141.58,0c1,0,2,.36,2.92-.4a22.73,22.73,0,0,1,6.21.52c2.53.41,3.6,2.41,3.92,4.62a17.14,17.14,0,0,1-.14,6.69,5.51,5.51,0,0,1-5.57,4.55c-1.31,0-2.63,0-3.95,0l-31.38,0c-.6-.73-1.43-.47-2.18-.47q-15.63,0-31.26,0c-.74,0-1.58-.26-2.16.49H76.48c-.58-.75-1.42-.49-2.16-.49q-15.64,0-31.27,0c-.74,0-1.58-.26-2.17.48l-31.39,0c-1.17,0-2.34,0-3.51,0a5.71,5.71,0,0,1-5.5-4.44,14.76,14.76,0,0,1-.18-6.7c.84-4.26,2.53-4.6,7.33-5.23a18.12,18.12,0,0,1,2.33,0c.28.12.55.36.82.36C17.06,72.49,23.34,72.44,29.62,72.4Z"/><path class="cls-11" d="M29.62,72.4c-6.28,0-12.56.09-18.84.1-.27,0-.54-.24-.82-.36A29.75,29.75,0,0,1,10.06,61a11.63,11.63,0,0,1,11.16-8.95c2.07,0,2.4-.78,2.41-2.59,0-7.32,3.58-11.75,10.38-13.14a5.79,5.79,0,0,1,2.54-.14c2.36.63,2.73-.66,3-2.55a27.11,27.11,0,0,1,1.84-7.91C44.86,18.11,52.5,14.28,61,16.08A2.27,2.27,0,0,0,63.89,15a6.83,6.83,0,0,1,5.87-3.27,3.58,3.58,0,0,0,2.95-1.52C78.53,3.15,86-.44,95.19,0a24.36,24.36,0,0,1,14.53,5.59,1.7,1.7,0,0,1-1.47,1,25.09,25.09,0,0,0-16,10,2.86,2.86,0,0,1-2.6,1.19A6.22,6.22,0,0,0,83.81,21c-1.32,2.3-3.32,1.26-5,1C70.93,20.44,62,26.3,60.11,34.67c-.43,2-.66,4-1,5.95C59,41.85,58.47,42.68,57,42.5A11.64,11.64,0,0,0,44,51.11a25.3,25.3,0,0,0-.69,5.28c0,1.35-.55,1.73-1.82,1.72-4.7,0-8.13,2.24-10.59,6.11C29.25,66.75,29.75,69.63,29.62,72.4Z"/><path class="cls-7" d="M146.24,88.54l31.38,0a58.28,58.28,0,0,1-1.51,9.82l-30.77,0Z"/><path class="cls-12" d="M80.65,226.64c-12.36.17-21.18-5.42-26.7-16.38a1.45,1.45,0,0,0-1.21-.94c-.11-1.1-.23-2.19-.34-3.28l-.18-.63c-.08-1.18-.17-2.36-.26-3.55-.47-5.42-.9-10.84-1.42-16.25Q49,169.7,47.41,153.79c-.88-8.9-1.8-17.8-2.66-26.71-.71-7.51-1.36-15-2-22.54a15.25,15.25,0,0,1,12-6.14c7.29-.17,14.58,0,21.87,0-.1,2.87.15,5.71.33,8.58.49,8.17.68,16.35.92,24.53.4,13.33.65,26.67,1.18,40,.21,5.22.27,10.44.45,15.66C79.86,200.31,80.24,213.48,80.65,226.64Z"/><path class="cls-13" d="M76.54,98.38c-7.29,0-14.58-.15-21.87,0a15.25,15.25,0,0,0-12,6.14l-.37-.16L40.88,88.55c.59-.74,1.43-.48,2.17-.48q15.63,0,31.27,0c.74,0,1.58-.26,2.16.49a69.47,69.47,0,0,0,.43,9.78Z"/><path class="cls-14" d="M42.34,104.38l.37.16c.68,7.51,1.33,15,2,22.54.86,8.91,1.78,17.81,2.66,26.71q1.58,15.9,3.13,31.82c.52,5.41,1,10.83,1.42,16.25-1.41-.93-.93-2.54-1.15-3.78-1.66-9.67-3.17-19.38-4.69-29.08-1.77-11.38-3.49-22.77-5.25-34.16-.88-5.65-1.91-11.28-2.69-17-.57-4.18.85-8,3-11.52C41.53,105.7,41.94,105,42.34,104.38Z"/><path class="cls-14" d="M52.22,205.41l.18.63Z"/><path class="cls-9" d="M76.54,98.38l.37,0h33.28l.37,0c-.1.85-.25,1.7-.28,2.56q-.5,15-1,29.9c-.39,13.33-.74,26.65-1.13,40-.15,5.3-.35,10.59-.51,15.89q-.61,20-1.22,39.94l-.45,2c.13-1.68-.74-2-2.27-2-6.55.07-13.11.15-19.65,0-2.39-.07-3.29.65-3,2.95-.58-.9-.2-1.95-.46-2.9-.41-13.16-.79-26.33-1.23-39.5-.18-5.22-.24-10.44-.45-15.66-.53-13.32-.78-26.66-1.18-40-.24-8.18-.43-16.36-.92-24.53C76.69,104.09,76.44,101.25,76.54,98.38Z"/><path class="cls-12" d="M106.47,226.64q.6-20,1.22-39.94c.16-5.3.36-10.59.51-15.89.39-13.32.74-26.64,1.13-40q.44-15,1-29.9c0-.86.18-1.71.28-2.56l34.48.06L132.56,226.67Z"/><path class="cls-11" d="M125.63,48.69c4.93-.08,8.67,2.21,11.63,5.89,1.23,1.53.66,3.21-.66,4.39s-3,1.65-4.58.11c-2.27-2.27-4.86-3.49-8.14-2.87a7.68,7.68,0,0,0-4,2.23c-1.93,1.88-4.2,2-5.79.48s-1.39-3.49.69-5.67A15,15,0,0,1,125.63,48.69Z"/><path class="cls-11" d="M93.33,40.76c-4.52.33-8-1.63-10.9-4.6-1.81-1.84-1.76-3.65-.06-5.27,1.9-1.82,3.14-1.79,5.2.14,3.91,3.66,8,3.67,12,0,2-1.87,3.41-1.91,5.23-.15s1.72,3.41-.08,5.28A13.76,13.76,0,0,1,93.33,40.76Z"/><path class="cls-11" d="M74.64,56.16a3.71,3.71,0,0,1-2.29,3.5,3.75,3.75,0,0,1-4.46-1,7.89,7.89,0,0,0-7.81-2.39,9.05,9.05,0,0,0-4.3,2.66,3.37,3.37,0,0,1-5,0c-1.42-1.44-1.31-3.33.06-5a14.9,14.9,0,0,1,19.06-3C72.07,52.18,74,53.78,74.64,56.16Z"/><path class="cls-6" d="M145,98.44l-34.48-.06-.37,0a78.16,78.16,0,0,0,.45-9.79c.58-.75,1.42-.49,2.16-.49q15.63,0,31.26,0c.75,0,1.58-.26,2.18.47l-.9,9.82Z"/><path class="cls-7" d="M110.64,88.56a78.16,78.16,0,0,1-.45,9.79H76.91a69.47,69.47,0,0,1-.43-9.78Z"/><path class="cls-15" d="M112.74,220.91l95.46-20c.55-.11,1.1-.24,1.64-.36h0c.42.32.84.05,1.25,0q5-1,10-2.08c.11.47.23.93.33,1.4q3.09,14.69,6.17,29.37c.09.39,0,.92.48,1.14l0,.24c.08,3.14-1.65,5.54-3.3,8-1.12,1.66-2.22,3.33-3.28,5a4.88,4.88,0,0,1-3.24,2.27q-21,4.41-41.95,8.82c-.71.15-1-.17-1.38-.61l-6.46-7.79c-.92,3.15-1.84,6.13-2.61,9.14a2.21,2.21,0,0,1-2,1.88c-13,2.69-26,5.44-39,8.17-.19,0-.39.06-.59.09-.32-.84-1.23-.8-1.84-1.23-2.81-2-5.7-3.81-8.49-5.81a5.8,5.8,0,0,1-2.42-3.46c-2.2-10.4-4.36-20.81-6.57-31.21-.18-.85.09-1.12.88-1.27,2.15-.4,4.3-.88,6.45-1.33A.49.49,0,0,0,112.74,220.91Zm5.66,31.74a18.13,18.13,0,0,0,5.18,3.52,6.87,6.87,0,0,0,2.48.75c2.53.31,4.87-.59,7.27-1.07l12.13-2.55c2.08-.43,4.19-.76,6.23-1.31a8.46,8.46,0,0,0,5.88-9.21c-.92-4.92-2-9.81-3.1-14.69a7.58,7.58,0,0,0-3.94-5,5.3,5.3,0,0,0-1.81-.86c-3.45-1.12-6.66.16-9.92,1l-9.91,2.05a34.73,34.73,0,0,0-6.14,1.29,24.23,24.23,0,0,0-3.26.8,8.48,8.48,0,0,0-5.82,8.64c.48,4.26,1.6,8.4,2.49,12.58A7.06,7.06,0,0,0,118.4,252.65Zm68.78-39.71c-1.73.36-3.45.71-5.17,1.08-5.57,1.22-8.42,5.56-7.27,11.11.87,4.2,1.77,8.38,2.63,12.57a8.57,8.57,0,0,0,4.49,6,8.23,8.23,0,0,0,4.57.94c.75-.09,1.52-.14,2.26-.29q9.87-2,19.73-4.13a12,12,0,0,0,3-1c3.21-1.63,4.76-4.61,6.15-7.68a6.26,6.26,0,0,0,.33-3.52c-.55-3.77-1.54-7.44-2.22-11.18a9.33,9.33,0,0,0-5.85-7.45A4.33,4.33,0,0,0,208,209c-2.64-.24-5.11.64-7.62,1.2l-8.25,1.73A32.57,32.57,0,0,0,187.18,212.94Z"/><path class="cls-16" d="M221.13,198.17l.24,0,6.76,32.21c-.52-.22-.39-.75-.48-1.14q-3.09-14.69-6.17-29.37c-.1-.47-.22-.93-.33-1.4Z"/><path class="cls-17" d="M101.18,223.3c3.3-.68,6.6-1.38,9.9-2.05.4-.08.83-.34,1.25,0-2.15.45-4.3.93-6.45,1.33-.79.15-1.06.42-.88,1.27,2.21,10.4,4.37,20.81,6.57,31.21A5.8,5.8,0,0,0,114,258.5c2.79,2,5.68,3.85,8.49,5.81.61.43,1.52.39,1.84,1.23a6.32,6.32,0,0,1-6.2-.93c-2.25-1.6-4.6-3-6.91-4.55a8,8,0,0,1-3.67-5.36c-2.08-10.09-4.22-20.18-6.32-30.27C101.15,224.07,100.86,223.69,101.18,223.3Z"/><path class="cls-18" d="M209.78,209.46a9.33,9.33,0,0,1,5.85,7.45c.68,3.74,1.67,7.41,2.22,11.18a6.26,6.26,0,0,1-.33,3.52c-1.39,3.07-2.94,6-6.15,7.68a12,12,0,0,1-3,1q-9.87,2.09-19.73,4.13c-.74.15-1.51.2-2.26.29l2.49-14.34q1.58-9.21,3.16-18.43l8.25-1.73q-2.79,15.85-5.6,31.69c-.18,1,.14,1.06,1,.88,2.54-.56,5.08-1.12,7.63-1.59.88-.16,1.15-.58,1.29-1.41,1.16-6.88,2.39-13.75,3.57-20.63C208.74,215.9,209.25,212.68,209.78,209.46Z"/><path class="cls-19" d="M145.46,253.3l-12.13,2.55a2.14,2.14,0,0,1,0-1.3c1.06-6.1,2.15-12.19,3.21-18.29.76-4.36,1.48-8.73,2.22-13.1,3.26-.81,6.47-2.09,9.92-1a5.3,5.3,0,0,1,1.81.86l-2.07,12.41Z"/><path class="cls-20" d="M138.8,223.16c-.74,4.37-1.46,8.74-2.22,13.1-1.06,6.1-2.15,12.19-3.21,18.29a2.14,2.14,0,0,0,0,1.3c-2.4.48-4.74,1.38-7.27,1.07a6.87,6.87,0,0,1-2.48-.75c.45-.29.34-.79.41-1.2q2.46-14.88,4.9-29.76Z"/><path class="cls-21" d="M209.78,209.46c-.53,3.22-1,6.44-1.6,9.66-1.18,6.88-2.41,13.75-3.57,20.63-.14.83-.41,1.25-1.29,1.41-2.55.47-5.09,1-7.63,1.59-.82.18-1.14.15-1-.88q2.84-15.84,5.6-31.69c2.51-.56,5-1.44,7.62-1.2A4.33,4.33,0,0,1,209.78,209.46Z"/><path class="cls-18" d="M181.86,243.74a8.57,8.57,0,0,1-4.49-6c-.86-4.19-1.76-8.37-2.63-12.57-1.15-5.55,1.7-9.89,7.27-11.11,1.72-.37,3.44-.72,5.17-1.08q-.56,3.26-1.12,6.49Z"/><path class="cls-22" d="M145.46,253.3l3-17.84,2.07-12.41a7.58,7.58,0,0,1,3.94,5c1.13,4.88,2.18,9.77,3.1,14.69a8.46,8.46,0,0,1-5.88,9.21C149.65,252.54,147.54,252.87,145.46,253.3Z"/><path class="cls-23" d="M128.89,225.21Q126.45,240.09,124,255c-.07.41,0,.91-.41,1.2a18.13,18.13,0,0,1-5.18-3.52c.18-2.75.83-5.42,1.27-8.13,1-6,2-12,3.08-18A34.73,34.73,0,0,1,128.89,225.21Z"/><path class="cls-24" d="M181.86,243.74l4.2-24.31q.57-3.24,1.12-6.49a32.57,32.57,0,0,1,4.9-1q-1.58,9.22-3.16,18.43l-2.49,14.34A8.23,8.23,0,0,1,181.86,243.74Z"/><path class="cls-25" d="M122.75,226.5c-1,6-2.09,12-3.08,18-.44,2.71-1.09,5.38-1.27,8.13a7.06,7.06,0,0,1-2.24-4.13c-.89-4.18-2-8.32-2.49-12.58a8.48,8.48,0,0,1,5.82-8.64A24.23,24.23,0,0,1,122.75,226.5Z"/><path class="cls-17" d="M221.13,198.17l0,.25q-5,1.05-10,2.08c-.41.09-.83.36-1.25,0Z"/></g></g></svg>