<svg xmlns="http://www.w3.org/2000/svg" viewBox="0 0 383.24 334.66"><defs><style>.cls-1{fill:#ad2124;}.cls-2{fill:#c62929;}.cls-3{fill:#dea915;}.cls-4{fill:#f7c111;}.cls-5{fill:#d43a2f;}.cls-6{fill:#f14437;}</style></defs><g id="Capa_2" data-name="Capa 2"><g id="Capa_1-2" data-name="Capa 1"><path class="cls-1" d="M127.8,278c0,9.83.15,19.67.07,29.51A12.23,12.23,0,0,1,115.67,320c-33.39,1.15-66,7.86-98.63,14.09-8.54,1.63-12.48-.07-17-8V319.4a9.12,9.12,0,0,0,.74-1.23q9.07-21.45,18.13-42.9H63.58c.61,7.32,7.13,13.33,17.83,11C96.76,282.94,112.19,280,127.8,278Z"/><path class="cls-2" d="M63.58,275.27H18.87L0,229.61v-6c2.89-6.12,8.09-8.19,14.48-9.31,16.41-2.88,32.72-6.32,49.07-9.54Z"/><path class="cls-3" d="M127.18,152.85c.5-2.56,1-5.11,1.52-7.66.41-1.92-.88-2.93-2-4.09-14-14.2-27.89-28.47-42-42.58-4-4-6.24-8.5-4.33-14.06,1.85-5.36,6.08-7.57,11.66-8.38,19.14-2.78,38.24-5.91,57.35-8.87a5.21,5.21,0,0,0,4.38-3.35Q166.62,36,179.67,8.16c3-6.42,6-8.45,11.88-8.13l0,191c-2.92,1.65-5.83,3.32-8.77,5-15.43,8.56-30.89,17.07-46.3,25.67-4.62,2.58-9.1,2.44-13.31-.58a11.41,11.41,0,0,1-4.89-11.41c1.7-11.51,3.67-23,5.48-34.47C125,167.77,126.05,160.31,127.18,152.85Z"/><path class="cls-4" d="M191.58,191.07l0-191c5.56,0,8.9,3.16,11.15,7.91,8.72,18.43,17.52,36.83,26.13,55.32a6,6,0,0,0,5.23,3.86c18.83,2.72,37.63,5.62,56.47,8.28,5.59.79,10.16,2.76,12.05,8.45s-.44,10-4.41,14.08c-13.54,13.76-26.89,27.7-40.45,41.44-2.4,2.43-3.73,4.71-2.58,8.13a55.65,55.65,0,0,1,1.31,5.78c2.42,18.33,5.87,36.49,8.9,54.72,1.44,8.68-5,16-13.41,14.82-2.77-.39-5.13-1.85-7.53-3.16l-49.35-27.14c-1.08-.59-2.11-1.38-3.47-1.13Z"/><path class="cls-5" d="M127.18,152.85c-1.13,7.46-2.21,14.92-3.39,22.38-1.81,11.49-3.78,23-5.48,34.47a11.41,11.41,0,0,0,4.89,11.41c4.21,3,8.69,3.16,13.31.58,15.41-8.6,30.87-17.11,46.3-25.67,2.94-1.63,5.85-3.3,8.77-5v.32q0,39.72,0,79.44c-7.29.47-14.6.74-21.87,1.45-13.57,1.33-27.15,2.6-40.57,5.14a7,7,0,0,0-1.33.56c-15.61,2-31,5-46.39,8.29-10.7,2.33-17.22-3.68-17.83-11l0-70.5q0-14,.1-28c0-8,3.79-12.27,11.72-13.78C92.65,159.67,109.91,156.23,127.18,152.85Z"/><path class="cls-6" d="M191.57,270.83q0-39.72,0-79.44c1.36-.25,2.39.54,3.47,1.13l49.35,27.14c2.4,1.31,4.76,2.77,7.53,3.16,8.43,1.18,14.85-6.14,13.41-14.82-3-18.23-6.48-36.39-8.9-54.72,17.7,3.32,35.42,6.51,53.09,10,6.47,1.28,9.71,6,9.79,13.13.1,9.45.14,18.9.21,28.36q0,35.24,0,70.48c-2.57,9.08-7,12.52-15.13,11.13-16.43-2.79-32.82-5.87-49.23-8.82-18.89-2.74-37.79-5.45-56.88-6.42Z"/><path class="cls-1" d="M255.14,277.57c16.41,2.95,32.8,6,49.23,8.82,8.17,1.39,12.56-2.05,15.13-11.13h44.73c6,14.15,12.14,28.25,18,42.48,3.8,9.3-3.18,18.23-13.08,16.63-14.56-2.36-29.06-5.13-43.57-7.81a385.9,385.9,0,0,0-45.44-5.72c-4.22-.28-8.45-.48-12.67-.81-7.48-.58-12.19-5.72-12.22-13.32C255.16,297,255.16,287.29,255.14,277.57Z"/><path class="cls-2" d="M364.23,275.27H319.5q0-35.25,0-70.48c18.27,3.58,36.58,7,54.8,10.82,7.25,1.53,10.57,9.29,7.59,16.63-5.13,12.65-10.42,25.24-15.63,37.85C365.59,271.8,364.92,273.54,364.23,275.27Z"/></g></g></svg>