<svg xmlns="http://www.w3.org/2000/svg" viewBox="0 0 408.72 245.94"><defs><style>.cls-1{fill:#cd3b61;}.cls-2{fill:#f3c296;}.cls-3{fill:#ef9f5d;}.cls-4{fill:#5a9ac7;}.cls-5{fill:#ea5676;}.cls-6{fill:#e5a06b;}.cls-7{fill:#357fb8;}.cls-8{fill:#d37e43;}.cls-9{fill:#ebedee;}.cls-10{fill:#edebec;}</style></defs><g id="Capa_2" data-name="Capa 2"><g id="Capa_1-2" data-name="Capa 1"><path class="cls-1" d="M0,160.47c1.78-3.83.88-8.16,2.25-12.07,4.11,3.46,9.29,2.47,14,3.2Q31,153.91,46,155.36c6.6.64,13.22,2.4,19.92-.38,4.71-1.95,8.05-5.29,11.41-8.8q-.78,7.13-1.55,14.23c-4.81,13.93-13.12,18.87-27.93,16.94-13.63-1.78-27.27-3.35-40.92-4.91a9.67,9.67,0,0,1-6.89-4Z"/><path class="cls-2" d="M75.74,160.41q.78-7.11,1.55-14.23c1.88-14.7,3.8-29.39,5.62-44.1Q86.75,71,90.49,39.82c7.26.5,14.53.93,21.79,1.53,2,.17,2.49-1.14,3.14-2.42,2.35-4.62,4.81-9.19,7-13.89,3.61-7.82,12.13-12.25,21.94-9.26,11.14,3.4,22.48,6.14,33.73,9.17-1,1.67-2.1,3.33-3.1,5q-7.72,13.22-15.43,26.45c-8.37,14.46-16.85,28.86-25,43.42-3.74,6.68-1.18,13.2,6.07,15.46,14.93,4.66,28.57,2.58,40-8.89,6.28-6.31,11.12-13.82,16.55-20.82,2.52-3.25,3.76-2.44,6.05-.17A52.68,52.68,0,0,0,229.1,99.28c3,.69,6.43-.34,9.12,2.13,4.2,3.85,8.55,7.53,12.86,11.25q18.51,15.95,37,31.86c2.06,1.87,3.93,4,6.2,5.55,3.71,2.52,6.11,6.75,10.66,8.12l.75,1.9c.06,2.88,1.74,5.4,1.22,8.52-1.21,7.28-6.29,11.39-11.69,15.28-1.81,1.31-3.56,1.33-5.58-.55-4.83-4.51-10-8.61-15.09-12.87-3.3-2.79-6.12-2.82-8.75-.09s-2.38,5.71.58,8.65a57.36,57.36,0,0,0,4.47,3.93c1.06.86,1.78,1.85.79,3-3.9,4.63-7.17,9.85-12.38,13.27-1.73,1.14-2.94.85-4.48-.59-4.35-4.06-8.87-7.95-13.4-11.8-2.06-1.75-4.48-2.47-7-.92a6,6,0,0,0-2.91,6.83c.45,2.12,2.33,3.17,3.71,4.54,1.19,1.18,1.94,2.28.61,3.7-4.16,4.45-7.78,9.41-12.49,13.35-5,4.16-10.73,3.78-16.58,2.71-.41-15.1-10.13-20.48-25.28-13.77,1.37-7.63.55-14.48-6.93-18.55s-13.84-2-19.75,4.69a25.93,25.93,0,0,1,.17-2.65c1.26-5.81-1.33-12.45-6-15.22-6.46-3.85-13-3.35-18.31,1.37-.73.65-1.29,2.05-2.54,1.38-.92-.5-.44-1.69-.48-2.58-.47-10.22-7.16-16.1-17.18-15.28-4.68.38-7.45,3.67-10.65,6.38-4.57-1.28-9.32-1.06-14-1.48C82.5,161.06,79.08,161.25,75.74,160.41Z"/><path class="cls-3" d="M288.11,144.52q-18.51-15.93-37-31.86c-4.31-3.72-8.66-7.4-12.86-11.25-2.69-2.47-6.09-1.44-9.12-2.13a52.68,52.68,0,0,1-25.95-13.85c-2.29-2.27-3.53-3.08-6.05.17-5.43,7-10.27,14.51-16.55,20.82-11.4,11.47-25,13.55-40,8.89-7.25-2.26-9.81-8.78-6.07-15.46,8.18-14.56,16.66-29,25-43.42Q167.22,43.19,175,30c1-1.7,2.06-3.36,3.1-5,5.8-7,13.94-8.12,22.24-8.88q25.53-2.36,51.08-4.76a26.58,26.58,0,0,1,16.07,3.48c10.62,6,21.35,11.89,31.9,18.05a14,14,0,0,0,11,1.86,46.66,46.66,0,0,1,7.13-.65c.33,2.49.67,5,1,7.47,2,16.27,4,32.54,6,48.82,1.56,13,3,26,4.53,39-5.34.58-10.75.84-16,1.87-3.23.63-6.83-.39-9.67,1.51A99.93,99.93,0,0,0,288.11,144.52Z"/><path class="cls-4" d="M329,129.33c-1.5-13-3-26-4.53-39-1.95-16.28-4-32.55-6-48.82-.31-2.49-.65-5-1-7.47-1.37-8-.37-15.25,5.34-21.54,5.07-5.59,11.75-6.8,18.67-7.64C353.6,3.41,365.73,2.06,377.81.38c8.39-1.16,10.7.65,11.69,9,3,25.29,6.22,50.55,9.3,75.83,2.56,21.07,5,42.14,7.53,63.22-4.23,3.13-9.35,2.5-14.12,3.18q-15.07,2.15-30.22,3.74c-6.37.69-12.72,2.27-19.18-.38-4.74-2-8.12-5.28-11.44-8.86Q330.17,137.73,329,129.33Zm52.71,10.47c0-6.66-4.57-11.35-11.16-11.41-6.83-.06-11.55,4.63-11.5,11.46,0,6.59,4.72,11.21,11.36,11.2S381.65,146.41,381.67,139.8Z"/><path class="cls-5" d="M90.49,39.82Q86.7,71,82.91,102.08c-1.82,14.71-3.74,29.4-5.62,44.1-3.36,3.51-6.7,6.85-11.41,8.8-6.7,2.78-13.32,1-19.92.38q-14.89-1.43-29.71-3.76c-4.71-.73-9.89.26-14-3.2q3-25.27,6.06-50.54c2-16.18,4-32.35,6-48.53,1.71-13.95,3.28-27.91,5.07-41.84.8-6.32,3.09-8.08,9.36-7.33,14.34,1.73,28.69,3.45,43,5.45,14,1.94,21.78,12.86,19.53,26.71C90.91,34.8,90.76,37.32,90.49,39.82ZM26.24,139.75a11.49,11.49,0,0,0,11.57,11.64c5.94,0,11.41-5.46,11.54-11.49a12,12,0,0,0-11.59-11.78A11.38,11.38,0,0,0,26.24,139.75Z"/><path class="cls-3" d="M99.87,162.84c3.2-2.71,6-6,10.65-6.38,10-.82,16.71,5.06,17.18,15.28,0,.89-.44,2.08.48,2.58,1.25.67,1.81-.73,2.54-1.38,5.29-4.72,11.85-5.22,18.31-1.37,4.63,2.77,7.22,9.41,6,15.22a25.93,25.93,0,0,0-.17,2.65c5.91-6.65,12.35-8.72,19.75-4.69s8.3,10.92,6.93,18.55c15.15-6.71,24.87-1.33,25.28,13.77a42.35,42.35,0,0,1-6,10.63c-3.08,4.25-7,7.92-9.31,12.72-3.43,2.71-6.75,5.48-11.55,5.52-10,.07-16.89-8.08-15-17.92.15-.76.17-1.54.32-3.08-6.58,4-12.9,4.38-18.71-.13s-6.76-10.94-4.44-18.41c-6.7,4.42-13,5.11-19.09.59s-6.89-10.64-4.84-18c-4.41,1.84-8.19,3.72-12.81,2.75a14.84,14.84,0,0,1-10-21.95C96.73,167.39,99,165.55,99.87,162.84Z"/><path class="cls-6" d="M191.51,240.42c2.33-4.8,6.23-8.47,9.31-12.72a42.35,42.35,0,0,0,6-10.63c5.85,1.07,11.61,1.45,16.58-2.71,4.71-3.94,8.33-8.9,12.49-13.35,1.33-1.42.58-2.52-.61-3.7-1.38-1.37-3.26-2.42-3.71-4.54a6,6,0,0,1,2.91-6.83c2.49-1.55,4.91-.83,7,.92,4.53,3.85,9.05,7.74,13.4,11.8,1.54,1.44,2.75,1.73,4.48.59,5.21-3.42,8.48-8.64,12.38-13.27,1-1.17.27-2.16-.79-3a57.36,57.36,0,0,1-4.47-3.93c-3-2.94-3.13-6-.58-8.65s5.45-2.7,8.75.09c5.05,4.26,10.26,8.36,15.09,12.87,2,1.88,3.77,1.86,5.58.55,5.4-3.89,10.48-8,11.69-15.28.52-3.12-1.16-5.64-1.22-8.52a70.89,70.89,0,0,1,12,10.42c3.59,4.06,4.3,8.93,1.63,13.68-5.31,9.43-14.62,16.29-26.35,9.73-1.71-1-2.6-.45-3.67.8-2.95,3.41-6,6.73-8.95,10.15-6,7-14,8.65-22.07,4.19-1.92-1.06-2.86-.53-4,.81-2.77,3.21-5.67,6.32-8.37,9.59-6.18,7.5-14.18,9.17-22.56,4.41-1.58-.89-2.51-.86-3.66.55-2.86,3.48-5.87,6.85-8.78,10.29C205.5,241.11,199,243.05,191.51,240.42Z"/><path class="cls-7" d="M331.37,146.13c3.32,3.58,6.7,6.91,11.44,8.86,6.46,2.65,12.81,1.07,19.18.38q15.13-1.62,30.22-3.74c4.77-.68,9.89,0,14.12-3.18.71,4.54,1.43,9.08,2.11,13.63,1.08,7.24-.82,9.52-8.13,10.4-13.91,1.7-27.82,3.43-41.7,5.36a22.42,22.42,0,0,1-25.82-19.48c-.2-1.44-.56-2.86-.85-4.29Z"/><path class="cls-8" d="M331.37,146.13l.57,7.94c-5,0-10.11.33-15.13,0-4.69-.34-8.59.78-11.84,4.15-4.55-1.37-7-5.6-10.66-8.12-2.27-1.54-4.14-3.68-6.2-5.55a99.93,99.93,0,0,1,15.17-11.81c2.84-1.9,6.44-.88,9.67-1.51,5.26-1,10.67-1.29,16-1.87Q330.17,137.73,331.37,146.13Z"/><path class="cls-9" d="M381.67,139.8c0,6.61-4.68,11.24-11.3,11.25S359,146.44,359,139.85c-.05-6.83,4.67-11.52,11.5-11.46C377.1,128.45,381.7,133.14,381.67,139.8Z"/><path class="cls-10" d="M26.24,139.75a11.38,11.38,0,0,1,11.52-11.63A12,12,0,0,1,49.35,139.9c-.13,6-5.6,11.48-11.54,11.49A11.49,11.49,0,0,1,26.24,139.75Z"/></g></g></svg>