<svg xmlns="http://www.w3.org/2000/svg" viewBox="0 0 291.06 408.66"><defs><style>.cls-1{fill:#f9ba3a;}.cls-2{fill:#576b76;}.cls-3{fill:#eba324;}.cls-4{fill:#4d5b69;}.cls-5{fill:#e7e8e8;}.cls-6{fill:#dadada;}.cls-7{fill:#4d4947;}.cls-8{fill:#eab884;}.cls-9{fill:#3f3b3a;}.cls-10{fill:#ddaa7b;}.cls-11{fill:#6d7d86;}.cls-12{fill:#c6c5c4;}.cls-13{fill:#3fa8d7;}.cls-14{fill:#73b9e6;}.cls-15{fill:#f8d09c;}</style></defs><g id="Capa_2" data-name="Capa 2"><g id="Capa_1-2" data-name="Capa 1"><path class="cls-1" d="M247.06,269c9.05,3.06,16.79,7.82,21.65,16.42,3.45,6.12,4.66,12.92,6,19.67q7.88,39.76,15.71,79.54a33.7,33.7,0,0,1,.51,9.5,14.88,14.88,0,0,1-11.88,13.72c-.86.2-1.9-.11-2.52.84H240.61q0-31.85,0-63.69c0-4.89-2.26-7-6.79-6.55-3,.31-5.14,3-5.16,6.89-.06,9.15,0,18.31,0,27.46l-23.88-.16c-.05-7.18-.23-14.35-.11-21.52A19.65,19.65,0,0,0,202,340c0-.54.05-1.08.07-1.63.28-8.22.41-16.44-.07-24.66.05-1.72.14-3.44.15-5.16q0-27.4.07-54.82c4.37,1.49,8.72,3,13.09,4.44C225.91,261.71,236.26,266,247.06,269Z"/><path class="cls-1" d="M50.64,408.66h-16c-.55-.93-1.6-.88-2.44-1.19-8.33-3-11-6.91-11.2-15.67-.24-8.45,2.12-16.49,3.5-24.66,3.65-21.57,7.86-43.05,11.74-64.59,2.4-13.31,4.3-26.8,16-36L66,261.41l23-7.66.16,60q0,13.28,0,26.56a15.77,15.77,0,0,0-2.59,9.35c.09,7.66,0,15.33-.1,23l-4.69.13a174.76,174.76,0,0,0-19.15,0c0-9,0-18.07,0-27.1,0-4.61-2.29-7.23-6.07-7.19s-5.89,2.56-5.89,7.26Q50.63,377.17,50.64,408.66Z"/><path class="cls-2" d="M202,340a19.65,19.65,0,0,1,2.65,11c-.12,7.17.06,14.34.11,21.52s-.33,14.5-.13,21.74c.19,6.8-2.12,11.77-8.7,14.31H117.69c-.24-.6-.31-1.49-.75-1.75-4.25-2.51-4.92-6.44-4.89-10.94q.18-24.11,0-48.2a10.86,10.86,0,0,1,3.73-8.76c.75-.69,2.92-.78,1.94-2.79,3.18,0,6.35-.1,9.53,0,1.89.06,2.57-.66,2.52-2.54-.09-3.71-.14-7.43,0-11.13.22-5.61,3.49-8.78,9.08-8.83,4.37,0,8.74.1,13.11.16-4.45,1.76-6.49,5-6.34,9.81.1,3.31.13,6.62,0,9.92-.1,2.37.68,3.28,3.15,3.25,10.45-.14,20.9-.11,31.35-.15l15-.15C197.83,336.82,199.74,338.76,202,340ZM160.61,381.5c6.16-12.59-.87-24.76-14.89-25.78-12.27-.63-19.31,12-17.27,20.25,1.86,7.49,7.3,13.26,14.39,14.16C150.49,391.09,156.61,388.34,160.61,381.5Zm21.93-32.71c-5.85,0-9.42,2.76-8.73,6.79.61,3.58,3.22,5.78,7.84,5.88,3.42.06,7-.21,8.64-4.18C192.11,352.77,188.48,348.81,182.54,348.79Z"/><path class="cls-3" d="M52.24,266.57c-11.66,9.18-13.56,22.67-16,36-3.88,21.54-8.09,43-11.74,64.59-1.38,8.17-3.74,16.21-3.5,24.66.25,8.76,2.87,12.69,11.2,15.67.84.31,1.89.26,2.44,1.19H13.13c-2.21-1.38-4.89-1.77-7-3.46-5.25-4.3-6.85-10-5.9-16.37C3.08,369.74,7.54,351,11.16,332c2.19-11.42,4.49-22.82,6.8-34.21,2.78-13.67,10.57-23.13,23.78-28,.74-.26,1.44-.62,2.17-.94Z"/><path class="cls-4" d="M117.7,336.22c1,2-1.19,2.1-1.94,2.79a10.86,10.86,0,0,0-3.73,8.76q.24,24.09,0,48.2c0,4.5.64,8.43,4.89,10.94.44.26.51,1.15.75,1.75H94.54c-6.12-3.14-8.36-8.14-8-14.94.35-7,0-14.07-.06-21.11.05-7.66.19-15.33.1-23a15.77,15.77,0,0,1,2.59-9.35c3.16-2.77,7-3.64,11-3.94,3.75-.21,7.54.41,11.28-.4a2.21,2.21,0,0,1,.63.28c.24.34.49.37.75,0Z"/><path class="cls-5" d="M195.91,408.66c6.58-2.54,8.89-7.51,8.7-14.31-.2-7.24.07-14.49.13-21.74l23.88.16q0,17.94,0,35.89Z"/><path class="cls-3" d="M228.64,408.66q0-18,0-35.89c0-9.15,0-18.31,0-27.46,0-3.91,2.11-6.58,5.16-6.89,4.53-.45,6.79,1.66,6.79,6.55q0,31.84,0,63.69Z"/><path class="cls-3" d="M50.64,408.66q0-31.5,0-63c0-4.7,2.07-7.22,5.89-7.26s6,2.58,6.07,7.19c0,9,0,18.07,0,27.1v36Z"/><path class="cls-6" d="M62.62,408.66v-36a174.76,174.76,0,0,1,19.15,0v35.92Z"/><path class="cls-5" d="M81.77,408.66V372.74l4.69-.13c.05,7,.41,14.09.06,21.11-.34,6.8,1.9,11.8,8,14.94Z"/><path class="cls-7" d="M150.4.16C171.13,1.41,190,7.84,205.77,21.53c23,19.88,33.72,45.43,33.88,75.61,0,10,0,19.94-.07,29.9-6-3.08-12.17-5-19-3.17,0-.53-.05-1.06-.06-1.59-.21-10-5.45-14.67-15.52-14a83.79,83.79,0,0,1-21.05-.68c-12.1-2.23-22.71-7.22-30.56-17.1-7.07-8.92-8.21-9-15.83-.18-6.12,7.05-13.22,12.6-22.26,15.49-7.58,2.42-15.35,2.89-23.21,2.88a38.82,38.82,0,0,1-5.08-.43c-7.36-1.53-12.79,1-16.4,7.54,0-5.58.08-11.17-.06-16.75-.45-18.41,3.5-35.67,12.63-51.78a93.24,93.24,0,0,1,25.38-28.67,88.44,88.44,0,0,1,40.19-17C149.71,1.44,150.24,1.07,150.4.16Z"/><path class="cls-8" d="M70.64,115.83c3.61-6.55,9-9.07,16.4-7.54a38.82,38.82,0,0,0,5.08.43,6.08,6.08,0,0,0-.77,3.83c.31,17.48-.94,35,1.57,52.42,1.18,8.16,2.77,16.28,6.61,23.56,10,19,25,32.2,46.07,38.06,5.83,1.63,11.61,2.48,17.54.52,5.52-1.82,11.08-3.52,16.61-5.27q.21,10,.41,20.06c-.08,1.72-.2,3.44-.22,5.16q-.16,13.72-.28,27.45c-5.57,2.38-10.74,5.59-16.63,7.31-10.24,3-20.56,2.92-31,1.38q0-25.53,0-51.06c0-1.31.78-3.4-1.24-3.71-6.72-1.05-12.85-4-19.33-5.77-.41-1.12-1.47-1.44-2.38-1.94a73.8,73.8,0,0,1-22.53-19.07C80.49,194,76.45,185.37,73,176.38c-1.24-6.37-2.85-12.69-2.71-19.25.18-.43,0-.62-.43-.72h0c0-4-.08-7.91,0-11.87.06-2.5-.49-3.89-3.39-2.83-1.77.64-3.59.24-5.44,0-6-.74-10-4.63-14.2-8.41q2.05-3.13,4.09-6.29c3.91-1,7.23-3.63,11.5-3.71,2.44,0,5.64,1.54,7.1-.23C70.83,121.45,70.33,118.3,70.64,115.83Z"/><path class="cls-7" d="M180.16,241.9q-.21-10-.41-20.06c.86-1.5,2.51-1.88,3.85-2.67,14.67-8.6,25.32-20.61,31.6-36.51,3.35-8.48,4.51-17.36,5.43-26.31,5.48,1.72,10.72.66,15.86-1.43,1,17.7,4.45,34.66,13.55,50.23,6.35,10.88,4.71,22.21.64,33.48-2.71,7.5-5.25,15.08-4.5,23.26.21,2.36.58,4.72.88,7.08-10.8-3-21.15-7.26-31.77-10.76-4.37-1.44-8.72-2.95-13.08-4.44-3.48-1.93-7.32-2.84-11.09-4C187,247.77,182,247.09,180.16,241.9Z"/><path class="cls-9" d="M70.64,115.83c-.31,2.47.19,5.62-1.16,7.24-1.46,1.77-4.66.18-7.1.23-4.27.08-7.59,2.72-11.5,3.71.34-12.86-.24-25.73.51-38.6,1.78-30.3,14.81-54.36,39.8-71.57A92.72,92.72,0,0,1,150.4.16c-.16.91-.69,1.28-1.62,1.43a88.44,88.44,0,0,0-40.19,17A93.24,93.24,0,0,0,83.21,47.3C74.08,63.41,70.13,80.67,70.58,99.08,70.72,104.66,70.63,110.25,70.64,115.83Z"/><path class="cls-9" d="M70.27,157.13c-.14,6.56,1.47,12.88,2.71,19.25a10,10,0,0,0-.79,1.74C70.26,186,68,193.83,63.85,200.78c-6,10-8.27,20.31-4.78,31.79,2.87,9.46,6.81,18.7,6.9,28.84l-13.73,5.16-8.33,2.33c2.63-9.47.66-18.52-2.39-27.52-2.1-6.22-4.38-12.38-4.51-19.13a33,33,0,0,1,4.48-17.77c9-15.31,12.15-32.14,13.24-49.55a20.46,20.46,0,0,0,15.08,1.47h0Z"/><path class="cls-10" d="M236.49,154.92c-5.14,2.09-10.38,3.15-15.86,1.43l.05-15.07a68.73,68.73,0,0,0,7.18-.05c6.3-.68,11.69-3.18,15.43-8.55,3.89,6.23,2.83,13.42-2.88,18.93C239.19,152.8,237.8,153.82,236.49,154.92Z"/><path class="cls-10" d="M69.81,156.4a20.46,20.46,0,0,1-15.08-1.47c-9.09-5.48-11.92-13.18-7.94-21.63C51,137.08,55,141,61,141.71c1.85.23,3.67.63,5.44,0,2.9-1.06,3.45.33,3.39,2.83C69.73,148.49,69.81,152.44,69.81,156.4Z"/><path class="cls-8" d="M243.29,132.68c-3.74,5.37-9.13,7.87-15.43,8.55a68.73,68.73,0,0,1-7.18.05q0-8.7-.07-17.41c6.8-1.78,13,.09,19,3.17C240.31,129.26,242.77,130.33,243.29,132.68Z"/><path class="cls-11" d="M191.12,249.81c3.77,1.12,7.61,2,11.09,4q0,27.42-.08,54.82c0,1.72-.1,3.44-.15,5.16a.7.7,0,0,0-.55.15l-10.33,0,.05-.36Z"/><path class="cls-6" d="M191.1,313.87l10.33,0c0,2.78-.06,5.57.08,8.35.27,5.38-.73,10.81.54,16.16,0,.55,0,1.09-.07,1.63-2.24-1.28-4.15-3.22-6.9-3.49-3.38-.37-4.25-2.22-4.06-5.54C191.35,325.31,191.1,319.59,191.1,313.87Z"/><path class="cls-12" d="M202.05,338.41c-1.27-5.35-.27-10.78-.54-16.16-.14-2.78-.06-5.57-.08-8.35a.7.7,0,0,1,.55-.15C202.46,322,202.33,330.19,202.05,338.41Z"/><path class="cls-7" d="M66,261.41c-.09-10.14-4-19.38-6.9-28.84-3.49-11.48-1.26-21.76,4.78-31.79,4.19-6.95,6.41-14.79,8.34-22.66a10,10,0,0,1,.79-1.74c3.47,9,7.51,17.64,13.57,25.27a73.8,73.8,0,0,0,22.53,19.07c.91.5,2,.82,2.38,1.94q-.18,9.68-.35,19.35c-1.82,5.18-6.84,5.89-11,7.84A33.31,33.31,0,0,0,89,253.75Z"/><path class="cls-2" d="M89,253.75a33.31,33.31,0,0,1,11.15-3.9l0,63.77.1.21-11.06-.12Z"/><path class="cls-12" d="M89.14,313.71l11.06.12v22.5c-4,.3-7.89,1.17-11,3.94Q89.15,327,89.14,313.71Z"/><path class="cls-1" d="M132.06,283.2c10.41,1.54,20.73,1.61,31-1.38,5.89-1.72,11.06-4.93,16.63-7.31q.1,19.62.23,39.23-.06,11.06-.1,22.11c-5.26.1-10.53.14-15.8.33-2.21.08-2.63-1-2.59-2.89.09-3.43.14-6.87,0-10.29-.26-6.22-3.14-8.93-9.44-9.13-4.37-.06-8.74-.21-13.11-.16-5.59.05-8.86,3.22-9.08,8.83-.15,3.7-.1,7.42,0,11.13.05,1.88-.63,2.6-2.52,2.54-3.18-.09-6.35,0-9.53,0h-4.84a.8.8,0,0,0-.75,0,2.21,2.21,0,0,0-.63-.28q-.09-10.71-.19-21.41v-.82q.1-19.15.2-38.3C118.12,278.6,124.63,282.1,132.06,283.2Z"/><path class="cls-13" d="M160.61,381.5c-4,6.84-10.12,9.59-17.77,8.63-7.09-.9-12.53-6.67-14.39-14.16-2-8.21,5-20.88,17.27-20.25C139.06,367.19,147.06,381.07,160.61,381.5Z"/><path class="cls-14" d="M160.61,381.5c-13.55-.43-21.55-14.31-14.89-25.78C159.74,356.74,166.77,368.91,160.61,381.5Z"/><path class="cls-11" d="M152,313.87c6.3.2,9.18,2.91,9.44,9.13.15,3.42.1,6.86,0,10.29,0,1.88.38,3,2.59,2.89,5.27-.19,10.54-.23,15.8-.33l.3.85c-10.45,0-20.9,0-31.35.15-2.47,0-3.25-.88-3.15-3.25.15-3.3.12-6.61,0-9.92C145.46,318.9,147.5,315.63,152,313.87Z"/><path class="cls-12" d="M180.09,336.7l-.3-.85q0-11.06.1-22.11l11.26-.23-.05.36c0,5.72.25,11.44-.08,17.14-.19,3.32.68,5.17,4.06,5.54Z"/><path class="cls-11" d="M182.54,348.79c5.94,0,9.57,4,7.75,8.49-1.6,4-5.22,4.24-8.64,4.18-4.62-.1-7.23-2.3-7.84-5.88C173.12,351.55,176.69,348.77,182.54,348.79Z"/><path class="cls-6" d="M111.29,314.52q.09,10.71.19,21.41c-3.74.81-7.53.19-11.28.4v-22.5l-.1-.21,10.4.22Z"/><path class="cls-2" d="M112.11,336.21a.8.8,0,0,1,.75,0C112.6,336.58,112.35,336.55,112.11,336.21Z"/><path class="cls-15" d="M220.61,123.87q0,8.7.07,17.41,0,7.53-.05,15.07c-.92,9-2.08,17.83-5.43,26.31-6.28,15.9-16.93,27.91-31.6,36.51-1.34.79-3,1.17-3.85,2.67-5.53,1.75-11.09,3.45-16.61,5.27-5.93,2-11.71,1.11-17.54-.52-21-5.86-36-19.05-46.07-38.06-3.84-7.28-5.43-15.4-6.61-23.56-2.51-17.42-1.26-34.94-1.57-52.42a6.08,6.08,0,0,1,.77-3.83c7.86,0,15.63-.46,23.21-2.88,9-2.89,16.14-8.44,22.26-15.49,7.62-8.77,8.76-8.74,15.83.18,7.85,9.88,18.46,14.87,30.56,17.1a83.79,83.79,0,0,0,21.05.68c10.07-.7,15.31,4,15.52,14C220.56,122.81,220.59,123.34,220.61,123.87Z"/><path class="cls-10" d="M132.06,283.2c-7.43-1.1-13.94-4.6-20.57-7.8q-.19-16.69-.38-33.39.18-9.67.35-19.35c6.48,1.78,12.61,4.72,19.33,5.77,2,.31,1.23,2.4,1.24,3.71Q132.09,257.67,132.06,283.2Z"/><path class="cls-2" d="M191.15,313.51l-11.26.23q-.12-19.61-.23-39.23.14-13.72.28-27.45c0-1.72.14-3.44.22-5.16,1.81,5.19,6.88,5.87,11,7.91Z"/><path class="cls-10" d="M70.27,157.13l-.43-.72C70.22,156.51,70.45,156.7,70.27,157.13Z"/><path class="cls-11" d="M111.11,242q.19,16.69.38,33.39-.09,19.14-.2,38.3l-.79.14-10.4-.22,0-63.77C104.27,247.9,109.29,247.19,111.11,242Z"/><path class="cls-12" d="M110.5,313.84l.79-.14v.82Z"/></g></g></svg>