<svg xmlns="http://www.w3.org/2000/svg" viewBox="0 0 311.26 510.73"><defs><style>.cls-1{fill:#fff;}.cls-2{fill:#d9d72a;}.cls-3{fill:#e4e024;}.cls-4{fill:#e4e025;}.cls-5{fill:#d9d72b;}</style></defs><g id="Capa_2" data-name="Capa 2"><g id="Capa_1-2" data-name="Capa 1"><path class="cls-1" d="M155.87,391.26c-1.49,0-3-.15-4.47-.06-35.8,2.33-62.06,37.63-54,72.57,6.39,27.71,31.5,47.84,58.48,46.88,1.49,0,3,.14,4.47,0,36.07-2.39,62.15-37.77,53.85-73.05C207.74,410.19,182.66,390.25,155.87,391.26Z"/><path class="cls-2" d="M155.72,203.13c8.5-7.4,17.4-14.39,25.42-22.27,19.38-19.09,11-51.7-15-59.59a46.43,46.43,0,0,0-10.26-1.71q0-59.78,0-119.56h15c6.56,2.25,13.52,2.44,20.24,4,61.51,14,110.2,66.36,118.52,128.59,8,59.61-12.66,108.15-58.5,146.48-11,9.16-21.74,18.54-32.7,27.7a6.84,6.84,0,0,0-2.72,5.92c.11,14.79,0,29.58.09,44.37,0,2.61,0,4.25-3.57,4.21-18.77-.23-37.55-.19-56.32-.25q0-23.89,0-47.8Q155.8,258.15,155.72,203.13Z"/><path class="cls-3" d="M155.86,0q0,59.78,0,119.56c-22.69,1.92-35.91,16.27-35.92,39,0,12.06,0,12.06-12.07,12.06-34.24,0-68.48,0-102.72.08-3.73,0-4.93-.72-5.06-4.8C-1,130.29,7,97.24,27.51,67.85c26.52-38,63-60,108.83-66.71,1.23-.18,2.74.38,3.56-1.14Z"/><path class="cls-3" d="M155.72,203.13q.08,55,.14,110.06,0,23.9,0,47.8c-18.94.06-37.89.08-56.83.21-2.43,0-3.08-.85-3.07-3.17q.07-50.85,0-101.71a5,5,0,0,1,1.93-4.27Q126.85,227.63,155.72,203.13Z"/><path class="cls-4" d="M155.87,510.65c-27,1-52.09-19.17-58.48-46.88-8-34.94,18.21-70.24,54-72.57,1.48-.09,3,0,4.47.06Z"/><path class="cls-5" d="M155.87,510.65V391.26c26.79-1,51.87,18.93,58.32,46.38,8.3,35.28-17.78,70.66-53.85,73.05C158.85,510.79,157.36,510.67,155.87,510.65Z"/></g></g></svg>