<svg xmlns="http://www.w3.org/2000/svg" viewBox="0 0 536.44 1055.41"><defs><style>.cls-1{fill:#fffcfb;}.cls-2{fill:#0fb1d7;}.cls-3{fill:#fddeaf;}.cls-4{fill:#fff;}.cls-5{fill:#b8b8b8;}.cls-6{fill:#86898d;}</style></defs><g id="Capa_2" data-name="Capa 2"><g id="Capa_1-2" data-name="Capa 1"><rect class="cls-1" x="0.05" y="129.75" width="536.39" height="798.13"/><path class="cls-2" d="M10.27,324a35.6,35.6,0,0,0,5-2.93c3.55-3,6.22-6.07,3.08-10.4-1.75-2.41-1.86-5.3-1.85-8.11.07-12.33,0-24.66.05-37,0-14.16,12.29-23.48,30.93-23.49H372.9c18.53,0,30.55,9.12,30.59,23.19q.06,18.87,0,37.75c-.06,13.11-12.21,22.24-29.64,22.25q-163.69,0-327.38,0c-4.22,0-8.37-.18-12.16-1.67a8.08,8.08,0,0,0-5.72.15c-5.57,1.71-11.36,1.68-17.19,1.35Z"/><rect class="cls-3" x="0.03" y="129.75" width="536.33" height="81.65"/><path class="cls-4" d="M30.11,152.89a4.24,4.24,0,0,1,1.81,1.54,1.38,1.38,0,0,1-.09,1.74,3.58,3.58,0,0,1-.27.29l-9.65,9.64c-.17.17-.16.25,0,.42q4.86,4.84,9.7,9.7a1.43,1.43,0,0,1,.36,1.84,4.58,4.58,0,0,1-1.49,1.48,1.36,1.36,0,0,1-1.59-.14l-.27-.25L17,167.48a1.5,1.5,0,0,1,0-2.35q5.85-5.85,11.69-11.69a2.86,2.86,0,0,1,.83-.55Z"/><path class="cls-2" d="M516.43,455.28a36,36,0,0,1-5-2.76c-3.55-2.8-6.22-5.71-3.08-9.79,1.75-2.27,1.86-5,1.85-7.62-.07-11.61,0-23.22-.05-34.82,0-13.33-12.29-22.1-30.93-22.11H153.8c-18.53,0-30.55,8.59-30.59,21.83q-.06,17.76,0,35.53c.06,12.34,12.21,20.93,29.64,20.93q163.7,0,327.38,0c4.22,0,8.37-.17,12.16-1.58a8.54,8.54,0,0,1,5.72.14c5.58,1.61,11.36,1.58,17.19,1.27Z"/><path class="cls-2" d="M10.27,591.28a34.66,34.66,0,0,0,5-2.93c3.55-3,6.22-6.07,3.08-10.4-1.75-2.41-1.86-5.29-1.85-8.1.07-12.33,0-24.67.05-37,0-14.16,12.29-23.48,30.93-23.48q162.69,0,325.38,0c18.53,0,30.55,9.13,30.59,23.2q.06,18.87,0,37.75c-.06,13.11-12.21,22.24-29.64,22.24q-163.69,0-327.38,0c-4.22,0-8.37-.18-12.16-1.68a8.14,8.14,0,0,0-5.72.15c-5.57,1.72-11.36,1.68-17.19,1.35Z"/><path class="cls-2" d="M516.43,722.54a35,35,0,0,1-5-2.75c-3.55-2.8-6.22-5.72-3.08-9.79,1.75-2.27,1.86-5,1.85-7.63-.07-11.61,0-23.21-.05-34.82,0-13.32-12.29-22.1-30.93-22.1H153.8c-18.53,0-30.55,8.59-30.59,21.83q-.06,17.78,0,35.53c.06,12.34,12.21,20.94,29.64,20.94q163.7,0,327.38,0c4.22,0,8.37-.17,12.16-1.57a8.54,8.54,0,0,1,5.72.14c5.58,1.61,11.36,1.58,17.19,1.27Z"/><path class="cls-2" d="M20.05,858.55a35.16,35.16,0,0,0,5.05-2.93c3.55-3,6.22-6.07,3.08-10.4-1.75-2.41-1.87-5.3-1.85-8.11.07-12.33,0-24.66,0-37,0-14.16,12.3-23.48,30.94-23.48q162.69,0,325.38,0c18.52,0,30.54,9.12,30.59,23.19q.06,18.88,0,37.75c0,13.11-12.2,22.25-29.63,22.25q-163.69,0-327.39,0c-4.21,0-8.36-.18-12.15-1.67a8.08,8.08,0,0,0-5.72.15C32.8,860,27,860,21.19,859.67Z"/><path class="cls-5" d="M79,0H457.44a79,79,0,0,1,79,79v50.75a0,0,0,0,1,0,0H0a0,0,0,0,1,0,0V79A79,79,0,0,1,79,0Z"/><path class="cls-5" d="M0,925.66H536.39a0,0,0,0,1,0,0v50.75a79,79,0,0,1-79,79H79a79,79,0,0,1-79-79V925.66A0,0,0,0,1,0,925.66Z"/><path class="cls-6" d="M215.82,1008.71c-6.95-2.42-8.26-6.49-6.59-12.16,1.75-6,6.82-6,12.72-6q46.08.13,92.14,0c6.53,0,11.65.8,13.32,6.73,1.52,5.36-.31,9.25-6.83,11.45Z"/></g></g></svg>