<svg xmlns="http://www.w3.org/2000/svg" viewBox="0 0 263.26 263.26"><defs><style>.cls-1{fill:#fff;}.cls-2{fill:#090909;}.cls-3{fill:#090908;}.cls-4{fill:#0c0c0c;}.cls-5{fill:#0c0b0b;}.cls-6{fill:#0a0a0a;}</style></defs><g id="Capa_2" data-name="Capa 2"><g id="Capa_1-2" data-name="Capa 1"><path class="cls-1" d="M143.73,263.23H120.14c0-.94-.09-1.88-.09-2.81q0-56.78,0-113.54c0-2.4-.45-3.13-3-3.12q-56.78.13-113.54,0c-2.21,0-3,.37-3,2.83q.14,58.3.07,116.62c-1.06-.46-.48-1.39-.48-2.05,0-10.6,0-21.19,0-31.78q0-113.55,0-227.1C.07.46.46.08,2.3.08Q131.75.16,261.18.16c.66,0,1.59-.58,2.05.48Q204.93.64,146.61.59c-2.1,0-2.86.3-2.85,2.7q.13,57,0,114.06c0,2.37.7,2.75,2.86,2.74q56.9-.09,113.8,0c.93,0,1.87.06,2.81.09v23.59c-7.26,0-14.52.12-21.78.05-1.68,0-2.19.43-2.17,2.13.09,6.58,0,13.16.07,19.74,0,1.62-.35,2.2-2.1,2.17-6.57-.11-13.16-.12-19.73,0-1.81,0-2.06-.62-2-2.19.07-6.4-.07-12.81.08-19.22.05-2.15-.56-2.64-2.67-2.64q-33.18.14-66.38,0c-2.39,0-2.74.73-2.73,2.87q.09,56.9,0,113.79C143.82,261.35,143.76,262.29,143.73,263.23ZM120,60.39c0-19.15,0-38.29,0-57.43,0-2-.51-2.37-2.4-2.37Q60.26.68,2.83.59C1.05.59.59,1,.59,2.81q.09,57.44,0,114.86c0,1.86.36,2.43,2.35,2.42q57.3-.09,114.6,0c2,0,2.56-.48,2.55-2.53C120,98.5,120,79.45,120,60.39Z"/><path class="cls-2" d="M263.23,120.14c-.94,0-1.88-.09-2.81-.09q-56.91,0-113.8,0c-2.16,0-2.87-.37-2.86-2.74q.13-57,0-114.06c0-2.4.75-2.7,2.85-2.7q58.3.09,116.62.05ZM203.47,24.53q-16.78,0-33.57,0c-1.27,0-2.17-.11-2.17,1.78q.12,34.08,0,68.17c0,1.42.48,1.65,1.76,1.65q33.94,0,67.91,0c1.65,0,1.93-.53,1.93-2q-.07-33.7,0-67.4c0-1.86-.59-2.22-2.32-2.21C225.85,24.56,214.66,24.53,203.47,24.53Z"/><path class="cls-2" d="M.64,263.23q0-58.31-.07-116.62c0-2.46.77-2.84,3-2.83q56.76.09,113.54,0c2.56,0,3,.72,3,3.12q-.12,56.76,0,113.54c0,.93.06,1.87.09,2.81Zm59.48-24.08c11.19,0,22.38,0,33.57,0,1.75,0,2.46-.19,2.45-2.27q-.14-33.43,0-66.88c0-1.71-.29-2.3-2.17-2.3q-33.57.12-67.14,0c-2,0-2.33.59-2.33,2.42q.11,33.32,0,66.63c0,2.17.75,2.41,2.59,2.4C38.08,239.11,49.1,239.15,60.12,239.15Z"/><path class="cls-3" d="M143.73,263.23c0-.94.09-1.88.09-2.81q0-56.9,0-113.79c0-2.14.34-2.88,2.73-2.87q33.19.17,66.38,0c2.11,0,2.72.49,2.67,2.64-.15,6.41,0,12.82-.08,19.22,0,1.57.23,2.22,2,2.19,6.57-.12,13.16-.11,19.73,0,1.75,0,2.12-.55,2.1-2.17-.08-6.58,0-13.16-.07-19.74,0-1.7.49-2.14,2.17-2.13,7.26.07,14.52,0,21.78-.05v71.8c-23,0-46-.06-69,0-2.36,0-2.8-.66-2.75-2.84.15-6.24,0-12.48.11-18.72,0-2.1-.64-2.52-2.59-2.49-6.4.12-12.82.09-19.23,0-1.52,0-2,.3-2,1.95q.12,34.88.09,69.75Z"/><path class="cls-1" d="M167.83,263.23q0-34.88-.09-69.75c0-1.65.53-2,2-1.95,6.41.08,12.83.11,19.23,0,1.95,0,2.64.39,2.59,2.49-.15,6.24,0,12.48-.11,18.72-.05,2.18.39,2.85,2.75,2.84,23-.1,46,0,69,0v23.59c-7.13.48-14.27.16-21.41.16-2,0-2.59.48-2.56,2.54.07,7.13-.07,14.27-.14,21.41H215.53c0-7.27-.07-14.53,0-21.8,0-1.71-.48-2.15-2.14-2.13-6.5.09-13,.11-19.49,0-1.9,0-2.45.46-2.43,2.41.09,7.18,0,14.35-.07,21.53Z"/><path class="cls-4" d="M191.43,263.23c0-7.18.16-14.35.07-21.53,0-1.95.53-2.44,2.43-2.41,6.5.12,13,.1,19.49,0,1.66,0,2.16.42,2.14,2.13-.1,7.27,0,14.53,0,21.8Z"/><path class="cls-5" d="M239.12,263.23c.07-7.14.21-14.28.14-21.41,0-2.06.58-2.54,2.56-2.54,7.14,0,14.28.32,21.41-.16,0,7.53,0,15,0,22.57,0,1.28-.29,1.59-1.57,1.57C254.17,263.19,246.65,263.23,239.12,263.23Z"/><path class="cls-6" d="M120,60.39c0,19.06,0,38.11,0,57.17,0,2-.54,2.53-2.55,2.53q-57.3-.09-114.6,0c-2,0-2.35-.56-2.35-2.42Q.68,60.25.59,2.81C.59,1,1.05.59,2.83.59q57.44.09,114.86,0c1.89,0,2.41.41,2.4,2.37C120,22.1,120,41.24,120,60.39Zm-95.51-.27c0,11.28,0,22.56,0,33.84,0,1.57.26,2.18,2.05,2.17q33.83-.1,67.66,0c1.67,0,1.92-.54,1.92-2q-.08-33.82,0-67.66c0-1.63-.48-2-2-2q-33.7.07-67.41,0c-1.86,0-2.22.6-2.21,2.32C24.56,37.91,24.53,49,24.53,60.12Z"/><path class="cls-1" d="M203.47,24.53c11.19,0,22.38,0,33.57,0,1.73,0,2.32.35,2.32,2.21q-.11,33.71,0,67.4c0,1.5-.28,2-1.93,2q-34-.09-67.91,0c-1.28,0-1.76-.23-1.76-1.65q.06-34.09,0-68.17c0-1.89.9-1.78,2.17-1.78Q186.69,24.56,203.47,24.53Zm12,36.12c0-3.5,0-7,0-10.5,0-1.18-.09-1.85-1.59-1.83q-10.37.12-20.73,0c-1.42,0-1.69.52-1.68,1.79q.08,10.24,0,20.48c0,1.36.46,1.74,1.77,1.73,6.83,0,13.65-.07,20.48,0,1.58,0,1.8-.63,1.77-2C215.46,67.13,215.51,63.89,215.51,60.65Z"/><path class="cls-1" d="M60.12,239.15c-11,0-22,0-33.06,0-1.84,0-2.6-.23-2.59-2.4q.13-33.32,0-66.63c0-1.83.32-2.43,2.33-2.42q33.57.12,67.14,0c1.88,0,2.18.59,2.17,2.3q-.08,33.43,0,66.88c0,2.08-.7,2.28-2.45,2.27C82.5,239.11,71.31,239.15,60.12,239.15Zm.18-23.64c3.42,0,6.83,0,10.24,0,1.28,0,1.8-.28,1.79-1.69-.07-6.82,0-13.65,0-20.47,0-1.21-.18-1.87-1.65-1.86-6.91.07-13.82,0-20.73,0-1.21,0-1.62.35-1.61,1.59.05,6.91.06,13.82,0,20.73,0,1.39.44,1.72,1.75,1.69C53.48,215.46,56.89,215.51,60.3,215.51Z"/><path class="cls-1" d="M24.53,60.12c0-11.1,0-22.21,0-33.32,0-1.72.35-2.32,2.21-2.32q33.71.11,67.41,0c1.53,0,2,.32,2,2q-.08,33.83,0,67.66c0,1.49-.25,2-1.92,2q-33.82-.09-67.66,0c-1.79,0-2.05-.6-2.05-2.17C24.55,82.68,24.53,71.4,24.53,60.12Zm23.82.28c0,3.32,0,6.65,0,10,0,1.33.19,2,1.77,2,6.82-.08,13.64-.06,20.46,0,1.34,0,1.77-.39,1.76-1.74q-.07-10.23,0-20.47c0-1.27-.26-1.8-1.68-1.79-6.91.07-13.81.06-20.72,0-1.22,0-1.62.34-1.59,1.58C48.4,53.4,48.35,56.9,48.35,60.4Z"/><path class="cls-4" d="M215.51,60.65c0,3.24,0,6.48,0,9.72,0,1.33-.19,2-1.77,2-6.83-.08-13.65-.06-20.48,0-1.31,0-1.78-.37-1.77-1.73q.09-10.25,0-20.48c0-1.27.26-1.8,1.68-1.79q10.35.1,20.73,0c1.5,0,1.61.65,1.59,1.83C215.48,53.65,215.51,57.15,215.51,60.65Z"/><path class="cls-4" d="M60.3,215.51c-3.41,0-6.82,0-10.23,0-1.31,0-1.76-.3-1.75-1.69.07-6.91.06-13.82,0-20.73,0-1.24.4-1.6,1.61-1.59,6.91,0,13.82.06,20.73,0,1.47,0,1.65.65,1.65,1.86,0,6.82-.06,13.65,0,20.47,0,1.41-.51,1.71-1.79,1.69C67.13,215.47,63.72,215.51,60.3,215.51Z"/><path class="cls-4" d="M48.35,60.4c0-3.5,0-7,0-10.49,0-1.24.37-1.59,1.59-1.58,6.91.05,13.81.06,20.72,0,1.42,0,1.69.52,1.68,1.79q-.07,10.23,0,20.47c0,1.35-.42,1.75-1.76,1.74-6.82,0-13.64-.07-20.46,0-1.58,0-1.8-.63-1.77-2C48.4,67.05,48.35,63.72,48.35,60.4Z"/></g></g></svg>