<svg xmlns="http://www.w3.org/2000/svg" viewBox="0 0 390.98 408.57"><defs><style>.cls-1{fill:#daeaf9;}.cls-2{fill:#c4ddf4;}.cls-3{fill:#4760a2;}.cls-4{fill:#f39428;}.cls-5{fill:#f8af20;}.cls-6{fill:#e83f4b;}.cls-7{fill:#5abceb;}.cls-8{fill:#99d4df;}.cls-9{fill:#e8414d;}.cls-10{fill:#52b479;}.cls-11{fill:#db7430;}.cls-12{fill:#f8ad1e;}.cls-13{fill:#465fa1;}.cls-14{fill:#ed971a;}.cls-15{fill:#ef841a;}</style></defs><g id="Capa_2" data-name="Capa 2"><g id="Capa_1-2" data-name="Capa 1"><path class="cls-1" d="M109.32,0H351.16c2.29,1.31,2.45,3.43,2.45,5.8q-.08,43.92,0,87.83a12.53,12.53,0,0,0,.74,5.46c-1,1.44-.51,3.08-.51,4.62q0,99.43,0,198.86c0,7-.43,7.35-7.53,7.39-6.25,0-12.49.11-18.73.16-1.72-.07-3.44-.21-5.16-.21q-102.51,0-205,0c-2.66,0-5.31.08-8,.12a11.09,11.09,0,0,1-1.68-6q.07-149.26,0-298.51A8.08,8.08,0,0,1,109.32,0ZM235.43,89.37l0-49c0-6.67-.16-6.82-7-6.82H222c-5.58,0-6.46.88-6.47,6.44q0,24.7,0,49.4l-11.4-.07c0-5.45,0-10.9,0-16.35,0-5.29-.58-5.82-6-5.83q-3.8,0-7.58,0c-5.44,0-6,.54-6,5.83,0,5.45,0,10.9,0,16.35l-11.68,0q0-17.52,0-35.05c0-4.87-.58-5.39-5.54-5.42-2.93,0-5.86.15-8.77,0-3.75-.24-5.24,1.28-5.2,5.08.13,11.82,0,23.64,0,35.45l-11.8,0c0-17-.08-34,0-51,0-3.44-1.27-4.87-4.68-4.71-3.06.14-6.12,0-9.18,0-4.92,0-5.53.61-5.54,5.46q0,25.12,0,50.24a37.12,37.12,0,0,0-4.36.23c-2.36.39-4.36,1.61-5.07,4a6.06,6.06,0,0,0,1.3,6.32c1.66,1.7,3.82,1.63,6,1.63H237.46a19.77,19.77,0,0,0,2.78-.1,5.19,5.19,0,0,0,4.81-5,5.41,5.41,0,0,0-3.36-6.12C239.69,89.33,237.55,89.42,235.43,89.37ZM307.36,251c0-7.83,0-15.67,0-23.5,0-4.22-1.3-5.56-5.4-5.58q-16.55-.09-33.07,0c-4.07,0-5.46,1.44-5.47,5.55-.05,11,0,22,0,33.06,0,3.63,1.52,5.42,5.24,5.38,8-.09,15.93-.08,23.9-.11.05,3.45.11,6.9.13,10.35,0,3.23,1.51,4.9,4.86,4.88q9.94-.07,19.9,0c3.46,0,5.14-1.48,5.11-5q-.09-10,0-19.9c0-3.29-1.49-4.91-4.8-4.93S310.8,251.1,307.36,251ZM115,172.28c-1.26,23.58,19.44,45.6,43.63,46.42,26.2.89,46.95-17.15,49.42-42.91.22-2.31.08-3.73-2.93-3.63-6,.22-12,.14-18,0-2.1,0-2.61.83-2.85,2.79a22.9,22.9,0,0,1-29.76,19.31c-10.71-3.38-15.46-11.42-16.68-22,2.24-14.44,7.24-19.86,21.57-23.07,1.87-.42,1.89-1.47,1.89-2.85,0-4.65,0-9.3,0-13.95,0-7.22,0-7.22-7.23-6.26C131.91,129.08,113.75,150.52,115,172.28Zm93.42-11.87c3.05,0,6.1,0,9.15,0,1.18,0,2.6.13,2.41-1.74-.25-2.5-.39-5-.88-7.47-4-20.47-23.29-37.15-43-37.29-2.74,0-3,.65-3,2.9.09,5.71.1,11.41,0,17.12-.05,2.24.53,3.12,3,3.47,9.31,1.33,15.63,6.6,19.1,15.38,1,2.47-.22,6.2,2.51,7.34,2.39,1,5.49.27,8.27.3Zm-36.15,91.71q-22.72,0-45.44,0c-5,0-7.19,1.85-7.19,5.93,0,3.8,2.58,6.05,7.27,6.06q45.26,0,90.49,0c4.56,0,7.54-2.47,7.59-5.93.05-3.73-2.83-6.05-7.68-6.05Q194.82,252.1,172.29,252.12Zm-.19,32.08q22.71,0,45.43,0c4.61,0,7.39-2.23,7.47-5.84s-2.9-6.13-7.38-6.13q-45.23-.08-90.47,0c-5,0-7.58,2.35-7.48,6.28s2.23,5.7,7.4,5.7Q149.59,284.24,172.1,284.2Zm.15-40.7h19.53c8.9,0,17.79,0,26.69,0,3.73,0,6.31-2.33,6.53-5.56.19-2.85-2.23-5.63-5.59-6.28a17.71,17.71,0,0,0-3.18-.14H128.58a14,14,0,0,0-5.1.66,5.4,5.4,0,0,0-3.79,6.21,5.2,5.2,0,0,0,5.15,5.07,35.78,35.78,0,0,0,3.59.08ZM280.13,125.18c-14,0-27.94,0-41.9,0-4.18,0-6.69,2.25-6.8,5.7-.13,3.63,2.44,6,6.75,6.27.67,0,1.33,0,2,0h79.41a12.5,12.5,0,0,0,5.11-.63,5.54,5.54,0,0,0,3.63-6,5.44,5.44,0,0,0-4.72-5.19,21.88,21.88,0,0,0-4-.18Q299.89,125.17,280.13,125.18Zm-.19,52.7h39.84a12,12,0,0,0,5.08-.7,5.88,5.88,0,0,0-1-11.09,15.7,15.7,0,0,0-3.57-.21H239.44a16.68,16.68,0,0,0-3.17.17A5.86,5.86,0,0,0,235,177.22a11.73,11.73,0,0,0,5.09.67Zm-.49-20.49h40.23a21.84,21.84,0,0,0,4-.2,5.35,5.35,0,0,0,4.68-5.18,5.55,5.55,0,0,0-3.64-6,12.9,12.9,0,0,0-5.09-.64H240.33a12.2,12.2,0,0,0-5.47.76,5.54,5.54,0,0,0-3.36,6.16,5.4,5.4,0,0,0,4.55,4.87,22.67,22.67,0,0,0,4.37.22Q259.94,157.41,279.45,157.39Zm.48,40.7H313c3.32,0,6.64.06,9.95-.13a5.32,5.32,0,0,0,5.39-5.33,5.4,5.4,0,0,0-4.48-6.13,19,19,0,0,0-4.33-.4q-39.64,0-79.27,0a12.76,12.76,0,0,0-5.1.64,5.52,5.52,0,0,0-3.68,6,5.45,5.45,0,0,0,4.66,5.21,21,21,0,0,0,4,.2Q260,198.11,279.93,198.09ZM294.66,60.81c8.76,0,17.52,0,26.28,0,4.81,0,7.41-2.13,7.45-5.83s-2.67-6.1-7.31-6.12q-26.28-.09-52.56,0c-4.67,0-7.42,2.34-7.48,6s2.78,6,7.74,6C277.41,60.83,286,60.81,294.66,60.81Zm-.06-32.19c-8.63,0-17.26,0-25.88,0-4.93,0-7.79,2.33-7.69,6.07s2.85,5.87,7.57,5.88q26.07.08,52.15,0c4.95,0,7.73-2.35,7.64-6.18-.08-3.68-2.71-5.76-7.51-5.78C312.12,28.59,303.36,28.62,294.6,28.62Zm.07,40.7c-8.75,0-17.51,0-26.27,0-4.62,0-7.41,2.35-7.36,6s2.79,6,7.48,6q26.28.07,52.55,0c4.67,0,7.36-2.4,7.33-6.09s-2.69-5.83-7.45-5.86C312.19,69.29,303.43,69.32,294.67,69.32Zm-.11,32.19v0c9.29,0,18.58,0,27.86,0,3.38,0,5.47-1.87,5.89-5.27.4-3.21-1.66-5.73-5.15-6.44a11.73,11.73,0,0,0-2.37-.19c-17.38,0-34.77,0-52.15,0-4.85,0-7.73,2.51-7.59,6.26.13,3.59,2.86,5.67,7.63,5.69C277.31,101.53,285.93,101.51,294.56,101.51Z"/><path class="cls-2" d="M91.66,28.83c0-7.64.12-15.28,0-22.93,0-2.4.5-4.4,2.45-5.9h15.16a8.08,8.08,0,0,0-1.63,5.55q.06,149.25,0,298.51a11.09,11.09,0,0,0,1.68,6c-4.25.06-8.5.22-12.74.15-3.34-.06-5.17-1.75-4.94-5.3.09-1.32,0-2.65,0-4Z"/><path class="cls-3" d="M354.31,99.09c19.45,27.08,31.4,57.14,35.21,90.28,6.17,53.81-7.14,102.44-40.75,144.88-33.12,41.82-76.6,66.31-129.65,72.77-51.52,6.27-98.27-6.55-140.22-37-1.18-.86-2.24-1.87-3.35-2.81,1.59-.06,3.18-.18,4.77-.18H293c5.22,0,6.36-1.12,6.37-6.25,0-7.18,0-14.37,0-21.55,7.24-.76,14.5-.16,21.76-.32,5.36-.13,6.44-1.14,6.45-6.58,0-7.4,0-14.8,0-22.2,6.24-.05,12.48-.13,18.73-.16,7.1,0,7.53-.43,7.53-7.39q0-99.43,0-198.86C353.8,102.17,353.27,100.53,354.31,99.09Z"/><path class="cls-4" d="M327.51,310.12c0,7.4.05,14.8,0,22.2,0,5.44-1.09,6.45-6.45,6.58-7.26.16-14.52-.44-21.77.32-1.45-1.41-3.28-.8-4.93-.8q-90,0-180.06,0c-11,0-22-.74-33,.69-1.5-2.76-1.6-5.73-1.6-8.81q.06-145.4,0-290.81c0-3.57-.2-7.16.79-10.66l11.08,0,0,272.07c0,1.33.08,2.66,0,4-.23,3.55,1.6,5.24,4.94,5.3,4.24.07,8.49-.09,12.74-.15,2.66,0,5.31-.12,8-.12q102.51,0,205,0C324.07,309.91,325.79,310.05,327.51,310.12Z"/><path class="cls-5" d="M137.89,172.24c1.22,10.63,6,18.67,16.68,22A22.9,22.9,0,0,0,184.33,175c.24-2,.75-2.82,2.85-2.79,6,.11,12,.19,18,0,3-.1,3.15,1.32,2.93,3.63-2.47,25.76-23.22,43.8-49.42,42.91-24.19-.82-44.89-22.84-43.63-46.42Z"/><path class="cls-6" d="M292.49,265.83c-8,0-15.93,0-23.9.11-3.72,0-5.26-1.75-5.24-5.38.06-11,0-22,0-33.06,0-4.11,1.4-5.54,5.47-5.55q16.53-.09,33.07,0c4.1,0,5.37,1.36,5.4,5.58.05,7.83,0,15.67,0,23.5-3.41.09-6.82.23-10.23.25-2.93,0-4.35,1.45-4.42,4.31Q292.59,260.72,292.49,265.83Z"/><path class="cls-7" d="M141.53,89.33l11.8,0a171.77,171.77,0,0,0,19.52,0l11.68,0a194.14,194.14,0,0,0,19.6,0l11.4.07,19.9,0c2.12,0,4.26,0,6.26.86a5.41,5.41,0,0,1,3.36,6.12,5.19,5.19,0,0,1-4.81,5,19.77,19.77,0,0,1-2.78.1H119.94c-2.14,0-4.3.07-6-1.63a6.06,6.06,0,0,1-1.3-6.32c.71-2.35,2.71-3.57,5.07-4a37.12,37.12,0,0,1,4.36-.23A170,170,0,0,0,141.53,89.33Z"/><path class="cls-8" d="M208.44,160.41h-2.39c-2.78,0-5.88.69-8.27-.3-2.73-1.14-1.54-4.87-2.51-7.34-3.47-8.78-9.79-14.05-19.1-15.38-2.49-.35-3.07-1.23-3-3.47.1-5.71.09-11.41,0-17.12,0-2.25.27-2.92,3-2.9,19.67.14,38.94,16.82,43,37.29.49,2.45.63,5,.88,7.47.19,1.87-1.23,1.73-2.41,1.74C214.54,160.43,211.49,160.41,208.44,160.41Z"/><path class="cls-9" d="M137.89,172.24l-22.87,0c-1.27-21.76,16.89-43.2,39.1-46.17,7.23-1,7.23-1,7.23,6.26,0,4.65,0,9.3,0,13.95,0,1.38,0,2.43-1.89,2.85C145.13,152.38,140.13,157.8,137.89,172.24Z"/><path class="cls-7" d="M172.29,252.12q22.52,0,45,0c4.85,0,7.73,2.32,7.68,6.05,0,3.46-3,5.92-7.59,5.93q-45.24.06-90.49,0c-4.69,0-7.27-2.26-7.27-6.06,0-4.08,2.14-5.92,7.19-5.93Q149.56,252.08,172.29,252.12Z"/><path class="cls-7" d="M172.1,284.2q-22.51,0-45,0c-5.17,0-7.3-1.7-7.4-5.7s2.5-6.27,7.48-6.28q45.24-.07,90.47,0c4.48,0,7.47,2.65,7.38,6.13s-2.86,5.84-7.47,5.84Q194.82,284.24,172.1,284.2Z"/><path class="cls-7" d="M172.25,243.5H128.43a35.78,35.78,0,0,1-3.59-.08,5.2,5.2,0,0,1-5.15-5.07,5.4,5.4,0,0,1,3.79-6.21,14,14,0,0,1,5.1-.66h87.65a17.71,17.71,0,0,1,3.18.14c3.36.65,5.78,3.43,5.59,6.28-.22,3.23-2.8,5.54-6.53,5.56-8.9.07-17.79,0-26.69,0Z"/><path class="cls-9" d="M280.13,125.18q19.75,0,39.51,0a21.88,21.88,0,0,1,4,.18,5.44,5.44,0,0,1,4.72,5.19,5.54,5.54,0,0,1-3.63,6,12.5,12.5,0,0,1-5.11.63H240.18c-.67,0-1.33,0-2,0-4.31-.26-6.88-2.64-6.75-6.27.11-3.45,2.62-5.68,6.8-5.7C252.19,125.15,266.16,125.18,280.13,125.18Z"/><path class="cls-9" d="M279.94,177.88H240.11a11.73,11.73,0,0,1-5.09-.67,5.86,5.86,0,0,1,1.25-11.17,16.68,16.68,0,0,1,3.17-.17H320.3a15.7,15.7,0,0,1,3.57.21,5.88,5.88,0,0,1,1,11.09,12,12,0,0,1-5.08.7Z"/><path class="cls-9" d="M279.45,157.39q-19.51,0-39,0a22.67,22.67,0,0,1-4.37-.22,5.4,5.4,0,0,1-4.55-4.87,5.54,5.54,0,0,1,3.36-6.16,12.2,12.2,0,0,1,5.47-.76H319.6a12.9,12.9,0,0,1,5.09.64,5.55,5.55,0,0,1,3.64,6,5.35,5.35,0,0,1-4.68,5.18,21.84,21.84,0,0,1-4,.2Z"/><path class="cls-9" d="M279.93,198.09q-19.92,0-39.83,0a21,21,0,0,1-4-.2,5.45,5.45,0,0,1-4.66-5.21,5.52,5.52,0,0,1,3.68-6,12.76,12.76,0,0,1,5.1-.64q39.63,0,79.27,0a19,19,0,0,1,4.33.4,5.4,5.4,0,0,1,4.48,6.13,5.32,5.32,0,0,1-5.39,5.33c-3.31.19-6.63.13-9.95.13Z"/><path class="cls-8" d="M235.43,89.37l-19.9,0q0-24.7,0-49.4c0-5.56.89-6.42,6.47-6.44h6.37c6.86,0,7,.15,7,6.82Z"/><path class="cls-5" d="M141.53,89.33a170,170,0,0,1-19.42,0q0-25.12,0-50.24c0-4.85.62-5.44,5.54-5.46,3.06,0,6.12.11,9.18,0,3.41-.16,4.7,1.27,4.68,4.71C141.45,55.3,141.52,72.32,141.53,89.33Z"/><path class="cls-10" d="M292.49,265.83q.11-5.11.22-10.24c.07-2.86,1.49-4.29,4.42-4.31,3.41,0,6.82-.16,10.23-.25,3.44.07,6.89.17,10.33.19s4.82,1.64,4.8,4.93q-.08,9.94,0,19.9c0,3.53-1.65,5.05-5.11,5q-10-.07-19.9,0c-3.35,0-4.83-1.65-4.86-4.88C292.6,272.73,292.54,269.28,292.49,265.83Z"/><path class="cls-9" d="M172.85,89.28a171.77,171.77,0,0,1-19.52,0c0-11.81.1-23.63,0-35.45,0-3.8,1.45-5.32,5.2-5.08,2.91.18,5.84,0,8.77,0,5,0,5.53.55,5.54,5.42Q172.86,71.77,172.85,89.28Z"/><path class="cls-11" d="M294.66,60.81c-8.62,0-17.25,0-25.88,0-5,0-7.8-2.26-7.74-6s2.81-6,7.48-6q26.28-.09,52.56,0c4.64,0,7.35,2.44,7.31,6.12s-2.64,5.8-7.45,5.83C312.18,60.84,303.42,60.81,294.66,60.81Z"/><path class="cls-11" d="M294.6,28.62c8.76,0,17.52,0,26.28,0,4.8,0,7.43,2.1,7.51,5.78.09,3.83-2.69,6.16-7.64,6.18q-26.07.06-52.15,0c-4.72,0-7.47-2.25-7.57-5.88s2.76-6.05,7.69-6.07C277.34,28.6,286,28.62,294.6,28.62Z"/><path class="cls-11" d="M294.67,69.32c8.76,0,17.52,0,26.28,0,4.76,0,7.42,2.17,7.45,5.86s-2.66,6.07-7.33,6.09q-26.26.09-52.55,0c-4.69,0-7.44-2.33-7.48-6s2.74-6,7.36-6C277.16,69.29,285.92,69.32,294.67,69.32Z"/><path class="cls-11" d="M294.56,101.51c-8.63,0-17.25,0-25.88,0-4.77,0-7.5-2.1-7.63-5.69-.14-3.75,2.74-6.25,7.59-6.26,17.38,0,34.77,0,52.15,0a11.73,11.73,0,0,1,2.37.19c3.49.71,5.55,3.23,5.15,6.44-.42,3.4-2.51,5.24-5.89,5.27-9.28.08-18.57,0-27.86,0Z"/><path class="cls-10" d="M204.13,89.32a194.14,194.14,0,0,1-19.6,0c0-5.45,0-10.9,0-16.35,0-5.29.57-5.82,6-5.83q3.78,0,7.58,0c5.43,0,6,.54,6,5.83C204.14,78.42,204.13,83.87,204.13,89.32Z"/><path class="cls-12" d="M81.36,339.13c11-1.43,22-.68,33-.69q90-.13,180.06,0c1.65,0,3.48-.61,4.93.8,0,7.18.06,14.37.05,21.55,0,5.13-1.15,6.25-6.37,6.25H80.32c-1.59,0-3.18.12-4.77.18a132.12,132.12,0,0,1-22.91-20.84q0-141.43,0-282.88a19.26,19.26,0,0,1,.82-6.67l11.88-.27q0,55.86.08,111.72,0,82.2,0,164.41c0,4.92,1.45,6.4,6.36,6.47C75,339.19,78.16,339.14,81.36,339.13Z"/><path class="cls-13" d="M36.64,326.71A182.37,182.37,0,0,1,4.61,255q-17.44-83.67,31-154.3a12.84,12.84,0,0,1,1-1.19c.07,1.32.21,2.65.21,4q0,109.65,0,219.31C36.85,324.07,36.71,325.39,36.64,326.71Z"/><path class="cls-14" d="M36.64,326.71c.07-1.32.21-2.64.21-4q0-109.65,0-219.31c0-1.32-.14-2.65-.21-4,.68-11.52.16-23,.29-34.57.08-7.37.84-8.21,8.18-8.19,2.78,0,5.56.07,8.34.12a19.26,19.26,0,0,0-.82,6.67q0,141.44,0,282.88A102.88,102.88,0,0,1,36.64,326.71Z"/><path class="cls-15" d="M81.36,339.13c-3.2,0-6.39.06-9.58,0-4.91-.07-6.36-1.55-6.36-6.47q0-82.21,0-164.41,0-55.86-.08-111.72c0-7.17,0-14.33,0-21.5,0-5.63.74-6.32,6.51-6.31,2.92,0,5.84.07,8.75.11-1,3.5-.79,7.09-.79,10.66q0,145.41,0,290.81C79.76,333.4,79.86,336.37,81.36,339.13Z"/></g></g></svg>