<svg xmlns="http://www.w3.org/2000/svg" viewBox="0 0 511.01 510.86"><defs><style>.cls-1{fill:#52c2ea;}.cls-2{fill:#ebcd94;}.cls-3{fill:#dbd4ae;}.cls-4{fill:#efefef;}.cls-5{fill:#ebce93;}.cls-6{fill:#feffff;}.cls-7{fill:#e76e54;}.cls-8{fill:#e76f54;}.cls-9{fill:#77959e;}.cls-10{fill:#78969f;}</style></defs><g id="Capa_2" data-name="Capa 2"><g id="Capa_1-2" data-name="Capa 1"><path class="cls-1" d="M375.14,510.86H352.19C345.12,509.34,338,508,331,506.27c-20.32-5-38.24-14.89-54.8-27.46a3.9,3.9,0,0,0-.58-.8c-29.77-25.35-47.32-57.24-51.35-96.29-3.61-35.08,4.27-67.59,24.79-96.15,32.82-45.68,77.94-65.81,134-61.27A174.43,174.43,0,0,1,415,231.44c.9.4,1.8.84,2.72,1.2C491.23,261.19,529,340.9,502.62,414.51,484.54,465,448,495.83,395.82,508.09Zm59.5-174c-.44-5.83-3.1-10.77-8.89-13.53-6.53-3.1-12.54-1.9-18,2.7-22.42,18.73-44.9,37.39-67.25,56.2-3.07,2.59-5.26,3.42-8-.27a54.1,54.1,0,0,0-6.29-6.38c-6.92-6.56-16.37-6.65-22.75-.26s-6.34,15.92.33,22.72c9.19,9.36,18.59,18.51,27.76,27.9,2.11,2.16,3.58,2.18,5.78.27,5.37-4.7,10.9-9.23,16.38-13.79q36.94-30.75,73.91-61.46A18,18,0,0,0,434.64,336.87Z"/><path class="cls-2" d="M0,42c1.86-3.49,2.6-7.44,4.81-10.82,6.52-10,15.72-15,27.55-15.09C64.1,16,95.83,16,127.56,16V48c-30.09,0-60.18.07-90.27-.16-4.59,0-5.45,1.49-5.45,5.7q.16,157.35.1,314.69c0,2-.34,4,.91,5.8.84,1,1.58,2.12,2.51,3.05q49.17,49.22,98.39,98.38a39.19,39.19,0,0,0,3,2.53,7.08,7.08,0,0,0,4.3.93l135.11-.13c16.56,12.57,34.48,22.44,54.8,27.46,7,1.73,14.12,3.07,21.19,4.59H27.94a93.84,93.84,0,0,1-9.39-3.11C8.2,503.11,2.94,494.4,0,483.93Z"/><path class="cls-3" d="M395.82,508.09l-5.72,2.77h-15Z"/><path class="cls-4" d="M276.2,478.81l-135.11.13a7.08,7.08,0,0,1-4.3-.93q.08-50.08.22-100.16c0-3-.94-4-4-4q-50.09.21-100.17.21c-1.25-1.78-.91-3.83-.91-5.8q0-157.35-.1-314.69c0-4.21.86-5.74,5.45-5.7,30.09.23,60.18.14,90.27.16,0,5.32.07,10.64.16,15.95.29,17.75,14,31.74,31.68,31.83q48.12.26,96.25,0c17.71-.09,31.37-14,31.68-31.83.09-5.32.1-10.63.15-15.95,30.06,0,60.12,0,90.17-.15,4.41,0,5.58,1.19,5.56,5.57q-.22,85.44-.12,170.86c-56.09-4.54-101.21,15.59-134,61.27-20.52,28.56-28.4,61.07-24.79,96.15,4,39,21.58,70.94,51.35,96.29A3.9,3.9,0,0,1,276.2,478.81Zm-36.75-351q-30.93,0-61.84,0c-10.62,0-17.89,6.44-18,15.82s7.22,16.08,17.7,16.09q62.09,0,124.18,0c10.48,0,17.79-6.69,17.72-16.07s-7.37-15.83-18-15.84Q270.36,127.75,239.45,127.78Zm-16,63.84q-22.93,0-45.88,0c-10.61,0-17.88,6.44-18,15.81s7.23,16.09,17.71,16.1q46.13,0,92.26,0c10.47,0,17.78-6.69,17.72-16.08s-7.37-15.81-18-15.83Q246.43,191.58,223.48,191.62ZM191.06,287.4c5.32,0,10.64.07,16,0,9.34-.17,16.39-7,16.45-15.83s-7-15.93-16.22-16.05q-15.7-.19-31.41,0c-9.3.12-16.26,7.15-16.2,16s7.11,15.66,16.46,15.83C181.09,287.47,186.08,287.4,191.06,287.4ZM112,127.78c-4.15,0-8.3.12-12.44,0-2.67-.11-3.88.6-3.82,3.56q.24,12.44,0,24.88c-.06,3,1.17,3.6,3.83,3.56,8.12-.12,16.25-.18,24.37,0,3.22.08,3.88-1.21,3.83-4.09-.16-7.45-.38-14.94.06-22.37.29-4.84-1.56-6-5.89-5.59C118.65,128,115.31,127.78,112,127.78ZM95.78,206.47c0,5,.12,9.15,0,13.29-.1,2.66.58,3.9,3.56,3.84,8.29-.16,16.58-.11,24.87,0,2.43,0,3.62-.56,3.58-3.3q-.19-12.69,0-25.37c0-2.73-1.11-3.39-3.56-3.32-4.31.13-8.63-.07-12.93.06-4.94.15-11.39-2.1-14.42.86C93.56,195.72,96.29,202.26,95.78,206.47Zm17.32,49c-5.45,0-9.93.06-14.41,0-2.11-.05-2.94.76-2.93,2.9q.1,12.94,0,25.87c0,2.34.81,3.22,3.17,3.19q12.69-.14,25.37,0c2.58,0,3.55-.82,3.45-3.43-.15-4.3.12-8.62-.07-12.93-.23-5.06,2.24-11.61-1.1-14.78C123.51,253.39,117.07,255.8,113.1,255.48ZM95.78,334.17c0,5,.12,9.16,0,13.29-.1,2.67.59,3.9,3.56,3.84,8.29-.17,16.59-.12,24.88,0,2.43,0,3.61-.57,3.57-3.31q-.19-12.68,0-25.37c0-2.73-1.12-3.39-3.57-3.31-4.14.13-8.29-.07-12.43,0-5.1.16-11.67-2.12-14.91.89S96.29,330,95.78,334.17Z"/><path class="cls-5" d="M383.09,224.3q0-85.43.12-170.86c0-4.38-1.15-5.6-5.56-5.57-30,.2-60.11.13-90.17.15V16l93.66,0c20.46,0,33.9,13.52,33.9,34.09q0,90.65,0,181.31A174.43,174.43,0,0,0,383.09,224.3Z"/><path class="cls-6" d="M434.64,336.87a18,18,0,0,1-7.06,14.1q-37,30.67-73.91,61.46c-5.48,4.56-11,9.09-16.38,13.79-2.2,1.91-3.67,1.89-5.78-.27-9.17-9.39-18.57-18.54-27.76-27.9-6.67-6.8-6.71-16.32-.33-22.72s15.83-6.3,22.75.26a54.1,54.1,0,0,1,6.29,6.38c2.75,3.69,4.94,2.86,8,.27,22.35-18.81,44.83-37.47,67.25-56.2,5.49-4.6,11.5-5.8,18-2.7C431.54,326.1,434.2,331,434.64,336.87Z"/><path class="cls-7" d="M287.48,16V48c-.05,5.32-.06,10.63-.15,15.95-.31,17.78-14,31.74-31.68,31.83q-48.14.26-96.25,0C141.7,95.71,128,81.72,127.72,64c-.09-5.31-.11-10.63-.16-15.95V16a109,109,0,0,0,.06-11.43C127.26.62,128.85,0,132.39,0c19.74.17,39.47.08,59.21.08C222,.08,252.31.14,282.66,0c3.54,0,5.13.62,4.76,4.56A111.78,111.78,0,0,0,287.48,16Z"/><path class="cls-8" d="M32.85,374.05Q82.94,374,133,373.84c3,0,4,1,4,4q-.21,50.07-.22,100.16a39.19,39.19,0,0,1-3-2.53Q84.54,426.31,35.36,377.1C34.43,376.17,33.69,375.07,32.85,374.05Z"/><path class="cls-9" d="M239.45,127.78q30.92,0,61.84,0c10.59,0,17.89,6.49,18,15.84s-7.24,16.07-17.72,16.07q-62.08,0-124.18,0c-10.48,0-17.78-6.71-17.7-16.09s7.34-15.81,18-15.82Q208.52,127.75,239.45,127.78Z"/><path class="cls-9" d="M223.48,191.62q23,0,45.88,0c10.6,0,17.9,6.48,18,15.83s-7.25,16.07-17.72,16.08q-46.14,0-92.26,0c-10.48,0-17.78-6.71-17.71-16.1s7.35-15.79,18-15.81Q200.55,191.58,223.48,191.62Z"/><path class="cls-10" d="M191.06,287.4c-5,0-10,.07-15,0-9.35-.17-16.39-7-16.46-15.83s6.9-15.92,16.2-16q15.71-.21,31.41,0c9.26.12,16.29,7.21,16.22,16.05s-7.11,15.66-16.45,15.83C201.7,287.47,196.38,287.4,191.06,287.4Z"/><path class="cls-9" d="M112,127.78c3.32,0,6.66.24,9.94-.07,4.33-.4,6.18.75,5.89,5.59-.44,7.43-.22,14.92-.06,22.37,0,2.88-.61,4.17-3.83,4.09-8.12-.2-16.25-.14-24.37,0-2.66,0-3.89-.59-3.83-3.56q.24-12.44,0-24.88c-.06-3,1.15-3.67,3.82-3.56C103.69,127.9,107.84,127.78,112,127.78Z"/><path class="cls-9" d="M95.78,206.47c.51-4.21-2.22-10.75,1.06-14,3-3,9.48-.71,14.42-.86,4.3-.13,8.62.07,12.93-.06,2.45-.07,3.6.59,3.56,3.32q-.19,12.68,0,25.37c0,2.74-1.15,3.33-3.58,3.3-8.29-.09-16.58-.14-24.87,0-3,.06-3.66-1.18-3.56-3.84C95.9,215.62,95.78,211.47,95.78,206.47Z"/><path class="cls-9" d="M113.1,255.48c4,.32,10.41-2.09,13.47.81,3.34,3.17.87,9.72,1.1,14.78.19,4.31-.08,8.63.07,12.93.1,2.61-.87,3.47-3.45,3.43q-12.67-.17-25.37,0c-2.36,0-3.19-.85-3.17-3.19q.14-12.93,0-25.87c0-2.14.82-3,2.93-2.9C103.17,255.54,107.65,255.48,113.1,255.48Z"/><path class="cls-9" d="M95.78,334.17c.51-4.2-2.26-10.86,1.06-13.94s9.81-.73,14.91-.89c4.14-.12,8.29.08,12.43,0,2.45-.08,3.61.58,3.57,3.31q-.19,12.69,0,25.37c0,2.74-1.14,3.33-3.57,3.31-8.29-.1-16.59-.15-24.88,0-3,.06-3.66-1.17-3.56-3.84C95.9,343.33,95.78,339.17,95.78,334.17Z"/></g></g></svg>