<svg xmlns="http://www.w3.org/2000/svg" viewBox="0 0 383.35 312"><defs><style>.cls-1{fill:#f1d1a5;}.cls-2{fill:#39607f;}.cls-3{fill:#f1d0a5;}.cls-4{fill:#385f7e;}.cls-5{fill:#f2ba88;}.cls-6{fill:#2f4f68;}.cls-7{fill:#f1ba88;}.cls-8{fill:#d4ecf9;}.cls-9{fill:#b3e0f6;}.cls-10{fill:#2d4e68;}.cls-11{fill:#3e6482;}.cls-12{fill:#9bcda4;}.cls-13{fill:#dd6571;}</style></defs><g id="Capa_2" data-name="Capa 2"><g id="Capa_1-2" data-name="Capa 1"><path class="cls-1" d="M0,194.36c2-13.44,10.43-23.68,17.38-34.61,8.27-13,16.83-25.84,25.27-38.74.05,1.36.14,2.73.15,4.1q0,32.92,0,65.84c0,5.05,1.24,9.6,4.72,13.4.86.94,1.64,2.05,3,.56,7.84-8.69,16.16-17,23.57-26,3-2.61,5.57-5.65,8.33-8.5C87.64,164.93,92.19,158.83,98,154c2.07,1.17,3.08,3.05,3.9,5.24,2.15,5.72-1,10.16-3.45,14.69q-14.33,26-28.86,51.81c-2.19,3.89-1.62,7,1,10.58,5.54,7.64,8.3,16.43,5.86,25.7a120.14,120.14,0,0,0-3.89,34.25c.18,6.66-3,10.42-9.48,11.81-1.09.24-2.34,0-2.48,1.6L41,311.88c-2.51.28-3.58-.8-3.67-3.4-.38-11.19-.93-22.37-1.4-33.55a33.58,33.58,0,0,0-6.24-17.7c-6.6-9.67-13.1-19.4-19.85-29A63.27,63.27,0,0,1,0,205.58Z"/><path class="cls-2" d="M74.07,178.87c-7.41,9.08-15.73,17.35-23.57,26-1.35,1.49-2.13.38-3-.56C44,200.55,42.79,196,42.79,191q0-32.92,0-65.84c0-1.37-.1-2.74-.15-4.1.06-1.62.17-3.24.17-4.85q0-47.85,0-95.7C42.83,7.15,49.76.23,63.13.22q121.68,0,243.36,0c3.1,0,6.21,0,9.31-.08.12,1.08,1,1.37,1.8,1.69,8,3.36,10.82,10,10.83,17.92q.12,85.55,0,171.07c0,2.58-.13,5.16-1.7,7.39-4-4-8.13-7.79-11.26-12.52.67-1.55.4-3.2.4-4.8q0-72.16,0-144.34c0-3.92,1.86-9.24-.87-11.41s-7.88-.65-12-.5c-1.25,0-2.49-.11-3.73-.11q-110.48,0-220.94-.09c-3.6,0-4.54.94-4.53,4.53q.18,73.08.09,146.17C73.91,176.38,74,177.63,74.07,178.87ZM64.32,105.5a24.21,24.21,0,0,0-.06-4.82c-.57-2.84-2-5.07-5.36-5.12S53.75,97,53,100.4a24.88,24.88,0,0,0,.06,9.5c.52,3.1,2.15,5,5.32,5.1,3.33.08,5.32-1.83,5.87-5A25.51,25.51,0,0,0,64.32,105.5Z"/><path class="cls-3" d="M315.5,185.7c3.13,4.72,7.27,8.56,11.26,12.51,1.87,2.15,3.81,4.26,5.61,6.47,1.18,1.45,2.08,1.32,3.23,0a19.47,19.47,0,0,0,4.81-13q0-21.87.13-43.72a3.26,3.26,0,0,1,.86.69c6.21,9.57,12.92,18.86,18.48,28.8,8.76,15.67,8.48,31.61-1.27,46.9-6.33,9.93-13.1,19.58-19.78,29.29a26,26,0,0,0-3.39,6.13c-5.75,16.39-6.4,33.45-6.94,50.55-9.85-1-19.7-2-29.55-3-2.65-.28-3.33-2.2-3.33-4.56,0-5.35-.27-10.71,0-16,.35-8.45-2.06-16.41-3.82-24.51-2.1-9.71.39-18.5,6.2-26.32,2.41-3.23,2.82-6.16.84-9.59-3.09-5.37-6.13-10.78-9.19-16.17q-6.14-12.42-13.42-24.19c-1.12-2.18-2.33-4.32-3.34-6.55-2.7-6-7.8-11-7.25-18.2,1.67-5.14,4.62-8.9,10.31-9.88,5.1-.88,8.67,1.82,12.1,4.94,4.65,5.8,9.92,11,15,16.42C307.19,177,310.64,182,315.5,185.7Z"/><path class="cls-4" d="M276.19,185.88q7.31,11.76,13.42,24.19-73,0-146,.06-25,0-50-.07c4.22-8.19,8.62-16.28,13.42-24.15q68.73,0,137.46.06C255,186,265.61,185.91,276.19,185.88Z"/><path class="cls-5" d="M328.5,310.3c.54-17.1,1.19-34.16,6.94-50.55a26,26,0,0,1,3.39-6.13c6.68-9.71,13.45-19.36,19.78-29.29,9.75-15.29,10-31.23,1.27-46.9-5.56-9.94-12.27-19.23-18.48-28.8a3.26,3.26,0,0,0-.86-.69q0-13.55,0-27.08c6.35,9.67,12.74,19.31,19,29,5.36,8.24,10.72,16.49,15.9,24.85,10.44,16.85,10.59,33.81-.28,50.5-7.06,10.85-14.53,21.43-21.8,32.14a35.81,35.81,0,0,0-6.27,19.22c-.37,10.69-.94,21.38-1.32,32.06-.1,2.63-1.28,3.55-3.76,3.34C337.53,311.59,332.94,311.55,328.5,310.3Z"/><path class="cls-6" d="M340.56,120.86q0,13.54,0,27.08-.07,21.85-.13,43.72a19.47,19.47,0,0,1-4.81,13c-1.15,1.36-2.05,1.49-3.23,0-1.8-2.21-3.74-4.32-5.61-6.47,1.57-2.23,1.7-4.81,1.7-7.39q0-85.53,0-171.07c0-8-2.87-14.56-10.83-17.92-.77-.32-1.68-.61-1.8-1.69a68,68,0,0,1,7.82,0c10.52,1.23,16.77,8.42,16.78,19.19q0,48.36,0,96.7C340.41,117.64,340.51,119.25,340.56,120.86Z"/><path class="cls-7" d="M107,185.91c-4.8,7.87-9.2,16-13.42,24.15-3.25,5.73-6.53,11.44-9.71,17.21a6.25,6.25,0,0,0,.6,7.32c7.91,10.39,9.42,21.69,5.49,34.13-3.19,10.1-2.3,20.68-2.4,31.1-.07,8.08-.13,7.19-6.57,7.93-6.77.77-13.52,2-20.38,1.88.14-1.63,1.39-1.36,2.48-1.6,6.51-1.39,9.66-5.15,9.48-11.81A120.14,120.14,0,0,1,76.44,262c2.44-9.27-.32-18.06-5.86-25.7-2.6-3.59-3.17-6.69-1-10.58q14.54-25.84,28.86-51.81c2.49-4.53,5.6-9,3.45-14.69-.82-2.19-1.83-4.07-3.9-5.24,3.72-3.87,8.14-3.32,12.69-2,4.86,3.12,7.33,7.47,6.85,13.33-.52,1.25-1,2.55-1.57,3.74C113,174.65,110,180.28,107,185.91Z"/><path class="cls-8" d="M110.7,151.94c-4.55-1.31-9-1.86-12.69,2-5.82,4.88-10.37,11-15.61,16.42-2.76,2.85-5.32,5.89-8.33,8.5-.06-1.24-.16-2.49-.16-3.73q0-73.08-.09-146.17c0-3.59.93-4.53,4.53-4.53q110.46.16,220.94.09c1.24,0,2.48.07,3.73.11q0,74,0,148c-5.11-5.38-10.38-10.62-15-16.43-.06-4.85-2-6.67-7.25-6.67H175.34c-4.76,0-7.55,2.23-7.51,5.89,0,3.48,2.82,5.75,7.31,5.75q45.23,0,90.46,0c-.55,7.24,4.55,12.25,7.25,18.2,1,2.23,2.22,4.37,3.34,6.55-10.58,0-21.17.1-31.75.09q-68.73,0-137.46-.06c3-5.63,6-11.26,9-16.9.62-1.19,1-2.49,1.57-3.74,2.21,1.6,4.37,3.28,6.64,4.78a6,6,0,0,0,8.34-1.08q8.41-9.72,16.71-19.52c2.58-3,2.46-6.13-.23-8.56-2.51-2.27-5.62-2.14-8.22.65-2.87,3.08-5.55,6.35-8.25,9.59-5.49,6.58-5.5,6.63-12.41,1.41C117.06,150.22,114,149.19,110.7,151.94ZM227.86,69.28h52.33a10.19,10.19,0,0,0,4.41-.54,5.42,5.42,0,0,0,3.53-5.22,5.27,5.27,0,0,0-3.74-5.43,13,13,0,0,0-4-.49q-52.32,0-104.65,0a10.71,10.71,0,0,0-4,.47,5.71,5.71,0,0,0-.16,10.68,10.9,10.9,0,0,0,4.42.54Zm-.1,45.81h49c2.12,0,4.26.13,6.36-.08a5.44,5.44,0,0,0,5-5.92,5.29,5.29,0,0,0-5.2-5.32,31.54,31.54,0,0,0-3.37-.05h-71.8c-11.22,0-22.44,0-33.66,0-4.92,0-7.67,4.43-5.42,8.42,1.41,2.5,3.72,3,6.39,3Q201.4,115,227.76,115.09ZM117.91,93.38a5.49,5.49,0,0,0-4.53,3.28,5.74,5.74,0,0,0,1.09,6.59c1.87,2,5.13,3.85,5.32,6,.22,2.48-3.48,4.08-5.29,6.23-2.17,2.59-2.23,5.9-.1,8.1,2.38,2.47,5.51,2.52,8.32,0a59.57,59.57,0,0,0,4.5-4.49c1.09-1.19,1.94-1.21,3.05,0a54.15,54.15,0,0,0,5.08,5,5.37,5.37,0,0,0,7.74-.47c2.14-2.33,2.35-5,.38-7.46s-5.55-4.25-5.74-6.56c-.21-2.68,4-4.33,5.75-6.82a5.46,5.46,0,0,0-.37-7.49c-2.1-2.33-5.11-2.5-7.74-.55a14.73,14.73,0,0,0-1.11,1c-5.55,5.19-5.57,5.2-10.93.07A7.05,7.05,0,0,0,117.91,93.38ZM115.36,58.2c-2.51.1-4.56,1.08-5.6,3.54a5.69,5.69,0,0,0,2,7.29q5.8,4.39,11.74,8.61c3.57,2.55,6.71,2.16,9.55-1.14q8-9.34,16-18.76c2.79-3.3,2.75-6.4-.06-8.86-2.44-2.14-6.06-1.74-8.62,1.14-3.64,4.1-7.44,8.09-10.64,12.51-2.09,2.88-3.56,2.81-6.12.82S118.73,59,115.36,58.2Z"/><path class="cls-9" d="M303,172.61q0-74,0-148c4.09-.15,9.23-1.68,12,.5s.87,7.49.87,11.41q.11,72.16,0,144.34c0,1.6.27,3.25-.4,4.8C310.64,182,307.19,177,303,172.61Z"/><path class="cls-10" d="M64.32,105.5a25.51,25.51,0,0,1,0,4.46c-.55,3.21-2.54,5.12-5.87,5-3.17-.08-4.8-2-5.32-5.1a24.88,24.88,0,0,1-.06-9.5c.73-3.44,2.52-4.88,5.88-4.84s4.79,2.28,5.36,5.12A24.21,24.21,0,0,1,64.32,105.5Z"/><path class="cls-11" d="M265.6,161.13q-45.24,0-90.46,0c-4.49,0-7.28-2.27-7.31-5.75,0-3.66,2.75-5.89,7.51-5.89H280.76c5.27,0,7.19,1.82,7.25,6.67-3.43-3.11-7-5.81-12.1-4.93C270.22,152.23,267.27,156,265.6,161.13Z"/><path class="cls-12" d="M110.7,151.94c3.33-2.75,6.36-1.72,9.43.6,6.91,5.22,6.92,5.17,12.41-1.41,2.7-3.24,5.38-6.51,8.25-9.59,2.6-2.79,5.71-2.92,8.22-.65,2.69,2.43,2.81,5.53.23,8.56q-8.33,9.8-16.71,19.52a6,6,0,0,1-8.34,1.08c-2.27-1.5-4.43-3.18-6.64-4.78C118,159.41,115.56,155.06,110.7,151.94Z"/><path class="cls-11" d="M227.86,69.28h-52a10.9,10.9,0,0,1-4.42-.54,5.71,5.71,0,0,1,.16-10.68,10.71,10.71,0,0,1,4-.47q52.32,0,104.65,0a13,13,0,0,1,4,.49,5.27,5.27,0,0,1,3.74,5.43,5.42,5.42,0,0,1-3.53,5.22,10.19,10.19,0,0,1-4.41.54Z"/><path class="cls-4" d="M227.76,115.09q-26.35,0-52.73,0c-2.67,0-5-.45-6.39-3-2.25-4,.5-8.38,5.42-8.42,11.22-.08,22.44,0,33.66,0h71.8a31.54,31.54,0,0,1,3.37.05,5.29,5.29,0,0,1,5.2,5.32,5.44,5.44,0,0,1-5,5.92c-2.1.21-4.24.08-6.36.08Z"/><path class="cls-13" d="M117.91,93.38a7.05,7.05,0,0,1,5.42,2.38c5.36,5.13,5.38,5.12,10.93-.07a14.73,14.73,0,0,1,1.11-1c2.63-2,5.64-1.78,7.74.55a5.46,5.46,0,0,1,.37,7.49c-1.8,2.49-6,4.14-5.75,6.82.19,2.31,3.88,4.24,5.74,6.56s1.76,5.13-.38,7.46a5.37,5.37,0,0,1-7.74.47,54.15,54.15,0,0,1-5.08-5c-1.11-1.2-2-1.18-3.05,0a59.57,59.57,0,0,1-4.5,4.49c-2.81,2.51-5.94,2.46-8.32,0-2.13-2.2-2.07-5.51.1-8.1,1.81-2.15,5.51-3.75,5.29-6.23-.19-2.13-3.45-4-5.32-6a5.74,5.74,0,0,1-1.09-6.59A5.49,5.49,0,0,1,117.91,93.38Z"/><path class="cls-12" d="M115.36,58.2c3.37.8,5.71,3.19,8.22,5.15s4,2.06,6.12-.82c3.2-4.42,7-8.41,10.64-12.51,2.56-2.88,6.18-3.28,8.62-1.14,2.81,2.46,2.85,5.56.06,8.86q-8,9.39-16,18.76c-2.84,3.3-6,3.69-9.55,1.14q-5.94-4.22-11.74-8.61a5.69,5.69,0,0,1-2-7.29C110.8,59.28,112.85,58.3,115.36,58.2Z"/></g></g></svg>