<svg xmlns="http://www.w3.org/2000/svg" viewBox="0 0 510.87 375.19"><defs><style>.cls-1{fill:#ec5f62;}</style></defs><g id="Capa_2" data-name="Capa 2"><g id="Capa_1-2" data-name="Capa 1"><path class="cls-1" d="M0,324.29V49.91C1.69,48.7,1.48,46.68,1.91,45A59.83,59.83,0,0,1,59.66.05Q255.44,0,451.22.06a59.72,59.72,0,0,1,59.59,59.78q.12,127.7,0,255.38a59.72,59.72,0,0,1-60,59.91q-195.54.14-391.06,0c-27.59,0-51.07-18.64-58-45.34C1.34,328,1.62,325.78,0,324.29ZM470.93,72.35c-2.17,1.52-3.4,2.34-4.59,3.23Q363.52,152,260.77,228.62c-4,3-6.33,3.25-10.49.14Q147.65,152,44.71,75.72c-1.35-1-2.46-2.77-4.8-2.35v239c0,15.18,7.79,22.93,23.06,22.93H448c14.95,0,22.88-7.83,22.88-22.62q0-117.22,0-234.44Zm-24.17-32H64.39c1.23,1,1.85,1.59,2.51,2.09q92.39,68.7,184.71,137.5c3.29,2.46,5.13,1.88,8-.27q54.3-40.59,108.75-81C394.22,79.48,420.07,60.23,446.76,40.36Z"/></g></g></svg>