<svg xmlns="http://www.w3.org/2000/svg" viewBox="0 0 409.45 356.32"><defs><style>.cls-1{fill:#edebee;}.cls-2{fill:#706672;}.cls-3{fill:#dcdadc;}.cls-4{fill:#fee1b5;}.cls-5{fill:#c39772;}.cls-6{fill:#5d424c;}.cls-7{fill:#5e5461;}.cls-8{fill:#d59f63;}.cls-9{fill:#b48865;}.cls-10{fill:#fbd7a6;}.cls-11{fill:#dfb074;}.cls-12{fill:#523643;}.cls-13{fill:#ce925b;}.cls-14{fill:#976e51;}.cls-15{fill:#f0c892;}</style></defs><g id="Capa_2" data-name="Capa 2"><g id="Capa_1-2" data-name="Capa 1"><path class="cls-1" d="M409.45,272.4c-2,.28-1.56,1.83-1.59,3.09-.28,11-.3,22-.88,33-.65,12.3-1.24,24.59-1.6,36.91-.19,6.28-5.27,10.77-11.56,10.79-8.13,0-16.25,0-24.38,0q0-44.87,0-89.72a29.08,29.08,0,0,1,6-18.56c8.46-10.62,18.57-19.69,28.42-29,2.37.53,2.22,2.94,3.33,4.41.71,1,.34,2.76,2.21,2.79Z"/><path class="cls-2" d="M40,356.12c-8.91,0-17.83.21-26.74,0-5.22-.11-9.72-4.8-10-10.08q-.89-14.91-1.54-29.83c-.38-8.62-.59-17.25-.89-25.88,0-.73.25-1.64-.79-2V262.82c2.11-4.74,3.28-9.94,6.72-14,1.1-1.31,2-2.85,3.58-3.67,5.88,8.34,12.94,15.72,19.3,23.68s10.61,16.82,10.47,27.53C39.8,316.24,40,336.18,40,356.12Z"/><path class="cls-3" d="M403.91,218.91c-9.85,9.3-20,18.37-28.42,29a29.08,29.08,0,0,0-6,18.56q0,44.87,0,89.72l-65-.12q-1.87-31.2-3.75-62.4-1.76-29.4-3.49-58.82c2.93-2.58,2.84-6.11,3-9.56,2.45.74,3.7,2.93,5.37,4.57,7.71,7.57,15,6.86,21-2.16q12.61-18.76,25.26-37.52c13.65,5.1,27.48,9.82,40.55,16.32C397.7,209.12,402,213,403.91,218.91Z"/><path class="cls-3" d="M272.83,356.13q-35.68,0-71.37.06c-1.13,0-2.46.38-3.16-1,3.85-3.07,5.64-6.86,5.93-12,.35-6.24.32-12.48.64-18.72,1-19.1,2.33-38.19,2.16-57.32a29.08,29.08,0,0,0-10.19-22.07c-3.38-4.14-8.08-6.3-12.76-8.45-5.39-2.48-10.82-4.87-16.23-7.29,2.42-5.25,3.88-11,7.87-15.43,4.9-5.5,11-9.1,17.8-11.69,9.69-3.66,19.29-7.53,28.95-11.28a25.76,25.76,0,0,1,3.05-.8c8.52,12.76,17,25.55,25.57,38.27,5.39,8,13.16,8.66,20.15,2,1.68-1.6,2.81-4,5.5-4.3.35,3.19.66,6.41,3.29,8.75Zm-27.47-74.95c4.65,0,9.3-.1,13.95.05a5.19,5.19,0,0,0,5-2.64,11.18,11.18,0,0,0,.46-10.3c-1.3-3.11-4.33-3.94-7.65-3.9-7.17.08-14.35,0-21.53,0-8.64,0-10.23,1.63-10.06,10.28.08,4.27,2.29,6.45,6.67,6.48S241,281.19,245.36,281.18Z"/><path class="cls-4" d="M169.44,115.07c1.77,1.83,4.6,2.11,6.16,4.28,3.88,5.41,3.72,11.38,1.51,17.09-1.91,4.92-6.05,7.49-11.64,7.48-3.61,0-4.89,2.67-5.57,5.73a57.19,57.19,0,0,1-18.42,31.41c-3,2.61-6.23,4.91-9.36,7.35-6.36,2.44-12.6,5.21-19.34,6.53-.75-2.43-3.15-2.1-4.88-2.73-16.36-6-27.85-17-34.67-32.93-3.29-7.7-4.17-15.85-4.37-24-.34-14-.17-27.9-.21-41.86.33-.7.65-1.4,1-2.11C74,86.42,75,86.23,81.28,89.08c17.23,7.84,35.49,11.57,54.19,13.28,8.47.77,16.52,1.56,22.26,9.14C160.47,115.13,165,115.55,169.44,115.07Z"/><path class="cls-5" d="M358.2,88c6.64,4.55,5.95,14.67,4.09,20.07-1.64,4.73-5.7,6.92-10.62,7-3.83.06-6,1.84-6.72,5.44a58.12,58.12,0,0,1-14.31,28,21.24,21.24,0,0,0-1.77,2.6c-1.75.44-2.9,1.73-4.23,2.81-7.73,6.27-16.35,10.55-26.36,11.68-.29-.27-.53-.71-.86-.78-11.7-2.64-21.21-8.92-29.09-17.72-8.4-9.4-13.49-20.48-13.89-33-.53-16.6-.11-33.23-.1-49.84,2.51-1.75,5-1.1,7.55,0A107.33,107.33,0,0,0,301,72.07a138.8,138.8,0,0,0,29.7-2.26c3.87-.74,6.72.5,8.55,4.11,1.62,3.19,3.55,6.22,5.13,9.43,1.05,2.14,2.36,3.39,4.91,3.06A17.39,17.39,0,0,1,358.2,88Z"/><path class="cls-6" d="M358.2,88a17.39,17.39,0,0,0-8.89-1.57c-2.55.33-3.86-.92-4.91-3.06-1.58-3.21-3.51-6.24-5.13-9.43-1.83-3.61-4.68-4.85-8.55-4.11A138.8,138.8,0,0,1,301,72.07a107.33,107.33,0,0,1-39.13-7.91c-2.55-1.06-5-1.71-7.55,0l-1.51.71a2.69,2.69,0,0,1-2.32-1.27c-6.77-10.87-10.49-22.45-9.15-35.48.36-3.56,1.52-6.92,1.73-10.46,23-18,49-21.34,76.48-14.17C341,9.12,353.4,24,358.13,45.27,361.28,59.46,360.69,73.74,358.2,88Z"/><path class="cls-7" d="M167.85,229.36c5.41,2.42,10.84,4.81,16.23,7.29,4.68,2.15,9.38,4.31,12.76,8.45-5.66,8.33-12.71,15.54-19,23.37S167,285,167.1,295.54c.13,20.19,0,40.39,0,60.58H109.57q0-51.58,0-103.19c0-1.4-.58-3.24,1-4s2.88.78,4.07,1.79c3.53,3,6.94,6.15,10.65,8.92,3.47,2.59,7,2,9.25-1.64,7-11.23,13.8-22.59,20.68-33.9Z"/><path class="cls-8" d="M169.44,115.07c-4.42.48-9,.06-11.71-3.57-5.74-7.58-13.79-8.37-22.26-9.14-18.7-1.71-37-5.44-54.19-13.28C75,86.23,74,86.42,69.63,91.3a29.55,29.55,0,0,0-1.58-2.74A73.29,73.29,0,0,1,56.24,63.78c-1.18-4.67-.73-9.63-2.76-14.12a59.66,59.66,0,0,1,13-10.35c1.1-.7,2.41-1.13,3.11-2.37a33.52,33.52,0,0,0,4.86-1.66c7.4-3.83,15.45-5.51,23.58-6.2,14.16-1.21,27.52,2.15,40.12,8.63C155.92,48,167.41,63,171.53,83.32,173.71,94.1,172.53,104.64,169.44,115.07Z"/><path class="cls-7" d="M40,356.12c0-19.94-.2-39.88.07-59.81.14-10.71-4-19.45-10.47-27.53S16.18,253.44,10.3,245.1c2.61-3.33,6.15-5.43,9.91-7.1,10.52-4.68,21.11-9.22,31.67-13.81q9.75,15.92,19.5,31.81c3.76,6.15,6.83,6.8,12.49,2.37,2.81-2.21,5.39-4.7,8-7.08,1.35-1.21,2.62-3.15,4.63-2.27,1.73.76,1,2.85,1,4.37q0,51.38,0,102.74Zm29.31-63c-3.6,0-7.19-.07-10.78,0-4.08.12-6.36,2.42-6.54,6.47-.06,1.45-.05,2.92,0,4.38.1,3.42,2.06,5.13,5.26,5.93,5,1.24,10,.62,15.07.73,3.17.07,6.38.34,9.45-.91,3.65-1.48,5.52-5.82,4.53-10.73a7.66,7.66,0,0,0-7.41-5.88C75.69,293.13,72.5,293.15,69.31,293.15Z"/><path class="cls-2" d="M97.55,356.13q0-51.37,0-102.74c0-1.52.73-3.61-1-4.37-2-.88-3.28,1.06-4.63,2.27-2.66,2.38-5.24,4.87-8,7.08-5.66,4.43-8.73,3.78-12.49-2.37q-9.73-15.9-19.5-31.81c3.84-3.86,7.65-7.75,11.51-11.59,4.25-4.23,6.08-4.31,11-.66q13,13.14,26.09,26.27c2.07,2.07,4.21,2.08,6.27,0Q119.78,225.11,132.8,212c5-3.71,6.76-3.59,11.25.88,3.76,3.75,7.47,7.54,11.2,11.31-6.88,11.31-13.67,22.67-20.68,33.9-2.28,3.66-5.78,4.23-9.25,1.64-3.71-2.77-7.12-5.92-10.65-8.92-1.19-1-2.35-2.57-4.07-1.79s-1,2.57-1,4q0,51.6,0,103.19Z"/><path class="cls-1" d="M276.74,226.11c-2.69.32-3.82,2.7-5.5,4.3-7,6.68-14.76,6-20.15-2-8.57-12.72-17.05-25.51-25.57-38.27,4.58-4.7,9.06-9.5,13.79-14,2.9-2.78,5.86-.37,8.74.53a13.13,13.13,0,0,0,1.67,2.2c12.4,10.87,24.87,21.66,37.21,32.59,1.86,1.65,2.68.52,3.89-.54q17.88-15.61,35.79-31.2c1-.86,2.08-1.68,2.36-3.1,5-2.9,8.9-1.52,12.5,2.71,3.24,3.82,6.92,7.25,10.41,10.86q-12.63,18.75-25.26,37.52c-6.07,9-13.32,9.73-21,2.16-1.67-1.64-2.92-3.83-5.37-4.57-.52-1.94-2.19-3-3.48-4.26-2.63-2.62-5.2-6.93-8.09-7.18s-5.39,4.47-8,7C279.11,222.41,276.84,223.49,276.74,226.11Z"/><path class="cls-9" d="M252.83,64.91l1.51-.71c0,16.61-.43,33.24.1,49.84.4,12.56,5.49,23.64,13.89,33,7.88,8.8,17.39,15.08,29.09,17.72.33.07.57.51.86.78-13.94,3.73-26.67,0-38.78-6.62-4-2.21-7.57-5.2-11.34-7.84-1.11-3-3.81-4.69-5.58-7.16a57.71,57.71,0,0,1-10-21.42c-1.36-6.14-2.2-6.83-8.31-7.45-7.42-.75-12.14-8.59-10.58-17.58,1.1-6.4,4.29-9.89,10.17-11.13,4.55.16,9.08.11,12.77-3.11A86,86,0,0,0,252.83,64.91Z"/><path class="cls-10" d="M68.65,93.41c0,14-.13,27.91.21,41.86.2,8.16,1.08,16.31,4.37,24,6.82,16,18.31,27,34.67,32.93,1.73.63,4.13.3,4.88,2.73a51.39,51.39,0,0,1-25.11-1.57c-4.4-1.38-8.68-3.14-13-4.72-.62-2.07-2.72-2.41-4.16-3.49-11.91-8.92-20-20.37-23.17-35-.92-4.27-2.92-6.32-7.54-6.41A10.2,10.2,0,0,1,30,136.83c-2.8-7.24-1.91-18.81,7.65-21.68,7.1.57,13-1.22,18-6.9Z"/><path class="cls-9" d="M329,176.6c-.28,1.42-1.37,2.24-2.36,3.1q-17.89,15.6-35.79,31.2c-1.21,1.06-2,2.19-3.89.54-12.34-10.93-24.81-21.72-37.21-32.59a13.13,13.13,0,0,1-1.67-2.2c.1-3.76.19-7.51.29-11.26.57.32,1.16.61,1.7,1,16,10.4,33.31,14.19,52.22,10.46,9.68-1.91,18.26-6.09,26.43-11.36Z"/><path class="cls-11" d="M138.11,37.71c-12.6-6.48-26-9.84-40.12-8.63-8.13.69-16.18,2.37-23.58,6.2a33.52,33.52,0,0,1-4.86,1.66c-1.23-8.32,1.23-15.81,6.1-22.31C84.39,3,96.27-1.93,110.62,1.07,124.41,4,133.2,12.74,137,26.32A34.92,34.92,0,0,1,138.11,37.71Z"/><path class="cls-12" d="M252.83,64.91a86,86,0,0,1-16.16,18.36c-3.69,3.22-8.22,3.27-12.77,3.11a205.37,205.37,0,0,1-4.59-38.88C219.2,38,221,29,229.2,22.71a21.89,21.89,0,0,1,13.89-5c-.21,3.54-1.37,6.9-1.73,10.46-1.34,13,2.38,24.61,9.15,35.48A2.69,2.69,0,0,0,252.83,64.91Z"/><path class="cls-13" d="M68.65,93.41l-13,14.84c-5,5.68-10.87,7.47-18,6.9Q26.9,78.82,52.26,50.65a8.38,8.38,0,0,1,1.22-1c2,4.49,1.58,9.45,2.76,14.12A73.29,73.29,0,0,0,68.05,88.56a29.55,29.55,0,0,1,1.58,2.74C69.3,92,69,92.71,68.65,93.41Z"/><path class="cls-10" d="M132.8,212q-13.05,13.14-26.09,26.27c-2.06,2.07-4.2,2.06-6.27,0q-13.05-13.12-26.09-26.27c1.61-3.42.24-7.08.81-10.58,1.53.37,3.11.62,4.59,1.14,11.77,4.16,23.66,5.75,36.12,3.15,5.57-1.17,10.79-3.41,16.39-4.36C133.67,204.78,131.36,208.46,132.8,212Z"/><path class="cls-14" d="M328.69,165.45c-8.17,5.27-16.75,9.45-26.43,11.36-18.91,3.73-36.2-.06-52.22-10.46-.54-.35-1.13-.64-1.7-1-.59-4.75-.28-9.51-.18-14.27,3.77,2.64,7.34,5.63,11.34,7.84,12.11,6.67,24.84,10.35,38.78,6.62,10-1.13,18.63-5.41,26.36-11.68,1.33-1.08,2.48-2.37,4.23-2.81C328.94,155.88,329.24,160.67,328.69,165.45Z"/><path class="cls-15" d="M132.26,201.29c-5.6,1-10.82,3.19-16.39,4.36-12.46,2.6-24.35,1-36.12-3.15-1.48-.52-3.06-.77-4.59-1.14a52.52,52.52,0,0,1-.51-12.71c4.34,1.58,8.62,3.34,13,4.72a51.39,51.39,0,0,0,25.11,1.57c6.74-1.32,13-4.09,19.34-6.53A36.67,36.67,0,0,1,132.26,201.29Z"/><path class="cls-2" d="M167.12,356.12c0-20.19.11-40.39,0-60.58-.07-10.55,4.39-19.13,10.75-27.07s13.33-15,19-23.37A29.08,29.08,0,0,1,207,267.17c.17,19.13-1.19,38.22-2.16,57.32-.32,6.24-.29,12.48-.64,18.72-.29,5.1-2.08,8.89-5.93,12-2.74,1.29-5.67,1.16-8.57,1.14C182.2,356.27,174.66,356.19,167.12,356.12Z"/><path class="cls-7" d="M272.83,356.13,280,234.86a38.18,38.18,0,0,0,17.18,0q1.74,29.41,3.49,58.82,1.86,31.2,3.75,62.4Z"/><path class="cls-6" d="M297.21,234.84a38.18,38.18,0,0,1-17.18,0c-2.63-2.34-2.94-5.56-3.29-8.75.1-2.62,2.37-3.7,3.9-5.22,2.62-2.58,5-7.32,8-7s5.46,4.56,8.09,7.18c1.29,1.29,3,2.32,3.48,4.26C300.05,228.73,300.14,232.26,297.21,234.84Z"/><path class="cls-1" d="M245.36,281.19c-4.39,0-8.78,0-13.17,0s-6.59-2.21-6.67-6.48c-.17-8.65,1.42-10.28,10.06-10.28,7.18,0,14.36.05,21.53,0,3.32,0,6.35.79,7.65,3.9a11.18,11.18,0,0,1-.46,10.3,5.19,5.19,0,0,1-5,2.64C254.66,281.08,250,281.18,245.36,281.19Z"/><path class="cls-2" d="M69.31,293.15c3.19,0,6.38,0,9.58,0A7.66,7.66,0,0,1,86.3,299c1,4.91-.88,9.25-4.53,10.73-3.07,1.25-6.28,1-9.45.91-5-.11-10.08.51-15.07-.73-3.2-.8-5.16-2.51-5.26-5.93-.05-1.46-.06-2.93,0-4.38.18-4.05,2.46-6.35,6.54-6.47C62.12,293.08,65.71,293.15,69.31,293.15Z"/></g></g></svg>