<svg xmlns="http://www.w3.org/2000/svg" viewBox="0 0 384.95 408.76"><defs><style>.cls-1{fill:#d33c6a;}.cls-2{fill:#ea537e;}.cls-3{fill:#feda66;}.cls-4{fill:#d43f6a;}.cls-5{fill:#feda65;}.cls-6{fill:#f2a39d;}.cls-7{fill:#fdd66a;}.cls-8{fill:#fdd667;}.cls-9{fill:#f09ea3;}.cls-10{fill:#f5ad8e;}.cls-11{fill:#fdc750;}.cls-12{fill:#ffdb65;}.cls-13{fill:#d43e6a;}</style></defs><g id="Capa_2" data-name="Capa 2"><g id="Capa_1-2" data-name="Capa 1"><path class="cls-1" d="M14.47,408.76c-1.28-1.87-4.08-2.62-4-5.47,0-1.86,0-3.72,0-5.58q0-126.15,0-252.29c0-1.63-.7-3.49.88-4.88q21.92,21.18,43.11,43.1c-3.32,0-6.65,0-10,.06-5.22,0-8.4,3.11-8.49,8.37-.09,5.72-.1,11.44,0,17.16.45,26.57-1.13,53.16.82,79.7,1,13.8,5.4,26.72,12,38.8A103.71,103.71,0,0,0,87,367.43c15.85,9.57,33,14.94,51.61,15q123.09.12,246.17.05c0,6.24,0,12.48.18,18.72.09,3.73-2.4,5.64-4.92,7.6Z"/><path class="cls-2" d="M384.73,382.44q-123.09,0-246.17-.05c-18.58,0-35.76-5.39-51.61-15a103.71,103.71,0,0,1-38.1-39.7c-6.59-12.08-11-25-12-38.8-2-26.54-.37-53.13-.82-79.7-.1-5.72-.09-11.44,0-17.16.09-5.26,3.27-8.33,8.49-8.37,3.32,0,6.65,0,10-.06l30,0h30l30,0,30.37.06,29.57,0,30.37,0h29.55l30.37,0,29.57,0,30.36-.06c10.09-.09,20.19.49,30.28-.3V378.85C384.85,380.05,384.77,381.24,384.73,382.44ZM175.87,249c-2.94-2.57-6.75-3.64-9.94-5.77-7.51-5-13.8-.32-13.7,7.86q.56,45.07,0,90.16c-.1,8.42,6,12.45,13.66,8.11,14.45-8.14,29.21-15.73,43.84-23.55,13.93-7.44,27.89-14.83,41.78-22.34,4.89-2.63,5.85-5.47,4-10.42-.8-2.57-3.11-3.49-5.18-4.6q-14.7-7.9-29.45-15.73Q198.38,260.84,175.87,249Z"/><path class="cls-3" d="M84.45,183.62l-29.95,0q-21.22-21.88-43.11-43.1-.08-.36-.12-.72l-.63-.79c-.23-2.62,1.67-4.35,2.81-6.35q14-24.42,28.05-48.76c9.46-3.18,19.16-5.49,28.84-7.85C69,78.51,67.79,81,66.42,83.38q-13.58,23.75-27.18,47.48l-24.79,6.72c-.35.11-1,.16-1,.33-.25,1.36.88,1,1.51,1,6.71,0,13.43,0,20.14,0,2,0,4-.31,5.75.83,7.51,7.46,15.06,14.87,22.52,22.37C70.42,169.26,77.42,176.46,84.45,183.62Z"/><path class="cls-3" d="M271.22,68.79c-9.59,3.12-19.35,5.6-29.16,7.87,4.53-7.94,9.12-15.86,13.59-23.84,5.76-10.28,12.2-20.18,17.4-30.78,9.49-3.2,19.24-5.45,28.92-7.92-1.85,5.45-5.35,10-8.12,15C286.39,42.37,278.77,55.56,271.22,68.79Z"/><path class="cls-3" d="M99.12,68.36c9.68-2.78,19.36-5.59,29.22-7.7-5.25,9.22-10.54,18.41-15.73,27.66-5.06,9-10.75,17.68-15.24,27C87.72,118.21,78,121,68.18,123.08c8.19-14.28,16.44-28.53,24.55-42.86C94.94,76.32,97.74,72.72,99.12,68.36Z"/><path class="cls-3" d="M215.49,37.37c9.48-3,19-5.61,28.78-7.66-2.93,5.2-5.83,10.41-8.79,15.6q-11.13,19.55-22.3,39.07c-9.51,2.89-19.09,5.52-28.8,7.64.55-1.19,1-2.43,1.67-3.56Q200.75,62.9,215.49,37.37Z"/><path class="cls-3" d="M157.33,52.9c9.49-3.11,19.23-5.35,28.88-7.89-.59,2.36-2.06,4.27-3.24,6.33Q169,75.6,155.06,99.83c-9.46,3.16-19.17,5.42-28.82,7.9,1.29-2.44,2.53-4.92,3.9-7.32Q143.72,76.65,157.33,52.9Z"/><path class="cls-3" d="M329.28,52.86c-3.14,2.49-7.14,2.44-10.74,3.53-6.06,1.82-12.22,3.28-18.33,4.89.24-1.77,1.39-3.11,2.23-4.58q14.4-25.12,28.83-50.24C338.4,3.78,345.89,2.39,353.19.3a6.44,6.44,0,0,1,6,1.1Q344.25,27.13,329.28,52.86Z"/><path class="cls-4" d="M155.06,99.83Q169,75.57,183,51.34c1.18-2.06,2.65-4,3.24-6.33l29.28-7.64Q200.76,62.9,186.05,88.46c-.66,1.13-1.12,2.37-1.67,3.56Z"/><path class="cls-5" d="M384.85,183.34c-10.09.79-20.19.21-30.28.3q-7.8-7.92-15.58-15.84-14.22-14.42-28.45-28.8l29.51.09.83.67c1.9,1.85,3.83,3.68,5.71,5.56q19.11,19,38.21,38Z"/><path class="cls-4" d="M331.27,6.46Q316.86,31.59,302.44,56.7c-.84,1.47-2,2.81-2.23,4.58l-29,7.51c7.55-13.23,15.17-26.42,22.63-39.71,2.77-4.94,6.27-9.51,8.12-15Z"/><path class="cls-4" d="M157.33,52.9q-13.61,23.76-27.19,47.51c-1.37,2.4-2.61,4.88-3.9,7.32l-28.87,7.6c4.49-9.33,10.18-18,15.24-27,5.19-9.25,10.48-18.44,15.73-27.66Z"/><path class="cls-4" d="M213.18,84.38q11.15-19.53,22.3-39.07c3-5.19,5.86-10.4,8.79-15.6L273.05,22c-5.2,10.6-11.64,20.5-17.4,30.78-4.47,8-9.06,15.9-13.59,23.84Z"/><path class="cls-4" d="M99.12,68.36c-1.38,4.36-4.18,8-6.39,11.86-8.11,14.33-16.36,28.58-24.55,42.86l-28.94,7.78q13.59-23.75,27.18-47.48c1.37-2.4,2.62-4.87,3.92-7.31Z"/><path class="cls-4" d="M11.27,139.82q0,.36.12.72c-1.58,1.39-.87,3.25-.88,4.88q0,126.15,0,252.29c0,1.86,0,3.72,0,5.58-1.23-1.67-.7-3.6-.7-5.41q0-121.77.09-243.55c0-11.14-1-21.91-4.42-32.5-1.29-4-2.21-8.19-3.3-12.29,3.54-5.85,7.42-11.51,10-17.9l29.41-7.72Q27.46,108.3,13.45,132.68c-1.14,2-3,3.73-2.81,6.35Z"/><path class="cls-4" d="M329.28,52.86q15-25.72,29.92-51.46c2.23,1.31,3.18,3.5,3.8,5.83,2.38,8.8,4.76,17.61,7,26.45,1.28,5-.46,8.82-5.08,10.13-11.32,3.22-22.73,6.11-34.11,9.1A5.5,5.5,0,0,1,329.28,52.86Z"/><path class="cls-1" d="M384.8,183.27q-19.11-19-38.21-38c-1.88-1.88-3.81-3.71-5.71-5.56,1.18-1.32,2.74-.72,4.12-.73,8.48-.06,17,0,25.45,0,4.6,4.95,9.13,10,14.44,14.19Z"/><path class="cls-6" d="M40.82,139.77c-1.79-1.14-3.8-.82-5.75-.83-6.71,0-13.43,0-20.14,0-.63,0-1.76.36-1.51-1,0-.17.68-.22,1-.33,1.56,1.14,3.35.59,5,.59q113,.06,226,.05c1.73,0,3.46.06,5.18.1,0,.26-.11.51-.18.77l-30-.05-29.88,0-30.08.06c-9,0-18.06-.08-27.08-.1-.92,0-1.9-.13-2.51.81a6.21,6.21,0,0,0-3.41-.79q-13.47.08-26.95.09l-30.23,0c-8.73,0-17.46,0-26.2,0C43,139,41.69,138.57,40.82,139.77Z"/><path class="cls-7" d="M12.1,91.64c-2.57,6.39-6.45,12-10,17.9a5.71,5.71,0,0,1-.35-.7C-2.12,97.32,0,93.78,12.1,91.64Z"/><path class="cls-8" d="M384.89,153.18c-5.31-4.23-9.84-9.24-14.44-14.19l7.83-.18c4.43.44,6.24,3.31,6.57,7.34C385.05,148.48,384.89,150.84,384.89,153.18Z"/><path class="cls-6" d="M340.05,139.09,310.54,139l-30.33.05c-.25-.05-.49-.12-.74-.18,0-.19,0-.37,0-.55h60.64C340.09,138.58,340.07,138.83,340.05,139.09Z"/><path class="cls-9" d="M340.05,139.09c0-.26,0-.51,0-.77l36-.11a2.6,2.6,0,0,1,2.2.6l-7.83.18c-8.48,0-17,0-25.45,0-1.38,0-2.94-.59-4.12.73Z"/><path class="cls-10" d="M279.45,138.32c0,.18,0,.36,0,.55l-28.81.15-.17.07c.07-.26.13-.51.18-.77Z"/><path class="cls-11" d="M255.48,293.06c1.88,4.95.92,7.79-4,10.42-13.89,7.51-27.85,14.9-41.78,22.34-14.63,7.82-29.39,15.41-43.84,23.55-7.7,4.34-13.76.31-13.66-8.11q.56-45.08,0-90.16c-.1-8.18,6.19-12.87,13.7-7.86,3.19,2.13,7,3.2,9.94,5.77-1.58,1.2-1,2.94-1,4.44q-.06,22.55,0,45.07c0,9.32,3.63,12.11,12.63,10.16,19.6-4.26,39.26-8.28,58.85-12.62C249.44,295.38,253,295.63,255.48,293.06Z"/><path class="cls-12" d="M255.48,293.06c-2.51,2.57-6,2.32-9.12,3-19.59,4.34-39.25,8.36-58.85,12.62-9,1.95-12.63-.84-12.63-10.16q0-22.53,0-45.07c0-1.5-.62-3.24,1-4.44q22.49,11.85,45,23.72,14.76,7.8,29.45,15.73C252.37,289.57,254.68,290.49,255.48,293.06Z"/><path class="cls-5" d="M70.31,139l30.23,0q14,14.17,28,28.34c5.3,5.38,10.55,10.82,15.83,16.24l-30,0c-1-1.07-1.92-2.18-2.94-3.21Z"/><path class="cls-13" d="M160.49,139.05l30.08-.06c1.07,1.17,2.09,2.38,3.2,3.51q20.46,20.59,40.95,41.18l-30.37,0c-.51-1.45-1.81-2.24-2.81-3.25Q181,159.71,160.49,139.05Z"/><path class="cls-13" d="M220.45,139l30,.05.17-.07c1,1.08,1.84,2.22,2.86,3.24q20.53,20.72,41.12,41.4l-30.37,0c-.44-1.49-1.76-2.26-2.76-3.27Q241,159.7,220.45,139Z"/><path class="cls-13" d="M280.21,139.05l30.33-.05q14.22,14.4,28.45,28.8,7.8,7.9,15.58,15.84l-30.36.06c-.39-1.54-1.74-2.29-2.74-3.3Q300.86,159.7,280.21,139.05Z"/><path class="cls-13" d="M144.41,183.64c-5.28-5.42-10.53-10.86-15.83-16.24q-14-14.19-28-28.34,13.47,0,26.95-.09a6.21,6.21,0,0,1,3.41.79q21.94,22,43.88,43.94Z"/><path class="cls-1" d="M70.31,139l41.2,41.39c1,1,2,2.14,2.94,3.21h-30c-7-7.16-14-14.36-21.11-21.48-7.46-7.5-15-14.91-22.52-22.37.87-1.2,2.17-.76,3.29-.76C52.85,139,61.58,139,70.31,139Z"/><path class="cls-12" d="M174.78,183.7q-21.94-22-43.88-43.94c.61-.94,1.59-.82,2.51-.81,9,0,18.05.07,27.08.1q20.53,20.67,41,41.36c1,1,2.3,1.8,2.81,3.25Z"/><path class="cls-12" d="M220.45,139q20.53,20.69,41.06,41.37c1,1,2.32,1.78,2.76,3.27H234.72q-20.47-20.58-40.95-41.18c-1.11-1.13-2.13-2.34-3.2-3.51Z"/><path class="cls-12" d="M280.21,139.05q20.64,20.67,41.26,41.35c1,1,2.35,1.76,2.74,3.3l-29.57,0q-20.56-20.7-41.12-41.4c-1-1-1.91-2.16-2.86-3.24l28.81-.15C279.72,138.93,280,139,280.21,139.05Z"/><path class="cls-5" d="M11.27,139.82l-.63-.79Z"/></g></g></svg>