<svg xmlns="http://www.w3.org/2000/svg" viewBox="0 0 383.1 383.1"><defs><style>.cls-1{fill:#faf8f5;}</style></defs><g id="Capa_2" data-name="Capa 2"><g id="Capa_1-2" data-name="Capa 1"><path class="cls-1" d="M383.1,198.29c-1.25.37-1.06,1.59-1.32,2.44-4.72,15.21-17.15,24.47-33.21,24.48q-59.65.06-119.31-.08c-3.57,0-4.12,1.09-4.11,4.3q.16,59.65,0,119.31c0,19.41-14.94,34.45-33.85,34.36a33.64,33.64,0,0,1-33.45-34c-.08-39.65,0-79.3,0-118.94,0-4.93,0-4.93-4.81-4.93q-59.47,0-118.94,0C15,225.16,0,210.24,0,191.49a33.61,33.61,0,0,1,33.87-33.58c34.28-.1,68.57,0,102.85,0,5.86,0,11.73-.17,17.58.07,2.9.12,3.66-.67,3.65-3.61q-.16-58.92-.07-117.82c0-19.39,9.12-31.09,28-36,.17-.05.28-.35.42-.54H196c1.23,1.32,3,.75,4.47,1.17,14.78,4.2,24.67,17.24,24.69,33.11q.08,59.86-.07,119.71c0,3.38.9,4,4.07,4q59.85-.18,119.7-.06c16,0,28.71,9.78,33.12,25.14.24.84-.23,2.11,1.08,2.53Z"/></g></g></svg>