<svg xmlns="http://www.w3.org/2000/svg" viewBox="0 0 407.79 398.85"><defs><style>.cls-1{fill:#ffd783;}.cls-2{fill:#f1cb7a;}.cls-3{fill:#d9b76f;}.cls-4{fill:#ec6463;}.cls-5{fill:#ed686a;}.cls-6{fill:#ec6362;}.cls-7{fill:#ec6569;}.cls-8{fill:#d95757;}.cls-9{fill:#dad8d8;}.cls-10{fill:#ed6869;}.cls-11{fill:#ec6669;}.cls-12{fill:#ec6162;}.cls-13{fill:#fffdfd;}.cls-14{fill:#f2f0f0;}</style></defs><g id="Capa_2" data-name="Capa 2"><g id="Capa_1-2" data-name="Capa 1"><path class="cls-1" d="M62.21,82.6c2.66-11.36,5.36-22.71,7.93-34.09.43-1.91,1.18-2.74,3.2-2.61,9.56.61,16.77-3.21,21.24-11.77.87-1.67,1.86-1.39,3.23-1.06C110.2,36,122.58,38.94,135,41.76c1.86.42,2.19,1.29,2.3,3,.63,10.22,6.43,17.46,15.87,20,9,2.41,18.12-1.39,23.51-10.11,1.3-2.12,2.59-2.61,4.84-2.07C193,55.31,204.48,58,216,60.63c2.53.57,3.79,1.42,3.88,4.35.06,1.86-.37,4.41,1.95,5.72,0,4.37,3.28,6.63,5.85,9.38,2.25,2.41,6.92,2.33,7.74,5.22s-.85,6.35-1.42,9.56c-2.79,8.58-4.32,17.48-6.49,26.22-3.78.07-7.24-1.48-10.87-2.15-2.61-.47-5.3-1.09-7.75.41-2.7,1.63-3.45,4.21-3,7.23.47,3.3,2.89,4.65,5.65,5.45,4.18,1.2,8.56,1.68,12.61,3.37-.64,2.7-1.3,5.4-1.92,8.11q-4.16,18.18-8.28,36.37a20.36,20.36,0,0,0-1.59,7.46,38.2,38.2,0,0,0-1.44,4.09c-5.9,25-11.88,50.05-17.56,75.13-2.08,9.17-5,18.15-5.89,27.58-2.37,5.22-3.16,10.88-4.38,16.4-2,9.16-5,18.1-5.92,27.5-2.61,5.57-3.16,11.7-4.65,17.56-2.36,9.25-4.42,18.58-6.49,27.9-.44,2-1.37,2.61-3.3,2.46-9.41-.71-16.58,2.91-21.06,11.32-1.05,2-2.55,1.68-4.07,1.32-12.14-2.83-24.25-5.79-36.41-8.54-2-.45-2.13-1.41-2.24-3-.67-10.09-6.91-17.92-15.88-20.09-9.75-2.35-18.28,1.41-23.85,10.71-1,1.7-2,2.12-3.84,1.68Q37.16,375,19,370.78c-2-.46-2.79-1.34-2.91-3.49-.59-10.35-6.15-17-16-19.63v-1.6c3.29-10.62,5.34-21.55,7.9-32.34q17.56-74.25,34.93-148.55Q50.42,132.86,58,100.56c.33-1.42.51-2.88.76-4.32,4.1,1,8.2,2.05,12.33,3,4.84,1.06,8.61-.91,9.48-4.83.93-4.17-1.19-7.35-6-8.68C70.45,84.55,66.32,83.62,62.21,82.6Zm18.08,41.55c-3.14-.91-3.26.82-3.58,2.17q-7.81,33.48-15.59,67-15.37,65.6-30.81,131.17c-1.22,5.22-1.21,5.21,4,6.43l107.94,25.42c5,1.19,5,1.2,6.19-3.71q16-68.12,31.93-136.22,7-30,14.13-60c1.22-5.14,1.23-5.18-4-6.42q-38.12-8.94-76.23-17.85C102.59,129.43,91,126.67,80.29,124.15Zm111.24-5.7c-.08-3.32-2.22-5.86-6.15-6.81q-12.72-3.08-25.5-5.9c-5.06-1.12-8.74.86-9.66,5-.82,3.68,1.61,7.3,6.11,8.42q13.46,3.36,27,6.34A7,7,0,0,0,191.53,118.45Zm-64.86-6.21c5.68.17,9.08-2.13,9.5-5.51.44-3.55-1.08-6.59-4.55-7.49Q117,95.43,102.21,92.38a6.16,6.16,0,0,0-7.16,4.94c-.82,3.54.64,7.12,4.12,8.07C108.88,108,118.7,110.28,126.67,112.24Z"/><path class="cls-2" d="M378.57,141.84c-9,13.15-17.89,26.35-26.95,39.45q-35.44,51.29-71,102.51-23.14,33.4-46.22,66.85c-1.52,2.2-2.6,2.94-5.36,1.59-6.93-3.39-14.15-3.18-20.37,1.45-3.71,2.76-6.34,2.86-9.41-.29a25.73,25.73,0,0,0-2.13-1.75c2.24-9.78,4.6-19.53,6.66-29.35,1-4.9,2.91-9.63,3-14.72l.37,0,.37,0c5.23,3.64,10.54,7.18,15.66,11,2.22,1.64,3.23,1.08,4.67-1q58-83.92,116.17-167.75c1.87-2.71,1.72-4-1.08-5.95-19.08-13.05-38-26.33-57-39.46-8.74-6-17.58-11.91-26.37-17.86a4.12,4.12,0,0,0-.18-.69c1.19-5.26,2.23-10.56,3.62-15.76.67-2.53,0-3.09-2.45-3.54-5.29-1-10.49-2.51-15.75-3.73-1.29-.3-2.32-.5-1.88-2.23,1-3.85.19-7.91,1.4-11.74,1.78,1.13,3.57,2.28,5.37,3.39,4.47,2.77,8.38,2.24,10.8-1.46,2.26-3.44,1.17-7.08-3.1-10.15-3.33-2.4-6.71-4.74-10.07-7.11,6.52-9.37,13.1-18.71,19.51-28.15,1.54-2.27,2.71-2.73,5.41-1.48,7.74,3.62,15.28,2.76,22-2.63,2-1.61,3.33-1.69,5.49-.15q14.1,10.08,28.5,19.71c2.54,1.71,3.5,3.14,2.5,6.44a20.75,20.75,0,0,0,8.36,23.42A21.09,21.09,0,0,0,364,49.58c2.09-1.64,3.52-1.58,5.58-.13q14.82,10.42,29.81,20.62c1.86,1.27,2.09,2.42,1.43,4.61-2.52,8.27-1,15.78,5.34,21.93,1.52,1.48,2.36,2.58.88,4.65-6.77,9.52-13.42,19.11-20.12,28.68-3.55-1.79-6.64-4.28-9.89-6.51-2-1.35-4-2.58-6.6-2a6.83,6.83,0,0,0-5.46,5.16c-.74,2.81.35,5.17,2.5,7.07C370.92,136.71,375.29,138.53,378.57,141.84ZM277.68,56.41a7,7,0,0,0-6,4.56c-1.38,3.76.3,6.77,3.41,8.93q11.12,7.71,22.33,15.28a5.64,5.64,0,0,0,4.84,1.19c2.71-.73,5-1.81,5.69-4.85.76-3.54-.63-6.28-3.47-8.27q-10.9-7.66-21.92-15.17A8.49,8.49,0,0,0,277.68,56.41Zm69.79,62.27c3.57,0,6-1.05,7.16-4.38,1.38-3.89-.42-6.5-3.26-8.54q-10.68-7.64-21.58-15c-4.2-2.81-8.16-2.24-10.58,1.15s-1.5,7.3,2.65,10.23c7.15,5,14.4,10,21.59,14.95C344.79,118.06,346.15,118.83,347.47,118.68Z"/><path class="cls-3" d="M206.78,307.58c-.08,5.09-2,9.82-3,14.72-2.06,9.82-4.42,19.57-6.66,29.35l-20-13.62c.89-9.4,3.9-18.34,5.92-27.5,1.22-5.52,2-11.18,4.38-16.4A231.57,231.57,0,0,1,206.78,307.58Z"/><path class="cls-3" d="M244.31,48.85c-1.21,3.83-.41,7.89-1.4,11.74-.44,1.73.59,1.93,1.88,2.23,5.26,1.22,10.46,2.73,15.75,3.73,2.42.45,3.12,1,2.45,3.54-1.39,5.2-2.43,10.5-3.61,15.76-3.18-2.12-6.48-4.08-9.49-6.41-2.45-1.88-3.81-1.74-5.58,1-3.25,4.95-6.37,10-10.32,14.46.57-3.21,2.22-6.74,1.42-9.56s-5.49-2.81-7.74-5.22c-2.57-2.75-5.89-5-5.85-9.38l17.54-25.53A19.81,19.81,0,0,1,244.31,48.85Z"/><path class="cls-4" d="M244.31,48.85a19.81,19.81,0,0,0-4.95-3.68c-4.21-5.22-3.22-10.66,2.17-12.37,2.12-.68,3.89.24,5.78.72,3.36,2.37,6.74,4.71,10.07,7.11,4.27,3.07,5.36,6.71,3.1,10.15-2.42,3.7-6.33,4.23-10.8,1.46C247.88,51.13,246.09,50,244.31,48.85Z"/><path class="cls-5" d="M62.21,82.6c4.11,1,8.24,2,12.31,3.08,4.83,1.33,7,4.51,6,8.68-.87,3.92-4.64,5.89-9.48,4.83-4.13-.9-8.23-2-12.33-3-3.33-1.65-5.64-4-4.9-8C54.47,84.63,57.25,82.88,62.21,82.6Z"/><path class="cls-6" d="M378.57,141.84c-3.28-3.31-7.65-5.13-11.12-8.2-2.15-1.9-3.24-4.26-2.5-7.07a6.83,6.83,0,0,1,5.46-5.16c2.58-.56,4.63.67,6.6,2,3.25,2.23,6.34,4.72,9.89,6.51.68,1.68,2.35,2.74,2.67,4.71C390.55,140.73,385.85,143.84,378.57,141.84Z"/><path class="cls-7" d="M80.29,124.15c10.7,2.52,22.3,5.28,33.91,8q38.12,8.92,76.23,17.85c5.26,1.24,5.25,1.28,4,6.42q-7.07,30-14.13,60-16,68.1-31.93,136.22c-1.15,4.91-1.15,4.9-6.19,3.71L34.27,330.89c-5.17-1.22-5.18-1.21-4-6.43q15.4-65.59,30.81-131.17,7.83-33.48,15.59-67C77,125,77.15,123.24,80.29,124.15Zm62.58,148.46a1.16,1.16,0,0,0,.2.24s.12,0,.18,0l-.43-.15c.65-1.43-.29-2.57-.77-3.75-2.34-5.64-4.73-11.26-7.11-16.89-3-7-2.95-6.94,2.88-11.92,5.61-4.79,11.15-9.66,17.5-15.16-9.85.8-18.56,1.39-27.23,2.29-2.83.29-4-.75-5-3.2-3.23-8.09-6.7-16.08-10.42-24.93-2.28,9.62-4.45,18.37-6.39,27.16-.5,2.29-1.57,3.08-3.75,3.19-4.38.22-8.75.58-13.12.94s-8.84.8-14.43,1.3c8.3,5.06,15.43,9.65,22.82,13.78,3,1.65,3.35,3.31,2.57,6.32-2.14,8.26-4,16.59-6.15,25.84,7.51-6.45,14.34-12.15,21-18.08,1.83-1.65,3.08-1.66,5.09-.42C127.76,263.74,135.34,268.14,142.87,272.61Z"/><path class="cls-8" d="M234,94.86c3.95-4.45,7.07-9.51,10.32-14.46,1.77-2.7,3.13-2.84,5.58-1,3,2.33,6.31,4.29,9.49,6.41a5.35,5.35,0,0,1,.17.69c-.29.43-.74.81-.85,1.28q-7.94,33.9-15.8,67.83c-2,8.47-3.82,17-5.73,25.45l-.93,2.12c-1.41,2.17-3.09,2.51-5.63,1.63-5.48-1.89-11.12-3.35-16.69-5q4.16-18.18,8.29-36.37c.62-2.71,1.28-5.41,1.92-8.11,5.25-.17,8.08-2.09,8.71-6.22s-2.83-5.87-5.34-8.09C229.67,112.34,231.2,103.44,234,94.86Z"/><path class="cls-8" d="M206.78,307.58a231.57,231.57,0,0,0-19.33-13.45c.85-9.43,3.81-18.41,5.89-27.58,5.68-25.08,11.66-50.1,17.56-75.13a38.2,38.2,0,0,1,1.44-4.09c3.1,4,6.13,8,9.32,11.92,1.33,1.62,1.32,2.87.11,4.57-4.09,5.72-8,11.54-12,17.33-1.06,1.53-2.1,3.08-3.14,4.62l.63.54,20.24-6.92a18.49,18.49,0,0,1-.2,3.17q-7.31,31.16-14.66,62.3c-1.77,7.56-3.4,15.15-5.09,22.73l-.37,0Z"/><path class="cls-9" d="M227.47,219.39l-20.24,6.92-.63-.54c1-1.54,2.08-3.09,3.14-4.62,4-5.79,7.94-11.61,12-17.33,1.21-1.7,1.22-2.95-.11-4.57-3.19-3.9-6.22-7.94-9.32-11.92a20.36,20.36,0,0,1,1.59-7.46c5.56,1.63,11.2,3.09,16.68,5,2.54.88,4.22.54,5.63-1.63q-4,17.84-7.94,35.67Z"/><path class="cls-10" d="M191.53,118.45a7,7,0,0,1-8.18,7q-13.56-3-27-6.34c-4.5-1.12-6.93-4.74-6.11-8.42.92-4.12,4.6-6.1,9.66-5q12.78,2.85,25.5,5.9C189.31,112.59,191.45,115.13,191.53,118.45Z"/><path class="cls-10" d="M126.67,112.24c-8-2-17.79-4.21-27.5-6.85-3.48-1-4.94-4.53-4.12-8.07a6.16,6.16,0,0,1,7.16-4.94q14.79,3,29.41,6.86c3.47.9,5,3.94,4.55,7.49C135.75,110.11,132.35,112.41,126.67,112.24Z"/><path class="cls-11" d="M227.5,121.08c2.51,2.22,6,3.9,5.34,8.09s-3.46,6.05-8.71,6.22c-4-1.69-8.43-2.17-12.61-3.37-2.76-.8-5.18-2.15-5.65-5.45-.44-3,.31-5.6,3-7.23,2.45-1.5,5.14-.88,7.75-.41C220.26,119.6,223.72,121.15,227.5,121.08Z"/><path class="cls-12" d="M227.47,219.39l.83-.5a10.26,10.26,0,0,0,2.28-.69c3.13-1.87,5.13-1,7.1,2,2.77,4.2,6,8.1,9.1,12.11,2,2.66,4.13,5.29,6.22,8,0-9,.15-17.6-.08-26.19-.08-2.92.86-4.21,3.57-5.1,8.21-2.69,16.34-5.63,25.55-8.85-9.19-2.75-17.27-5.31-25.45-7.53-3.2-.86-4.5-2.2-4.39-5.69.28-8.43.09-16.87.09-25.3l-1.08-.18-14,19.63c1.91-8.49,3.77-17,5.73-25.45q7.86-33.93,15.8-67.83c.11-.47.56-.85.85-1.28,8.79,5.95,17.63,11.82,26.37,17.86,19,13.13,37.94,26.41,57,39.46,2.8,1.92,2.95,3.24,1.08,5.95q-58.18,83.81-116.17,167.75c-1.44,2.09-2.45,2.65-4.67,1-5.12-3.8-10.43-7.34-15.66-11,1.69-7.58,3.32-15.17,5.09-22.73q7.3-31.17,14.66-62.3A18.49,18.49,0,0,0,227.47,219.39Z"/><path class="cls-6" d="M277.68,56.41a8.49,8.49,0,0,1,4.92,1.67q11,7.5,21.92,15.17c2.84,2,4.23,4.73,3.47,8.27-.65,3-3,4.12-5.69,4.85a5.64,5.64,0,0,1-4.84-1.19q-11.19-7.59-22.33-15.28c-3.11-2.16-4.79-5.17-3.41-8.93A7,7,0,0,1,277.68,56.41Z"/><path class="cls-6" d="M347.47,118.68c-1.32.15-2.68-.62-4-1.55-7.19-5-14.44-9.9-21.59-14.95-4.15-2.93-5.07-6.85-2.65-10.23s6.38-4,10.58-1.15q10.9,7.32,21.58,15c2.84,2,4.64,4.65,3.26,8.54C353.44,117.63,351,118.66,347.47,118.68Z"/><path class="cls-13" d="M142.87,272.61c-7.53-4.47-15.11-8.87-22.56-13.46-2-1.24-3.26-1.23-5.09.42-6.62,5.93-13.45,11.63-21,18.08,2.17-9.25,4-17.58,6.15-25.84.78-3,.38-4.67-2.57-6.32-7.39-4.13-14.52-8.72-22.82-13.78,5.59-.5,10-.94,14.43-1.3s8.74-.72,13.12-.94c2.18-.11,3.25-.9,3.75-3.19,1.94-8.79,4.11-17.54,6.39-27.16,3.72,8.85,7.19,16.84,10.42,24.93,1,2.45,2.13,3.49,5,3.2,8.67-.9,17.38-1.49,27.23-2.29-6.35,5.5-11.89,10.37-17.5,15.16-5.83,5-5.85,4.95-2.88,11.92,2.38,5.63,4.77,11.25,7.11,16.89.48,1.18,1.42,2.32.77,3.75Z"/><path class="cls-13" d="M142.82,272.68l.43.15c-.06,0-.15.05-.18,0a1.16,1.16,0,0,1-.2-.24Z"/><path class="cls-14" d="M237.17,181.1l14-19.63,1.08.18c0,8.43.19,16.87-.09,25.3-.11,3.49,1.19,4.83,4.39,5.69,8.18,2.22,16.26,4.78,25.45,7.53-9.21,3.22-17.34,6.16-25.55,8.85-2.71.89-3.65,2.18-3.57,5.1.23,8.59.08,17.19.08,26.19-2.09-2.69-4.18-5.32-6.22-8-3.08-4-6.33-7.91-9.1-12.11-2-3-4-3.89-7.1-2a10.26,10.26,0,0,1-2.28.69q4-17.83,7.94-35.67Z"/></g></g></svg>