<svg xmlns="http://www.w3.org/2000/svg" viewBox="0 0 337.01 383.16"><defs><style>.cls-1{fill:#faf8f5;}</style></defs><g id="Capa_2" data-name="Capa 2"><g id="Capa_1-2" data-name="Capa 1"><path class="cls-1" d="M70.61,383.16c-.14-.58-.6-.66-1.09-.81-16.78-5.17-25-15.24-26.44-32.55q-4.68-56.64-9.27-113.29-3.92-47.32-8-94.64c-.48-5.65-.49-5.65,5.29-5.65q138.24,0,276.47-.09c3.5,0,4.25.91,3.95,4.25q-3.75,42.84-7.23,85.7c-1.86,22.48-3.66,45-5.53,67.45-1.67,20.12-3.2,40.25-5.2,60.34-1.48,14.87-12.83,26.22-27.72,28.63-.27.05-.48.43-.72.66Zm41.9-134.71V236.11q0-32.73,0-65.44c0-5.93-2.52-9.68-7.38-11.26-8-2.62-15,2.58-15,11.28q0,77.77,0,155.56a16.76,16.76,0,0,0,.06,2.24c.61,4.48,3,7.58,7.32,9,7.9,2.61,15-2.5,15-10.9C112.55,300.55,112.51,274.5,112.51,248.45Zm67.35,0v-12q0-32.91,0-65.81c0-5.93-2.51-9.68-7.37-11.26-8.18-2.67-15.06,2.62-15.06,11.65q0,77.41,0,154.81a22.63,22.63,0,0,0,.07,2.61c.6,4.49,3,7.59,7.32,9,7.89,2.61,15-2.5,15-10.9C179.9,300.55,179.86,274.5,179.86,248.45Zm67.35.32q0-38.9,0-77.81c0-4.75-1.69-8.52-5.92-10.86-7.74-4.26-16.53,1.28-16.53,10.51q-.06,78,0,156a14.61,14.61,0,0,0,.06,1.87c.61,4.48,3,7.58,7.32,9,7.9,2.61,15-2.5,15.05-10.91Q247.27,287.68,247.21,248.77Z"/><path class="cls-1" d="M169.41,112.27H17.15a38.55,38.55,0,0,1-9.28-.82C3.48,110.39.54,107.61.46,103.2.26,93.12-.69,83,.91,73a33.07,33.07,0,0,1,32.9-28q31.61-.2,63.22,0c2.91,0,4.11-.9,4.92-3.57,1.82-6.07,3.88-12.07,6-18C113,8.79,125.11.08,140.46,0Q168.71,0,197,0c15,0,27.23,8.71,32.24,22.76,2.17,6.09,4.24,12.22,6.07,18.42.83,2.8,2,3.83,5.12,3.8,20.33-.19,40.65-.1,61-.09,21.33,0,35.62,14.28,35.64,35.59q0,9.54,0,19.08c0,8.2-4.49,12.67-12.72,12.67Q246.85,112.29,169.41,112.27Zm-45-67.56h88.46c-1.7-5.08-3.2-9.94-5-14.71s-5.4-7.46-10.53-7.48q-28.8-.14-57.6,0a10.27,10.27,0,0,0-10.12,6.94C127.73,34.43,126.16,39.52,124.39,44.71Z"/></g></g></svg>