<svg xmlns="http://www.w3.org/2000/svg" viewBox="0 0 213.39 213.52"><defs><style>.cls-1{fill:#020303;}</style></defs><g id="Capa_2" data-name="Capa 2"><g id="Capa_1-2" data-name="Capa 1"><path class="cls-1" d="M114.68,213.52H98c-1.92-.8-4-.64-6-.93a105,105,0,0,1-47.94-19.41Q8.42,166.8,1.18,123c-.41-2.47-.25-5-1.18-7.42V98c.57-.16.39-.65.42-1A83.68,83.68,0,0,1,2.23,84.66C7.86,59.38,20.66,38.49,41.14,22.59,64.86,4.18,91.86-2.83,121.56,1a98,98,0,0,1,47.75,19.3c35.21,27,49.46,62.72,42.26,106.43-3.82,23.19-15.28,42.73-32.61,58.65a105.09,105.09,0,0,1-56,26.94C120.18,212.77,117.36,212.67,114.68,213.52Zm-6.38-93.75c-7.91,0-14.37,0-20.83,0a46.21,46.21,0,0,0-6.23.38A35.53,35.53,0,0,0,50.5,154.4a15.07,15.07,0,0,0,5.79,12.76C73.94,181.5,94,187.53,116.68,184.81A77.28,77.28,0,0,0,157.33,167a14.94,14.94,0,0,0,4.86-7.09c1.24-3.91.72-7.82,0-11.72C159.66,133.39,145.65,121,130.6,120,122.68,119.53,114.76,120,108.3,119.77ZM142,67.31a35.21,35.21,0,1,0-35.38,35.18A35.16,35.16,0,0,0,142,67.31Z"/></g></g></svg>